<svg width="71" height="50" viewBox="0 0 71 50" fill="none" xmlns="http://www.w3.org/2000/svg">
<path d="M42.7105 40.658C42.7105 42.8704 41.8316 44.9923 40.2672 46.5567C38.7027 48.1212 36.5809 49.0001 34.3684 49.0001C25.5186 49.0001 17.0312 45.4845 10.7734 39.2267C4.5156 32.9689 1 24.4815 1 15.6317C1 14.5362 1.21578 13.4514 1.63501 12.4393C2.05424 11.4272 2.6687 10.5075 3.44334 9.73289C4.21797 8.95825 5.13762 8.34379 6.14973 7.92456C7.16184 7.50533 8.24661 7.28955 9.34211 7.28955C9.8057 7.29063 10.2684 7.331 10.7251 7.41028H10.9447C11.3495 7.48734 11.721 7.6864 12.0094 7.9807C12.2978 8.27501 12.4893 8.65047 12.5582 9.05674L14.6657 21.4602C14.6893 21.6035 14.6656 21.7505 14.5983 21.8792C14.531 22.0079 14.4236 22.1113 14.2925 22.1736L11.2849 23.6225C11.1383 23.698 11.024 23.8242 10.9634 23.9777C10.9028 24.1311 10.9001 24.3014 10.9556 24.4567C12.2149 27.7673 14.1596 30.7743 16.6622 33.2807C19.1648 35.7871 22.1689 37.7363 25.4775 39.0005C25.6326 39.0586 25.8038 39.057 25.9579 38.9962C26.1119 38.9354 26.238 38.8196 26.3117 38.6712C26.8056 37.6943 27.7935 35.6637 27.7935 35.6637C27.8589 35.5357 27.9632 35.4317 28.0914 35.3666C28.2196 35.3016 28.365 35.2787 28.507 35.3014L40.9104 37.4089C41.3166 37.4778 41.6921 37.6693 41.9864 37.9577C42.2807 38.2461 42.4798 38.6177 42.5568 39.0225V39.242C42.649 39.7086 42.7005 40.1824 42.7105 40.658V40.658Z" stroke="white" stroke-width="2" stroke-miterlimit="10"/>
<path d="M65 7L46.4222 21.5041C46.0229 21.8245 45.5197 22 45 22C44.4803 22 43.9771 21.8245 43.5778 21.5041L25 7" stroke="white" stroke-width="2" stroke-miterlimit="10" stroke-linecap="round"/>
<path d="M48.2841 37H67.7727C68.3634 37 68.93 36.7629 69.3476 36.341C69.7653 35.919 70 35.3467 70 34.75V3.25C70 2.65326 69.7653 2.08096 69.3476 1.65901C68.93 1.23705 68.3634 1 67.7727 1H23.2273C22.6366 1 22.07 1.23705 21.6524 1.65901C21.2347 2.08096 21 2.65326 21 3.25L21 21" stroke="white" stroke-width="2" stroke-miterlimit="10" stroke-linecap="round"/>
</svg>
