<svg width="383" height="64" viewBox="0 0 383 64" fill="none" xmlns="http://www.w3.org/2000/svg">
<g clip-path="url(#clip0_509_2486)">
<path d="M89.5921 6.01514H1.09912V14.7019H3.22265V62.86H87.467V14.7019H89.5921V6.01514Z" fill="white"/>
<path d="M336.205 27.0906L337.615 20.9505L336.856 19.2741L334.765 18.5029L333.061 18.9693L331.847 21.1029L333.184 27.0906H336.205Z" fill="white"/>
<path d="M334.765 60.687C332.673 60.687 331.24 62.5554 331.24 62.5554H338.326C338.326 62.5554 336.856 60.687 334.765 60.687Z" fill="white"/>
<path d="M157.895 0.98584V20.4929H124.503V25.5221H127.084V63.0123H157.895H165.03H221.647V0.98584H157.895Z" fill="white"/>
<path d="M286.766 6.16756L282.59 0.717773L278.357 6.16756H245.933V63.0124H319.249V6.16756H286.766Z" fill="white"/>
<path d="M89.583 6.43115H3.22412V13.9414H89.583V6.43115Z" fill="#F1DFC4"/>
<path d="M0.947271 14.6425C1.07205 14.6425 1.1956 14.6178 1.31088 14.5698C1.42617 14.5219 1.53093 14.4516 1.61917 14.363C1.7074 14.2745 1.77738 14.1693 1.82513 14.0536C1.87289 13.9378 1.89747 13.8138 1.89747 13.6885V6.76348H88.6312V13.6885C88.6261 13.8169 88.6469 13.945 88.6923 14.0651C88.7377 14.1852 88.8068 14.295 88.8955 14.3876C88.9841 14.4803 89.0905 14.5539 89.2083 14.6043C89.326 14.6547 89.4527 14.6806 89.5807 14.6806C89.7086 14.6806 89.8353 14.6547 89.953 14.6043C90.0708 14.5539 90.1772 14.4803 90.2658 14.3876C90.3545 14.295 90.4236 14.1852 90.469 14.0651C90.5144 13.945 90.5352 13.8169 90.5301 13.6885V5.81099C90.5303 5.68578 90.5059 5.56173 90.4583 5.44599C90.4107 5.33025 90.3409 5.22504 90.2528 5.13643C90.1647 5.04782 90.06 4.97752 89.9448 4.92956C89.8296 4.8816 89.7061 4.85693 89.5814 4.85693H0.947271C0.822489 4.85693 0.698943 4.88162 0.583659 4.92956C0.468376 4.97751 0.363609 5.04777 0.275375 5.13636C0.187141 5.22495 0.117159 5.3301 0.0694073 5.44584C0.0216553 5.56159 -0.00292969 5.68571 -0.00292969 5.81099V13.6885C-0.00292969 13.8138 0.0216553 13.9378 0.0694073 14.0536C0.117159 14.1693 0.187141 14.2745 0.275375 14.363C0.363609 14.4516 0.468376 14.5219 0.583659 14.5698C0.698943 14.6178 0.822489 14.6425 0.947271 14.6425Z" fill="#C8B395"/>
<path d="M86.1478 8.79666H4.38659C4.25871 8.79153 4.13114 8.81239 4.01149 8.85798C3.89183 8.90357 3.78259 8.97292 3.69031 9.06195C3.59802 9.15097 3.5246 9.25783 3.47444 9.37605C3.42429 9.49426 3.39844 9.62141 3.39844 9.7499C3.39844 9.87839 3.42429 10.0056 3.47444 10.1238C3.5246 10.242 3.59802 10.3488 3.69031 10.4379C3.78259 10.5269 3.89183 10.5963 4.01149 10.6419C4.13114 10.6875 4.25871 10.7083 4.38659 10.7031H86.1478C86.2756 10.7083 86.4032 10.6875 86.5229 10.6419C86.6425 10.5963 86.7518 10.5269 86.844 10.4379C86.9363 10.3488 87.0098 10.242 87.0599 10.1238C87.1101 10.0056 87.1359 9.87839 87.1359 9.7499C87.1359 9.62141 87.1101 9.49426 87.0599 9.37605C87.0098 9.25783 86.9363 9.15097 86.844 9.06195C86.7518 8.97292 86.6425 8.90357 86.5229 8.85798C86.4032 8.81239 86.2756 8.79153 86.1478 8.79666Z" fill="#C8B395"/>
<path d="M87.0981 13.9398C87.0981 13.6868 86.998 13.4442 86.8198 13.2653C86.6416 13.0863 86.3999 12.9858 86.1479 12.9858H4.38672C4.13472 12.9858 3.89302 13.0863 3.71483 13.2653C3.53663 13.4442 3.43652 13.6868 3.43652 13.9398C3.43652 14.1928 3.53663 14.4355 3.71483 14.6144C3.89302 14.7933 4.13472 14.8938 4.38672 14.8938H86.1479C86.3999 14.8938 86.6416 14.7933 86.8198 14.6144C86.998 14.4355 87.0981 14.1928 87.0981 13.9398Z" fill="#C8B395"/>
<path d="M76.3864 21.6391C76.3864 21.3861 76.2863 21.1435 76.1081 20.9646C75.9299 20.7856 75.6882 20.6851 75.4362 20.6851H68.2778C68.0258 20.6851 67.7841 20.7856 67.6059 20.9646C67.4277 21.1435 67.3276 21.3861 67.3276 21.6391V32.522C67.3276 32.6472 67.3522 32.7711 67.4 32.8868C67.4477 33.0025 67.5178 33.1075 67.606 33.196C67.6943 33.2845 67.799 33.3546 67.9143 33.4023C68.0296 33.4501 68.1531 33.4747 68.2778 33.4745H75.4362C75.688 33.4745 75.9294 33.3741 76.1075 33.1956C76.2857 33.017 76.386 32.7747 76.3864 32.522V21.6391ZM74.486 31.5679H69.228V22.5931H74.486V31.5679Z" fill="#C8B395"/>
<path d="M15.1123 33.4745H22.2706C22.3953 33.4747 22.5188 33.4501 22.6341 33.4023C22.7494 33.3546 22.8542 33.2845 22.9424 33.196C23.0307 33.1075 23.1007 33.0025 23.1484 32.8868C23.1962 32.7711 23.2208 32.6472 23.2208 32.522V21.6391C23.2208 21.3861 23.1207 21.1435 22.9425 20.9646C22.7643 20.7856 22.5226 20.6851 22.2706 20.6851H15.1123C14.9875 20.6851 14.8641 20.7098 14.7489 20.7578C14.6337 20.8057 14.529 20.876 14.4409 20.9646C14.3528 21.0532 14.2829 21.1584 14.2354 21.2741C14.1878 21.3899 14.1634 21.5139 14.1636 21.6391V32.522C14.1636 32.7746 14.2635 33.0169 14.4414 33.1955C14.6193 33.3741 14.8607 33.4745 15.1123 33.4745ZM16.0625 22.5931H21.3204V31.5679H16.0625V22.5931Z" fill="#C8B395"/>
<path d="M39.9053 20.6851C39.7805 20.6851 39.657 20.7097 39.5417 20.7577C39.4264 20.8056 39.3216 20.876 39.2334 20.9646C39.1451 21.0531 39.0752 21.1583 39.0274 21.274C38.9797 21.3898 38.9551 21.5138 38.9551 21.6391V32.522C38.9551 32.6472 38.9797 32.7711 39.0275 32.8868C39.0752 33.0025 39.1452 33.1075 39.2335 33.196C39.3217 33.2845 39.4265 33.3546 39.5418 33.4023C39.6571 33.4501 39.7806 33.4747 39.9053 33.4745H50.743C50.8678 33.4747 50.9913 33.4501 51.1065 33.4023C51.2218 33.3546 51.3266 33.2845 51.4148 33.196C51.5031 33.1075 51.5731 33.0025 51.6209 32.8868C51.6686 32.7711 51.6932 32.6472 51.6932 32.522V21.6391C51.6932 21.5138 51.6687 21.3898 51.6209 21.274C51.5732 21.1583 51.5032 21.0531 51.4149 20.9646C51.3267 20.876 51.2219 20.8056 51.1067 20.7577C50.9914 20.7097 50.8678 20.6851 50.743 20.6851H39.9053ZM49.7944 31.5679H40.8555V22.5931H49.7944V31.5679Z" fill="#C8B395"/>
<path d="M14.1636 53.5833C14.1634 53.7085 14.1878 53.8326 14.2354 53.9483C14.2829 54.064 14.3528 54.1692 14.4409 54.2578C14.529 54.3464 14.6337 54.4167 14.7489 54.4647C14.8641 54.5126 14.9875 54.5374 15.1123 54.5374H25.9515C26.2035 54.5374 26.4452 54.4369 26.6234 54.2579C26.8016 54.079 26.9017 53.8363 26.9017 53.5833V42.702C26.9017 42.449 26.8016 42.2064 26.6234 42.0275C26.4452 41.8486 26.2035 41.748 25.9515 41.748H15.1123C14.9875 41.748 14.8641 41.7727 14.7489 41.8207C14.6337 41.8686 14.529 41.9389 14.4409 42.0275C14.3528 42.1162 14.2829 42.2213 14.2354 42.337C14.1878 42.4528 14.1634 42.5768 14.1636 42.702V53.5833ZM21.4828 43.6561H25.0013V47.1886H21.4828V43.6561ZM21.4828 49.0967H25.0013V52.6308H21.4828V49.0967ZM16.0625 43.6561H19.5824V47.1886H16.0625V43.6561ZM16.0625 49.0967H19.5824V52.6308H16.0625V49.0967Z" fill="#C8B395"/>
<path d="M75.4315 41.748H64.5923C64.3403 41.748 64.0986 41.8486 63.9204 42.0275C63.7422 42.2064 63.6421 42.449 63.6421 42.702V53.5833C63.6421 53.8363 63.7422 54.079 63.9204 54.2579C64.0986 54.4369 64.3403 54.5374 64.5923 54.5374H75.4315C75.6835 54.5374 75.9252 54.4369 76.1034 54.2579C76.2816 54.079 76.3817 53.8363 76.3817 53.5833V42.702C76.3817 42.449 76.2816 42.2064 76.1034 42.0275C75.9252 41.8486 75.6835 41.748 75.4315 41.748ZM69.0564 52.6308H65.5364V49.0967H69.0564V52.6308ZM69.0564 47.1886H65.5364V43.6576H69.0564V47.1886ZM74.4753 52.6308H70.9553V49.0967H74.4753V52.6308ZM74.4753 47.1886H70.9553V43.6576H74.4753V47.1886Z" fill="#C8B395"/>
<path d="M2.27393 63.9998H88.3777V17.1249C88.3777 16.8719 88.2776 16.6292 88.0994 16.4503C87.9212 16.2714 87.6796 16.1709 87.4275 16.1709C87.1755 16.1709 86.9338 16.2714 86.7556 16.4503C86.5775 16.6292 86.4773 16.8719 86.4773 17.1249V62.0125H51.9666V45.3233H52.6451C52.7698 45.3233 52.8933 45.2986 53.0085 45.2506C53.1237 45.2027 53.2283 45.1324 53.3165 45.0438C53.4046 44.9552 53.4744 44.85 53.522 44.7343C53.5696 44.6185 53.594 44.4945 53.5938 44.3693V41.1597C53.594 41.0345 53.5696 40.9106 53.522 40.7948C53.4744 40.6791 53.4046 40.5739 53.3165 40.4853C53.2283 40.3966 53.1237 40.3263 53.0085 40.2784C52.8933 40.2304 52.7698 40.2058 52.6451 40.2058H38.005C37.8803 40.2058 37.7567 40.2304 37.6414 40.2784C37.5261 40.3263 37.4214 40.3966 37.3332 40.4852C37.2449 40.5738 37.1749 40.6789 37.1272 40.7947C37.0794 40.9104 37.0548 41.0345 37.0548 41.1597V44.3693C37.0548 44.4946 37.0794 44.6186 37.1272 44.7343C37.1749 44.8501 37.2449 44.9553 37.3332 45.0439C37.4214 45.1325 37.5261 45.2028 37.6414 45.2507C37.7567 45.2986 37.8803 45.3233 38.005 45.3233H38.6836V62.0125H4.17433V17.1249C4.17433 16.8719 4.07422 16.6292 3.89602 16.4503C3.71783 16.2714 3.47613 16.1709 3.22413 16.1709C2.97212 16.1709 2.73043 16.2714 2.55223 16.4503C2.37403 16.6292 2.27393 16.8719 2.27393 17.1249V63.9998ZM50.0662 62.0186H40.5824V45.3233H50.0662V62.0186ZM51.6949 43.4259H38.9552V42.1244H51.6949V43.4259Z" fill="#C8B395"/>
<path d="M157.176 21.269H127.266V24.695H157.176V21.269Z" fill="#F1DFC4"/>
<path d="M276.862 8.77832H246.483V23.3888H265.347L276.862 8.77832Z" fill="#F1DFC4"/>
<path d="M288.199 8.77832L299.713 23.3888H319.249V8.77832H288.199Z" fill="#F1DFC4"/>
<path d="M366.759 45.4867C366.759 50.5281 363.41 54.6154 357.357 54.6154C351.304 54.6154 347.955 50.5281 347.955 45.4867C347.955 37.9552 352.164 29.1465 357.357 29.1465C362.55 29.1465 366.759 38.7157 366.759 45.4867Z" fill="#CEE0C4"/>
<path d="M111.488 45.4867C111.488 50.5281 108.139 54.6154 102.086 54.6154C96.0325 54.6154 92.6841 50.5281 92.6841 45.4867C92.6841 37.9552 96.8932 29.1465 102.086 29.1465C107.279 29.1465 111.488 38.7157 111.488 45.4867Z" fill="#CEE0C4"/>
<path d="M145.376 48.4368C145.628 48.4368 145.869 48.3364 146.048 48.1579C146.226 47.9793 146.326 47.737 146.326 47.4843V36.6015C146.326 36.3485 146.226 36.1058 146.048 35.9269C145.87 35.748 145.628 35.6475 145.376 35.6475H138.535C138.283 35.6475 138.041 35.748 137.863 35.9269C137.685 36.1058 137.585 36.3485 137.585 36.6015V47.4843C137.585 47.6095 137.61 47.7335 137.657 47.8491C137.705 47.9648 137.775 48.0698 137.863 48.1583C137.952 48.2468 138.056 48.317 138.172 48.3647C138.287 48.4125 138.41 48.437 138.535 48.4368H145.376ZM139.484 37.5555H144.426V46.5303H139.484V37.5555Z" fill="#C8B395"/>
<path d="M168.806 25.993H179.645C179.897 25.993 180.139 25.8924 180.317 25.7135C180.495 25.5346 180.596 25.292 180.596 25.039V14.1561C180.596 13.9031 180.495 13.6605 180.317 13.4816C180.139 13.3027 179.897 13.2021 179.645 13.2021H168.806C168.554 13.2026 168.313 13.3032 168.135 13.4821C167.957 13.661 167.857 13.9034 167.857 14.1561V25.039C167.857 25.2917 167.957 25.5341 168.135 25.713C168.313 25.8919 168.554 25.9926 168.806 25.993ZM169.756 15.1102H178.692V24.0849H169.753L169.756 15.1102Z" fill="#C8B395"/>
<path d="M199.61 25.993H210.45C210.702 25.993 210.943 25.8924 211.121 25.7135C211.3 25.5346 211.4 25.292 211.4 25.039V14.1561C211.4 13.9031 211.3 13.6605 211.121 13.4816C210.943 13.3027 210.702 13.2021 210.45 13.2021H199.61C199.359 13.2026 199.117 13.3032 198.939 13.4821C198.762 13.661 198.662 13.9034 198.662 14.1561V25.039C198.662 25.2917 198.762 25.5341 198.939 25.713C199.117 25.8919 199.359 25.9926 199.61 25.993ZM200.561 15.1102H209.505V24.0849H200.567L200.561 15.1102Z" fill="#C8B395"/>
<path d="M189.739 53.0958H210.449C210.701 53.0958 210.943 52.9953 211.121 52.8163C211.299 52.6374 211.4 52.3947 211.4 52.1417V43.7064C211.4 43.5812 211.375 43.4572 211.327 43.3416C211.279 43.2259 211.209 43.1208 211.121 43.0324C211.033 42.9439 210.928 42.8738 210.813 42.826C210.698 42.7782 210.574 42.7537 210.449 42.7539H189.739C189.615 42.7537 189.491 42.7782 189.376 42.826C189.26 42.8738 189.156 42.9439 189.067 43.0324C188.979 43.1208 188.909 43.2259 188.861 43.3416C188.814 43.4572 188.789 43.5812 188.789 43.7064V52.1417C188.789 52.3947 188.889 52.6374 189.067 52.8163C189.246 52.9953 189.487 53.0958 189.739 53.0958ZM190.688 44.6605H209.505V51.1877H190.683L190.688 44.6605Z" fill="#C8B395"/>
<path d="M292.025 7.40072H318.299V22.9089H305.601C305.349 22.9089 305.108 23.0094 304.93 23.1883C304.751 23.3672 304.651 23.6098 304.651 23.8629C304.651 24.1159 304.751 24.3586 304.93 24.5375C305.108 24.7164 305.349 24.8169 305.601 24.8169H319.249C319.467 24.8166 319.679 24.7406 319.849 24.6018C320.018 24.463 320.135 24.2699 320.179 24.0549C320.192 23.9917 320.199 23.9274 320.199 23.8629V6.44673C320.199 6.19371 320.099 5.95101 319.921 5.7721C319.742 5.59319 319.501 5.49268 319.249 5.49268H292.025C291.773 5.49268 291.532 5.59319 291.354 5.7721C291.175 5.95101 291.075 6.19371 291.075 6.44673C291.075 6.69975 291.175 6.94238 291.354 7.12129C291.532 7.30021 291.773 7.40072 292.025 7.40072Z" fill="#C8B395"/>
<path d="M260.051 29.538C260.148 29.616 260.26 29.674 260.38 29.7086C260.5 29.7432 260.626 29.7537 260.75 29.7395C260.873 29.7254 260.993 29.6868 261.102 29.6261C261.211 29.5653 261.308 29.4836 261.385 29.3856L282.534 2.54806L303.683 29.3856C303.759 29.488 303.854 29.5741 303.964 29.6387C304.074 29.7034 304.195 29.7452 304.321 29.7619C304.447 29.7785 304.576 29.7695 304.698 29.7355C304.821 29.7014 304.935 29.6431 305.035 29.5638C305.135 29.4845 305.218 29.386 305.279 29.2739C305.34 29.1619 305.378 29.0387 305.39 28.9117C305.403 28.7846 305.39 28.6563 305.353 28.5343C305.315 28.4123 305.254 28.2991 305.172 28.2014L283.275 0.415966C283.186 0.303295 283.072 0.212346 282.943 0.149788C282.814 0.0872301 282.673 0.0546875 282.529 0.0546875C282.386 0.0546875 282.245 0.0872301 282.116 0.149788C281.987 0.212346 281.873 0.303295 281.784 0.415966L259.899 28.1984C259.743 28.3963 259.671 28.6485 259.699 28.8997C259.727 29.1509 259.854 29.3804 260.051 29.538Z" fill="#C8B395"/>
<path d="M245.814 24.8169H259.737C259.989 24.8169 260.231 24.7164 260.409 24.5375C260.587 24.3586 260.687 24.1159 260.687 23.8629C260.687 23.6098 260.587 23.3672 260.409 23.1883C260.231 23.0094 259.989 22.9089 259.737 22.9089H246.764V7.40072H273.081C273.333 7.40072 273.575 7.30021 273.753 7.12129C273.931 6.94238 274.031 6.69975 274.031 6.44673C274.031 6.19371 273.931 5.95101 273.753 5.7721C273.575 5.59319 273.333 5.49268 273.081 5.49268H245.814C245.562 5.49268 245.32 5.59319 245.142 5.7721C244.963 5.95101 244.863 6.19371 244.863 6.44673V23.8629C244.863 24.1159 244.963 24.3586 245.142 24.5375C245.32 24.7164 245.562 24.8169 245.814 24.8169Z" fill="#C8B395"/>
<path d="M278.952 27.9198H286.11C286.362 27.9194 286.603 27.8187 286.781 27.6399C286.96 27.4611 287.06 27.2187 287.06 26.9658V19.6765C287.06 18.4705 286.583 17.3137 285.734 16.4609C284.884 15.6081 283.732 15.1289 282.531 15.1289C281.33 15.1289 280.178 15.6081 279.328 16.4609C278.479 17.3137 278.001 18.4705 278.001 19.6765V26.9658C278.001 27.2188 278.102 27.4615 278.28 27.6404C278.458 27.8193 278.7 27.9198 278.952 27.9198ZM279.902 19.6765C279.902 18.9765 280.179 18.3051 280.672 17.8101C281.165 17.3151 281.834 17.0369 282.531 17.0369C283.228 17.0369 283.897 17.3151 284.39 17.8101C284.883 18.3051 285.16 18.9765 285.16 19.6765V26.0118H279.902V19.6765Z" fill="#C8B395"/>
<path d="M276.162 55.4914C276.162 55.6167 276.187 55.7407 276.234 55.8564C276.282 55.9722 276.352 56.0774 276.44 56.166C276.529 56.2546 276.633 56.3249 276.749 56.3728C276.864 56.4207 276.987 56.4454 277.112 56.4454H287.95C288.202 56.4454 288.444 56.3449 288.622 56.166C288.8 55.9871 288.9 55.7444 288.9 55.4914V47.5072C288.829 45.8595 288.126 44.3032 286.94 43.1627C285.753 42.0223 284.174 41.3857 282.531 41.3857C280.889 41.3857 279.309 42.0223 278.123 43.1627C276.936 44.3032 276.234 45.8595 276.162 47.5072V55.4914ZM283.481 43.1242C284.477 43.3432 285.369 43.8971 286.009 44.6941C286.649 45.4911 286.998 46.4835 287 47.5072V48.1427H283.481V43.1242ZM283.481 50.0508H287V54.5374H283.481V50.0508ZM278.061 47.5072C278.062 46.4832 278.412 45.4905 279.052 44.6934C279.692 43.8963 280.585 43.3427 281.581 43.1242V48.1427H278.061V47.5072ZM278.061 50.0508H281.581V54.5374H278.061V50.0508Z" fill="#C8B395"/>
<path d="M297.543 47.5072V55.4914C297.543 55.7444 297.643 55.9871 297.821 56.166C297.999 56.3449 298.241 56.4454 298.493 56.4454H309.331C309.583 56.4454 309.825 56.3449 310.003 56.166C310.181 55.9871 310.281 55.7444 310.281 55.4914V47.5072C310.209 45.8595 309.507 44.3032 308.321 43.1627C307.134 42.0223 305.555 41.3857 303.912 41.3857C302.269 41.3857 300.69 42.0223 299.504 43.1627C298.317 44.3032 297.615 45.8595 297.543 47.5072ZM302.962 54.5374H299.443V50.0584H302.962V54.5374ZM302.962 48.1366H299.443V47.5011C299.445 46.4775 299.795 45.485 300.434 44.688C301.074 43.891 301.966 43.3371 302.962 43.1181V48.1366ZM304.862 43.1181C305.859 43.3366 306.751 43.8902 307.391 44.6873C308.031 45.4844 308.381 46.4772 308.382 47.5011V48.1366H304.862V43.1181ZM304.862 50.0447H308.382V54.5313H304.862V50.0447Z" fill="#C8B395"/>
<path d="M333.004 26.0864C333.062 26.0863 333.12 26.0802 333.177 26.0681C333.279 26.046 333.375 26.004 333.461 25.9444C333.547 25.8848 333.62 25.8087 333.676 25.7206C333.733 25.6326 333.771 25.5342 333.79 25.4312C333.808 25.3281 333.806 25.2224 333.784 25.1201L333.232 22.6238C333.186 22.4181 333.061 22.239 332.884 22.1258C332.707 22.0126 332.492 21.9747 332.287 22.0204C332.082 22.066 331.904 22.1916 331.791 22.3694C331.679 22.5471 331.641 22.7626 331.686 22.9683L332.239 25.4646C332.277 25.6399 332.374 25.7969 332.513 25.9099C332.652 26.0228 332.825 26.0851 333.004 26.0864Z" fill="#C8B395"/>
<path d="M375.411 63.9269H382.046C382.298 63.9269 382.539 63.8264 382.717 63.6474C382.896 63.4685 382.996 63.2259 382.996 62.9729C382.996 62.7199 382.896 62.4772 382.717 62.2983C382.539 62.1193 382.298 62.0188 382.046 62.0188H358.303V47.3047L362.478 44.4731C362.677 44.3275 362.812 44.1103 362.854 43.867C362.896 43.6238 362.843 43.3736 362.706 43.1689C362.568 42.9642 362.357 42.8211 362.116 42.7696C361.876 42.7181 361.625 42.7622 361.416 42.8927L358.304 45.0019V36.7724C358.309 36.644 358.288 36.5159 358.243 36.3958C358.198 36.2756 358.129 36.166 358.04 36.0733C357.951 35.9807 357.845 35.9069 357.727 35.8566C357.609 35.8062 357.483 35.7803 357.355 35.7803C357.227 35.7803 357.1 35.8062 356.982 35.8566C356.865 35.9069 356.758 35.9807 356.67 36.0733C356.581 36.166 356.512 36.2756 356.466 36.3958C356.421 36.5159 356.4 36.644 356.405 36.7724V48.4675L351.292 45.0004C351.188 44.9248 351.071 44.8709 350.947 44.8418C350.822 44.8127 350.693 44.8091 350.568 44.8312C350.442 44.8532 350.322 44.9006 350.214 44.9704C350.107 45.0401 350.015 45.1309 349.944 45.2372C349.872 45.3434 349.823 45.4632 349.798 45.5891C349.774 45.7149 349.775 45.8445 349.802 45.9699C349.829 46.0953 349.88 46.2141 349.953 46.319C350.027 46.424 350.121 46.5131 350.229 46.5808L356.407 50.7688V62.0127H339.016C338.636 61.4225 338.137 60.9192 337.55 60.5358C336.964 60.1525 336.303 59.8975 335.612 59.7877V27.7839H336.114C336.294 27.784 336.469 27.7222 336.61 27.6089C336.75 27.4955 336.848 27.3373 336.887 27.1606L338.075 21.79H338.18C338.287 21.7947 338.394 21.7777 338.494 21.7399C338.594 21.702 338.685 21.6442 338.763 21.57C338.84 21.4957 338.901 21.4065 338.943 21.3077C338.985 21.209 339.007 21.1027 339.007 20.9953C339.007 20.8879 338.985 20.7816 338.943 20.6828C338.901 20.584 338.84 20.4948 338.763 20.4206C338.685 20.3463 338.594 20.2885 338.494 20.2507C338.394 20.2129 338.287 20.1958 338.18 20.2005H338.168C337.977 19.6256 337.641 19.11 337.193 18.7036C336.745 18.2973 336.201 18.0139 335.612 17.881V17.7149C335.603 17.5101 335.515 17.3168 335.368 17.175C335.221 17.0333 335.024 16.9542 334.82 16.9542C334.616 16.9542 334.42 17.0333 334.272 17.175C334.125 17.3168 334.038 17.5101 334.029 17.7149V17.8856C333.443 18.0239 332.901 18.3086 332.454 18.7133C332.007 19.118 331.67 19.6296 331.472 20.2005H331.459C331.255 20.2095 331.062 20.2972 330.921 20.4452C330.78 20.5933 330.701 20.7903 330.701 20.9953C330.701 21.2002 330.78 21.3973 330.921 21.5453C331.062 21.6934 331.255 21.7811 331.459 21.79H336.453L335.48 26.1944H334.252C334.062 26.1941 333.878 26.2627 333.734 26.3874C333.591 26.5122 333.497 26.6849 333.469 26.8737C333.442 27.0625 333.484 27.2548 333.587 27.4153C333.689 27.5758 333.846 27.6937 334.029 27.7474V59.7877C333.337 59.8973 332.677 60.1522 332.09 60.5356C331.503 60.919 331.004 61.4223 330.624 62.0127H320.199V27.2993C320.199 27.0463 320.099 26.8036 319.921 26.6247C319.743 26.4458 319.501 26.3452 319.249 26.3452C318.997 26.3452 318.755 26.4458 318.577 26.6247C318.399 26.8036 318.299 27.0463 318.299 27.2993V62.0127H267.278V49.1442C267.278 47.3758 266.578 45.6799 265.333 44.4295C264.087 43.1791 262.398 42.4767 260.637 42.4767C258.876 42.4767 257.187 43.1791 255.941 44.4295C254.696 45.6799 253.996 47.3758 253.996 49.1442V62.0066H246.764V27.2993C246.764 27.0463 246.663 26.8036 246.485 26.6247C246.307 26.4458 246.065 26.3452 245.813 26.3452C245.561 26.3452 245.32 26.4458 245.141 26.6247C244.963 26.8036 244.863 27.0463 244.863 27.2993V62.0127H222.632V0.952495C222.632 0.827284 222.608 0.703307 222.56 0.587646C222.512 0.471984 222.442 0.366924 222.354 0.278457C222.266 0.18999 222.161 0.119886 222.045 0.072108C221.93 0.0243304 221.807 -0.000199121 221.682 1.21732e-06H157.594C157.469 -0.000199121 157.345 0.0243304 157.23 0.072108C157.115 0.119886 157.01 0.18999 156.922 0.278457C156.834 0.366924 156.764 0.471984 156.716 0.587646C156.668 0.703307 156.643 0.827284 156.643 0.952495V19.7678H124.683C124.558 19.7678 124.435 19.7924 124.319 19.8404C124.204 19.8883 124.099 19.9586 124.011 20.0473C123.923 20.1359 123.853 20.241 123.806 20.3567C123.758 20.4725 123.734 20.5965 123.734 20.7217V24.1218C123.744 24.368 123.848 24.6008 124.025 24.7715C124.202 24.9423 124.438 25.0377 124.683 25.0377C124.929 25.0377 125.165 24.9423 125.342 24.7715C125.519 24.6008 125.623 24.368 125.633 24.1218V21.6757H156.643V24.1218H127.268C127.14 24.1166 127.012 24.1375 126.893 24.1831C126.773 24.2287 126.664 24.298 126.571 24.3871C126.479 24.4761 126.406 24.5829 126.356 24.7012C126.305 24.8194 126.28 24.9465 126.28 25.075C126.28 25.2035 126.305 25.3306 126.356 25.4489C126.406 25.5671 126.479 25.6739 126.571 25.763C126.664 25.852 126.773 25.9213 126.893 25.9669C127.012 26.0125 127.14 26.0334 127.268 26.0282H156.643V62.0127H128.216V28.0994C128.221 27.971 128.201 27.8429 128.155 27.7227C128.11 27.6026 128.041 27.4929 127.952 27.4003C127.863 27.3076 127.757 27.2339 127.639 27.1835C127.522 27.1332 127.395 27.1072 127.267 27.1072C127.139 27.1072 127.012 27.1332 126.895 27.1835C126.777 27.2339 126.67 27.3076 126.582 27.4003C126.493 27.4929 126.424 27.6026 126.379 27.7227C126.333 27.8429 126.312 27.971 126.317 28.0994V62.0127H103.036V47.2986L107.21 44.467C107.319 44.3993 107.412 44.3102 107.486 44.2053C107.559 44.1003 107.611 43.9815 107.637 43.8561C107.664 43.7307 107.665 43.6012 107.641 43.4753C107.617 43.3494 107.567 43.2297 107.496 43.1234C107.424 43.0171 107.332 42.9263 107.225 42.8566C107.118 42.7868 106.998 42.7395 106.872 42.7174C106.746 42.6953 106.617 42.6989 106.493 42.728C106.368 42.7571 106.251 42.811 106.148 42.8867L103.036 44.9958V36.7663C103.036 36.5133 102.936 36.2706 102.758 36.0917C102.58 35.9128 102.338 35.8123 102.086 35.8123C101.834 35.8123 101.592 35.9128 101.414 36.0917C101.236 36.2706 101.136 36.5133 101.136 36.7663V48.4614L96.0219 44.9943C95.9188 44.9187 95.8015 44.8648 95.6771 44.8357C95.5527 44.8066 95.4237 44.803 95.2979 44.8251C95.172 44.8471 95.052 44.8945 94.9448 44.9643C94.8376 45.034 94.7455 45.1248 94.674 45.231C94.6026 45.3373 94.5532 45.4571 94.5288 45.583C94.5045 45.7088 94.5056 45.8384 94.5323 45.9638C94.5589 46.0892 94.6105 46.208 94.6838 46.313C94.7572 46.4179 94.851 46.507 94.9594 46.5747L101.136 50.7627V62.0066L87.0117 61.9457L87.4671 63.9269H375.411ZM333.236 20.2066C333.415 19.9529 333.651 19.7458 333.926 19.6029C334.201 19.46 334.506 19.3854 334.816 19.3854C335.125 19.3854 335.43 19.46 335.705 19.6029C335.98 19.7458 336.216 19.9529 336.395 20.2066H333.236ZM179.24 62.0127H169.756V43.7065H179.24V62.0127ZM180.869 41.8001H168.128V40.4986H180.869V41.8001ZM220.738 62.0127H181.139V43.7065H181.818C181.942 43.7067 182.066 43.6823 182.181 43.6345C182.296 43.5867 182.401 43.5166 182.489 43.4282C182.578 43.3397 182.648 43.2346 182.695 43.1189C182.743 43.0032 182.768 42.8793 182.768 42.754V39.543C182.768 39.29 182.668 39.0474 182.49 38.8685C182.311 38.6896 182.07 38.589 181.818 38.589H167.179C166.927 38.589 166.685 38.6896 166.507 38.8685C166.329 39.0474 166.229 39.29 166.229 39.543V42.7526C166.229 42.8778 166.253 43.0017 166.301 43.1174C166.349 43.2331 166.419 43.3381 166.507 43.4266C166.596 43.5151 166.7 43.5852 166.816 43.6329C166.931 43.6807 167.054 43.7052 167.179 43.705H167.858V62.0112H158.544V1.90045H220.738V62.0127ZM265.385 62.0127H255.901V49.1442C255.901 47.8815 256.401 46.6705 257.29 45.7777C258.179 44.8848 259.386 44.3832 260.643 44.3832C261.901 44.3832 263.107 44.8848 263.996 45.7777C264.885 46.6705 265.385 47.8815 265.385 49.1442V62.0127ZM332.755 62.0127C333.351 61.559 334.078 61.3134 334.826 61.3134C335.574 61.3134 336.301 61.559 336.897 62.0127H332.755Z" fill="#C8B395"/>
</g>
<defs>
<clipPath id="clip0_509_2486">
<rect width="383" height="64" fill="white"/>
</clipPath>
</defs>
</svg>
