<svg width="359" height="80" viewBox="0 0 359 80" fill="none" xmlns="http://www.w3.org/2000/svg">
<g clip-path="url(#clip0_509_3107)">
<path d="M4.04497 79.4632V50.5933H0.706543L16.0494 36.4906H39.4624L41.5977 34.3379L57.0306 48.2468V79.4632H4.04497Z" fill="white"/>
<path d="M173.957 7.46648V0.216797H165.775L165.882 0.732055H93.7104L93.8177 0.216797H85.6362V7.46648H88.7263V20.7921H85.6362V25.5005H88.7263V38.9292H85.6362V43.6376H88.7263V57.0663H85.6362V61.7747H88.7263V79.4635H171.012V61.7747H173.957V57.0663H171.012V43.6376H173.957V38.9292H171.012V25.5005H173.957V20.7921H171.012V7.46648H173.957Z" fill="white"/>
<path d="M268.016 40.9219H208.423V46.7958H209.854V79.3601H266.585V46.7958H268.016V40.9219Z" fill="white"/>
<path d="M337.115 39.0674H283.451V79.3606H337.115V39.0674Z" fill="white"/>
<path d="M356.815 55.1721L357.763 51.0212L357.252 49.8877L355.844 49.3662L354.697 49.6815L353.879 51.1243L354.781 55.1721H356.815Z" fill="white"/>
<path d="M355.844 77.8906C354.435 77.8906 353.47 79.154 353.47 79.154H358.242C358.242 79.154 357.252 77.8906 355.844 77.8906Z" fill="white"/>
<path d="M283.748 40.9658V52.995H290.944L298.912 42.5075L306.878 52.995H314.268L322.235 42.5075L330.202 52.995H337.465V40.9658H283.748Z" fill="#F1DFC4"/>
<path d="M268.341 41.2021H210.186V46.2806H268.341V41.2021Z" fill="#F1DFC4"/>
<path d="M14.3504 38.6113L1.0376 50.5932H23.6083L37.1481 38.6113H14.3504Z" fill="#F1DFC4"/>
<path d="M174.243 0.644531H88.6211V7.45418H174.243V0.644531Z" fill="#F1DFC4"/>
<path d="M174.243 21.0576H88.6211V25.5661H174.243V21.0576Z" fill="#F1DFC4"/>
<path d="M174.243 39.0537H88.6211V43.5622H174.243V39.0537Z" fill="#F1DFC4"/>
<path d="M174.243 57.2646H88.6211V61.7732H174.243V57.2646Z" fill="#F1DFC4"/>
<path d="M187.164 57.7798L181.204 70.8169C181.118 71.004 181.081 71.2098 181.095 71.4154C181.109 71.6209 181.174 71.8196 181.284 71.9932C181.394 72.1667 181.546 72.3095 181.725 72.4085C181.904 72.5075 182.105 72.5594 182.31 72.5595H194.23C194.435 72.5594 194.636 72.5075 194.815 72.4085C194.994 72.3095 195.146 72.1667 195.256 71.9932C195.366 71.8196 195.431 71.6209 195.445 71.4154C195.459 71.2098 195.422 71.004 195.336 70.8169L189.376 57.7798C189.279 57.5666 189.123 57.3859 188.927 57.2593C188.731 57.1327 188.503 57.0654 188.27 57.0654C188.037 57.0654 187.809 57.1327 187.613 57.2593C187.417 57.3859 187.261 57.5666 187.164 57.7798Z" fill="#CEE0C4"/>
<path d="M77.1406 57.7798L71.1803 70.8169C71.0947 71.004 71.0572 71.2098 71.0712 71.4154C71.0852 71.6209 71.1503 71.8196 71.2605 71.9932C71.3706 72.1667 71.5223 72.3095 71.7016 72.4085C71.8808 72.5075 72.0819 72.5594 72.2863 72.5595H84.2069C84.4113 72.5594 84.6123 72.5075 84.7916 72.4085C84.9708 72.3095 85.1225 72.1667 85.2327 71.9932C85.3428 71.8196 85.4079 71.6209 85.4219 71.4154C85.4359 71.2098 85.3984 71.004 85.3129 70.8169L79.3526 57.7798C79.2553 57.5666 79.0994 57.3859 78.9033 57.2593C78.7073 57.1327 78.4794 57.0654 78.2466 57.0654C78.0138 57.0654 77.7858 57.1327 77.5898 57.2593C77.3938 57.3859 77.2379 57.5666 77.1406 57.7798Z" fill="#CEE0C4"/>
<path d="M283.747 53.6354H288.637C288.807 53.6354 288.97 53.5674 289.09 53.4464C289.21 53.3255 289.277 53.1614 289.277 52.9903C289.277 52.8192 289.21 52.6551 289.09 52.5341C288.97 52.4131 288.807 52.3452 288.637 52.3452H284.387V39.709H336.825V52.3452H332.691C332.521 52.3452 332.359 52.4131 332.239 52.5341C332.119 52.6551 332.051 52.8192 332.051 52.9903C332.051 53.1614 332.119 53.3255 332.239 53.4464C332.359 53.5674 332.521 53.6354 332.691 53.6354H337.251C337.287 53.6348 337.323 53.631 337.358 53.624C337.392 53.6307 337.426 53.6345 337.461 53.6354C337.63 53.6354 337.793 53.5674 337.913 53.4464C338.033 53.3255 338.1 53.1614 338.1 52.9903V39.067C338.1 38.8959 338.033 38.7318 337.913 38.6108C337.793 38.4898 337.63 38.4219 337.461 38.4219H283.747C283.663 38.4219 283.58 38.4386 283.503 38.471C283.425 38.5034 283.355 38.551 283.295 38.6109C283.236 38.6708 283.189 38.7419 283.157 38.8201C283.125 38.8984 283.108 38.9823 283.108 39.067V52.9934C283.109 53.1638 283.176 53.3271 283.296 53.4475C283.416 53.5678 283.578 53.6354 283.747 53.6354Z" fill="#C8B395"/>
<path d="M307.33 53.5026C307.465 53.3986 307.553 53.2449 307.575 53.0755C307.597 52.906 307.552 52.7346 307.449 52.5989L299.486 42.1165C299.426 42.038 299.349 41.9745 299.261 41.9307C299.173 41.887 299.076 41.8643 298.978 41.8643C298.88 41.8643 298.783 41.887 298.695 41.9307C298.607 41.9745 298.53 42.038 298.47 42.1165L290.507 52.5989C290.407 52.7349 290.364 52.9052 290.387 53.073C290.41 53.2408 290.498 53.3926 290.632 53.4956C290.765 53.5986 290.933 53.6445 291.1 53.6234C291.267 53.6024 291.419 53.5161 291.523 53.3831L298.978 43.5695L306.434 53.3831C306.537 53.5187 306.689 53.6074 306.857 53.6298C307.025 53.6523 307.195 53.6065 307.33 53.5026Z" fill="#C8B395"/>
<path d="M330.198 53.6356C330.318 53.6364 330.436 53.6034 330.538 53.5402C330.64 53.477 330.722 53.3862 330.775 53.2781C330.828 53.1701 330.851 53.0491 330.839 52.929C330.827 52.8089 330.783 52.6945 330.71 52.5989L322.747 42.1165C322.687 42.038 322.61 41.9745 322.522 41.9307C322.434 41.887 322.337 41.8643 322.239 41.8643C322.141 41.8643 322.044 41.887 321.956 41.9307C321.868 41.9745 321.791 42.038 321.731 42.1165L313.962 52.3453H309.717C309.547 52.3453 309.385 52.4133 309.265 52.5343C309.145 52.6553 309.077 52.8193 309.077 52.9904C309.077 53.1615 309.145 53.3256 309.265 53.4466C309.385 53.5676 309.547 53.6356 309.717 53.6356H314.278C314.291 53.6356 314.304 53.6356 314.317 53.6356C314.339 53.6347 314.362 53.6322 314.384 53.6283C314.404 53.6249 314.424 53.6205 314.444 53.6149C314.464 53.6098 314.483 53.6036 314.504 53.5964C314.542 53.5806 314.579 53.562 314.614 53.5408C314.632 53.5299 314.649 53.5179 314.665 53.5047C314.682 53.4925 314.697 53.4794 314.712 53.4655C314.729 53.4501 314.744 53.4326 314.758 53.4161C314.773 53.3996 314.778 53.3975 314.786 53.3872L322.241 43.5736L329.697 53.3872C329.756 53.4642 329.832 53.5265 329.919 53.5695C330.006 53.6126 330.102 53.6351 330.198 53.6356Z" fill="#C8B395"/>
<path d="M302.028 58.6221V53.6942C302.028 52.8786 301.707 52.0965 301.135 51.5198C300.563 50.9431 299.787 50.6191 298.978 50.6191C298.169 50.6191 297.393 50.9431 296.821 51.5198C296.249 52.0965 295.928 52.8786 295.928 53.6942V58.6221C295.928 58.7932 295.995 58.9573 296.115 59.0783C296.235 59.1992 296.398 59.2672 296.568 59.2672H301.388C301.558 59.2672 301.721 59.1992 301.841 59.0783C301.961 58.9573 302.028 58.7932 302.028 58.6221ZM300.748 57.978H297.207V53.6942C297.207 53.2208 297.394 52.7668 297.726 52.4321C298.058 52.0974 298.508 51.9093 298.978 51.9093C299.447 51.9093 299.898 52.0974 300.23 52.4321C300.562 52.7668 300.748 53.2208 300.748 53.6942V57.978Z" fill="#C8B395"/>
<path d="M287.965 68.8712V73.795C287.965 73.9661 288.032 74.1302 288.152 74.2512C288.272 74.3721 288.435 74.4401 288.605 74.4401H293.425C293.509 74.4401 293.593 74.4235 293.67 74.391C293.748 74.3586 293.818 74.3111 293.878 74.2512C293.937 74.1913 293.984 74.1202 294.017 74.0419C294.049 73.9636 294.065 73.8797 294.065 73.795V68.8671C294.065 68.4633 293.986 68.0634 293.833 67.6903C293.68 67.3172 293.455 66.9782 293.172 66.6927C292.889 66.4071 292.552 66.1806 292.182 66.0261C291.812 65.8715 291.416 65.792 291.015 65.792C290.614 65.792 290.218 65.8715 289.848 66.0261C289.478 66.1806 289.141 66.4071 288.858 66.6927C288.575 66.9782 288.35 67.3172 288.197 67.6903C288.044 68.0634 287.965 68.4633 287.965 68.8671V68.8712ZM292.785 68.8712V73.154H289.245V68.8712C289.245 68.3979 289.431 67.9439 289.763 67.6091C290.095 67.2744 290.545 67.0863 291.015 67.0863C291.485 67.0863 291.935 67.2744 292.267 67.6091C292.599 67.9439 292.785 68.3979 292.785 68.8712Z" fill="#C8B395"/>
<path d="M297.229 74.4448H302.05C302.134 74.4454 302.218 74.429 302.297 74.3965C302.375 74.3641 302.446 74.3162 302.506 74.2558C302.566 74.1954 302.613 74.1237 302.645 74.0446C302.677 73.9656 302.693 73.881 302.693 73.7956V68.8677C302.7 68.4592 302.627 68.0533 302.477 67.6737C302.327 67.2942 302.103 66.9485 301.819 66.657C301.535 66.3654 301.197 66.1339 300.823 65.9758C300.449 65.8177 300.048 65.7363 299.643 65.7363C299.238 65.7363 298.836 65.8177 298.463 65.9758C298.089 66.1339 297.75 66.3654 297.467 66.657C297.183 66.9485 296.959 67.2942 296.809 67.6737C296.659 68.0533 296.586 68.4592 296.593 68.8677V73.7956C296.593 73.8803 296.609 73.9643 296.64 74.0428C296.672 74.1213 296.719 74.1927 296.778 74.253C296.837 74.3133 296.907 74.3612 296.985 74.3942C297.062 74.4271 297.145 74.4443 297.229 74.4448ZM297.869 68.8718C297.869 68.3984 298.055 67.9445 298.387 67.6097C298.72 67.275 299.17 67.0869 299.639 67.0869C300.109 67.0869 300.559 67.275 300.891 67.6097C301.223 67.9445 301.41 68.3984 301.41 68.8718V73.1546H297.869V68.8718Z" fill="#C8B395"/>
<path d="M321.648 65.7959C320.839 65.7967 320.064 66.121 319.492 66.6976C318.921 67.2741 318.599 68.0558 318.599 68.871V73.7948C318.598 73.8795 318.615 73.9634 318.647 74.0416C318.679 74.1199 318.726 74.191 318.785 74.2509C318.845 74.3108 318.915 74.3584 318.993 74.3908C319.07 74.4232 319.154 74.4399 319.237 74.4399H324.056C324.226 74.4399 324.388 74.3719 324.508 74.2509C324.628 74.13 324.696 73.9659 324.696 73.7948V68.8669C324.694 68.0526 324.372 67.2723 323.801 66.6967C323.23 66.1212 322.455 65.7973 321.648 65.7959ZM323.419 73.1538H319.877V68.871C319.872 68.6329 319.913 68.3961 320 68.1745C320.086 67.9529 320.216 67.7509 320.381 67.5805C320.546 67.4101 320.743 67.2747 320.961 67.1823C321.178 67.0898 321.412 67.0422 321.648 67.0422C321.884 67.0422 322.118 67.0898 322.336 67.1823C322.554 67.2747 322.751 67.4101 322.916 67.5805C323.081 67.7509 323.21 67.9529 323.297 68.1745C323.383 68.3961 323.425 68.6329 323.419 68.871V73.1538Z" fill="#C8B395"/>
<path d="M327.862 74.4446H332.682C332.852 74.4446 333.015 74.3766 333.135 74.2556C333.255 74.1346 333.322 73.9706 333.322 73.7995V68.8716C333.329 68.4631 333.256 68.0572 333.106 67.6776C332.956 67.2981 332.733 66.9524 332.449 66.6609C332.165 66.3693 331.826 66.1378 331.453 65.9797C331.079 65.8216 330.678 65.7402 330.272 65.7402C329.867 65.7402 329.466 65.8216 329.092 65.9797C328.719 66.1378 328.38 66.3693 328.096 66.6609C327.812 66.9524 327.589 67.2981 327.439 67.6776C327.289 68.0572 327.215 68.4631 327.223 68.8716V73.7954C327.222 73.8804 327.238 73.9647 327.27 74.0434C327.302 74.1222 327.349 74.1938 327.408 74.2541C327.467 74.3145 327.538 74.3624 327.616 74.3951C327.694 74.4277 327.777 74.4446 327.862 74.4446ZM328.501 68.8716C328.501 68.3982 328.688 67.9442 329.02 67.6095C329.352 67.2748 329.802 67.0867 330.272 67.0867C330.741 67.0867 331.192 67.2748 331.524 67.6095C331.856 67.9442 332.042 68.3982 332.042 68.8716V73.1544H328.501V68.8716Z" fill="#C8B395"/>
<path d="M325.282 58.6217V53.6938C325.29 53.2854 325.216 52.8795 325.067 52.4999C324.917 52.1203 324.693 51.7747 324.409 51.4832C324.125 51.1916 323.787 50.9601 323.413 50.802C323.039 50.6439 322.638 50.5625 322.233 50.5625C321.828 50.5625 321.426 50.6439 321.053 50.802C320.679 50.9601 320.34 51.1916 320.056 51.4832C319.772 51.7747 319.549 52.1203 319.399 52.4999C319.249 52.8795 319.176 53.2854 319.183 53.6938V58.6217C319.183 58.7064 319.199 58.7903 319.231 58.8685C319.264 58.9468 319.311 59.018 319.37 59.0779C319.429 59.1378 319.5 59.1853 319.577 59.2178C319.655 59.2502 319.738 59.2669 319.822 59.2669H324.643C324.812 59.2669 324.975 59.1989 325.095 59.0779C325.215 58.9569 325.282 58.7928 325.282 58.6217ZM324.003 57.9777H320.462V53.6938C320.462 53.2205 320.648 52.7665 320.98 52.4318C321.312 52.097 321.763 51.909 322.232 51.909C322.702 51.909 323.152 52.097 323.484 52.4318C323.816 52.7665 324.003 53.2205 324.003 53.6938V57.9777Z" fill="#C8B395"/>
<path d="M208.652 46.7556C208.822 46.7556 208.985 46.6876 209.105 46.5667C209.225 46.4457 209.292 46.2816 209.292 46.1105V41.4279H267.7V46.1105C267.697 46.1973 267.711 46.2839 267.741 46.3652C267.772 46.4464 267.819 46.5206 267.878 46.5833C267.938 46.6459 268.01 46.6957 268.089 46.7298C268.168 46.7638 268.254 46.7814 268.34 46.7814C268.426 46.7814 268.511 46.7638 268.59 46.7298C268.67 46.6957 268.741 46.6459 268.801 46.5833C268.861 46.5206 268.907 46.4464 268.938 46.3652C268.969 46.2839 268.983 46.1973 268.979 46.1105V40.7838C268.979 40.6991 268.963 40.6153 268.931 40.537C268.899 40.4587 268.852 40.3876 268.792 40.3277C268.733 40.2677 268.663 40.2202 268.585 40.1878C268.507 40.1554 268.424 40.1387 268.34 40.1387H208.652C208.568 40.1387 208.485 40.1554 208.407 40.1878C208.33 40.2202 208.259 40.2677 208.2 40.3276C208.14 40.3875 208.093 40.4586 208.061 40.5369C208.029 40.6152 208.012 40.6991 208.012 40.7838V46.1105C208.012 46.2816 208.08 46.4457 208.2 46.5667C208.32 46.6876 208.482 46.7556 208.652 46.7556Z" fill="#C8B395"/>
<path d="M266.028 42.8023H210.968C210.882 42.7988 210.796 42.8129 210.716 42.8437C210.635 42.8746 210.561 42.9215 210.499 42.9817C210.437 43.0419 210.388 43.1141 210.354 43.194C210.32 43.274 210.303 43.36 210.303 43.4468C210.303 43.5337 210.32 43.6198 210.354 43.6997C210.388 43.7796 210.437 43.8518 210.499 43.912C210.561 43.9722 210.635 44.0192 210.716 44.05C210.796 44.0808 210.882 44.0949 210.968 44.0914H266.028C266.114 44.0949 266.2 44.0808 266.28 44.05C266.361 44.0192 266.435 43.9722 266.497 43.912C266.559 43.8518 266.608 43.7796 266.642 43.6997C266.676 43.6198 266.693 43.5337 266.693 43.4468C266.693 43.36 266.676 43.274 266.642 43.194C266.608 43.1141 266.559 43.0419 266.497 42.9817C266.435 42.9215 266.361 42.8746 266.28 42.8437C266.2 42.8129 266.114 42.7988 266.028 42.8023Z" fill="#C8B395"/>
<path d="M266.668 46.2808C266.668 46.1097 266.601 45.9457 266.481 45.8247C266.361 45.7037 266.198 45.6357 266.028 45.6357H210.968C210.799 45.6357 210.636 45.7037 210.516 45.8247C210.396 45.9457 210.329 46.1097 210.329 46.2808C210.329 46.4519 210.396 46.616 210.516 46.7369C210.636 46.8579 210.799 46.9259 210.968 46.9259H266.028C266.112 46.9259 266.195 46.9092 266.273 46.8768C266.351 46.8444 266.421 46.7968 266.481 46.7369C266.54 46.677 266.587 46.6059 266.619 46.5277C266.651 46.4494 266.668 46.3655 266.668 46.2808Z" fill="#C8B395"/>
<path d="M259.454 51.4869C259.454 51.3158 259.387 51.1518 259.267 51.0308C259.147 50.9098 258.984 50.8418 258.814 50.8418H253.994C253.824 50.8418 253.661 50.9098 253.541 51.0308C253.421 51.1518 253.354 51.3158 253.354 51.4869V58.8459C253.354 58.9305 253.371 59.0144 253.403 59.0926C253.435 59.1708 253.482 59.2418 253.541 59.3017C253.601 59.3615 253.671 59.4089 253.749 59.4412C253.827 59.4735 253.91 59.4901 253.994 59.49H258.814C258.984 59.49 259.147 59.4221 259.267 59.3014C259.387 59.1806 259.454 59.0168 259.454 58.8459V51.4869ZM258.175 58.2007H254.634V52.132H258.175V58.2007Z" fill="#C8B395"/>
<path d="M218.191 59.49H223.012C223.096 59.4901 223.179 59.4735 223.256 59.4412C223.334 59.4089 223.405 59.3615 223.464 59.3017C223.524 59.2418 223.571 59.1708 223.603 59.0926C223.635 59.0144 223.652 58.9305 223.652 58.8459V51.4869C223.652 51.4022 223.635 51.3183 223.603 51.2401C223.571 51.1618 223.524 51.0907 223.464 51.0308C223.405 50.9709 223.334 50.9233 223.257 50.8909C223.179 50.8585 223.096 50.8418 223.012 50.8418H218.191C218.107 50.8418 218.024 50.8585 217.946 50.891C217.869 50.9234 217.798 50.9709 217.739 51.0308C217.68 51.0908 217.633 51.1619 217.601 51.2401C217.569 51.3184 217.552 51.4023 217.552 51.4869V58.8459C217.552 59.0167 217.62 59.1805 217.739 59.3013C217.859 59.4221 218.022 59.49 218.191 59.49ZM218.831 52.132H222.372V58.2007H218.831V52.132Z" fill="#C8B395"/>
<path d="M234.887 50.8418C234.718 50.8418 234.555 50.9098 234.435 51.0308C234.315 51.1518 234.248 51.3158 234.248 51.4869V58.8459C234.248 58.9305 234.264 59.0144 234.296 59.0926C234.328 59.1708 234.376 59.2418 234.435 59.3017C234.494 59.3615 234.565 59.4089 234.643 59.4412C234.72 59.4735 234.803 59.4901 234.887 59.49H242.186C242.27 59.4901 242.353 59.4735 242.431 59.4412C242.508 59.4089 242.579 59.3615 242.638 59.3017C242.698 59.2418 242.745 59.1708 242.777 59.0926C242.809 59.0144 242.826 58.9305 242.826 58.8459V51.4869C242.826 51.3158 242.758 51.1518 242.638 51.0308C242.518 50.9098 242.356 50.8418 242.186 50.8418H234.887ZM241.547 58.2007H235.527V52.132H241.547V58.2007Z" fill="#C8B395"/>
<path d="M217.552 73.087C217.552 73.1717 217.569 73.2555 217.601 73.3338C217.633 73.4121 217.68 73.4832 217.739 73.5431C217.798 73.603 217.869 73.6505 217.946 73.683C218.024 73.7154 218.107 73.7321 218.191 73.7321H225.49C225.66 73.7321 225.823 73.6642 225.943 73.5432C226.063 73.4222 226.13 73.2581 226.13 73.087V65.7291C226.13 65.558 226.063 65.3939 225.943 65.2729C225.823 65.1519 225.66 65.084 225.49 65.084H218.191C218.107 65.084 218.024 65.1007 217.946 65.1331C217.869 65.1655 217.798 65.2131 217.739 65.273C217.68 65.3329 217.633 65.404 217.601 65.4823C217.569 65.5605 217.552 65.6444 217.552 65.7291V73.087ZM222.481 66.3742H224.851V68.7629H222.481V66.3742ZM222.481 70.0531H224.851V72.4429H222.481V70.0531ZM218.831 66.3742H221.201V68.7629H218.831V66.3742ZM218.831 70.0531H221.201V72.4429H218.831V70.0531Z" fill="#C8B395"/>
<path d="M258.811 65.084H251.512C251.428 65.084 251.345 65.1006 251.267 65.133C251.189 65.1655 251.119 65.213 251.059 65.2729C251 65.3328 250.953 65.4039 250.921 65.4822C250.889 65.5605 250.872 65.6444 250.872 65.7291V73.087C250.872 73.1717 250.889 73.2556 250.921 73.3338C250.953 73.4121 251 73.4833 251.059 73.5432C251.119 73.6031 251.189 73.6506 251.267 73.683C251.345 73.7154 251.428 73.7321 251.512 73.7321H258.811C258.895 73.7321 258.979 73.7154 259.056 73.683C259.134 73.6506 259.204 73.6031 259.264 73.5432C259.323 73.4833 259.37 73.4121 259.402 73.3338C259.435 73.2556 259.451 73.1717 259.451 73.087V65.7291C259.451 65.6444 259.435 65.5605 259.402 65.4822C259.37 65.4039 259.323 65.3328 259.264 65.2729C259.204 65.213 259.134 65.1655 259.056 65.133C258.979 65.1006 258.895 65.084 258.811 65.084ZM254.518 72.4429H252.148V70.0531H254.518V72.4429ZM254.518 68.7629H252.148V66.3752H254.518V68.7629ZM258.167 72.4429H255.797V70.0531H258.167V72.4429ZM258.167 68.7629H255.797V66.3752H258.167V68.7629Z" fill="#C8B395"/>
<path d="M23.5714 51.0206C23.6845 51.1481 23.8432 51.225 24.0126 51.2347C24.182 51.2444 24.3483 51.1859 24.475 51.0722L42.0258 35.2764L59.5765 51.0722C59.7032 51.1861 59.8695 51.2448 60.0389 51.2351C60.2084 51.2254 60.3671 51.1483 60.4802 51.0206C60.5932 50.893 60.6513 50.7253 60.6417 50.5545C60.6322 50.3837 60.5557 50.2237 60.4291 50.1097L42.452 33.9306C42.3347 33.825 42.183 33.7666 42.0258 33.7666C41.8685 33.7666 41.7168 33.825 41.5995 33.9306L23.6235 50.1097C23.5607 50.166 23.5096 50.2343 23.473 50.3106C23.4364 50.3869 23.4151 50.4696 23.4102 50.5542C23.4054 50.6388 23.4171 50.7236 23.4448 50.8036C23.4724 50.8836 23.5154 50.9574 23.5714 51.0206Z" fill="#C8B395"/>
<path d="M0.638987 51.2384H20.2444C20.4141 51.2384 20.5768 51.1705 20.6968 51.0495C20.8168 50.9285 20.8842 50.7645 20.8842 50.5934C20.8842 50.4223 20.8168 50.2582 20.6968 50.1372C20.5768 50.0162 20.4141 49.9482 20.2444 49.9482H2.31638L16.4725 37.2121H36.0983C36.268 37.2121 36.4308 37.1441 36.5508 37.0231C36.6708 36.9022 36.7382 36.7381 36.7382 36.567C36.7382 36.3959 36.6708 36.2318 36.5508 36.1108C36.4308 35.9898 36.268 35.9219 36.0983 35.9219H16.2282C16.071 35.922 15.9194 35.9803 15.802 36.0857L0.213764 50.1152C0.11704 50.2022 0.0488232 50.3169 0.0181565 50.4439C-0.0125102 50.5709 -0.00418429 50.7043 0.0420327 50.8264C0.0882496 50.9485 0.170179 51.0536 0.276964 51.1277C0.383749 51.2019 0.510354 51.2416 0.64001 51.2416L0.638987 51.2384Z" fill="#C8B395"/>
<path d="M8.47919 54.2158C8.39521 54.2158 8.31206 54.2325 8.23448 54.2649C8.1569 54.2974 8.08644 54.3449 8.0271 54.4048C7.96776 54.4647 7.92072 54.5359 7.88867 54.6141C7.85663 54.6924 7.8402 54.7762 7.84033 54.8609V59.7208C7.8402 59.8055 7.85663 59.8894 7.88867 59.9676C7.92072 60.0459 7.96776 60.117 8.0271 60.1769C8.08644 60.2368 8.1569 60.2843 8.23448 60.3168C8.31206 60.3492 8.39521 60.3659 8.47919 60.3659H13.2998C13.4695 60.3659 13.6322 60.298 13.7523 60.177C13.8723 60.056 13.9397 59.8919 13.9397 59.7208V54.8609C13.9397 54.6898 13.8723 54.5257 13.7523 54.4048C13.6322 54.2838 13.4695 54.2158 13.2998 54.2158H8.47919ZM12.6609 59.0757H9.12317V55.506H12.665L12.6609 59.0757Z" fill="#C8B395"/>
<path d="M22.9654 54.2158H18.1448C17.9751 54.2158 17.8123 54.2838 17.6923 54.4048C17.5723 54.5257 17.5049 54.6898 17.5049 54.8609V59.7208C17.5049 59.8919 17.5723 60.056 17.6923 60.177C17.8123 60.298 17.9751 60.3659 18.1448 60.3659H22.9654C23.0493 60.3659 23.1325 60.3492 23.2101 60.3168C23.2877 60.2843 23.3581 60.2368 23.4175 60.1769C23.4768 60.117 23.5238 60.0459 23.5559 59.9676C23.5879 59.8894 23.6044 59.8055 23.6042 59.7208V54.8609C23.6044 54.7762 23.5879 54.6924 23.5559 54.6141C23.5238 54.5359 23.4768 54.4647 23.4175 54.4048C23.3581 54.3449 23.2877 54.2974 23.2101 54.2649C23.1325 54.2325 23.0493 54.2158 22.9654 54.2158ZM22.3255 59.0757H18.7836V55.506H22.3255V59.0757Z" fill="#C8B395"/>
<path d="M38.843 65.6543C38.759 65.6543 38.6758 65.671 38.5982 65.7034C38.5207 65.7358 38.4502 65.7834 38.3909 65.8433C38.3315 65.9032 38.2845 65.9744 38.2524 66.0526C38.2204 66.1309 38.204 66.2147 38.2041 66.2994V73.275C38.204 73.3597 38.2204 73.4435 38.2524 73.5218C38.2845 73.6 38.3315 73.6712 38.3909 73.7311C38.4502 73.791 38.5207 73.8385 38.5982 73.871C38.6758 73.9034 38.759 73.9201 38.843 73.9201H45.206C45.3757 73.9201 45.5385 73.8521 45.6585 73.7311C45.7785 73.6101 45.8459 73.4461 45.8459 73.275V66.2994C45.8459 66.1283 45.7785 65.9642 45.6585 65.8432C45.5385 65.7223 45.3757 65.6543 45.206 65.6543H38.843ZM44.5672 72.6309H39.4818V66.9445H44.5682L44.5672 72.6309Z" fill="#C8B395"/>
<path d="M48.6557 58.9308V54.3635C48.6557 54.1924 48.5883 54.0284 48.4683 53.9074C48.3483 53.7864 48.1855 53.7185 48.0158 53.7185H46.3149V47.0015C46.3149 46.9168 46.2984 46.8329 46.2662 46.7547C46.234 46.6764 46.1869 46.6053 46.1275 46.5454C46.0681 46.4855 45.9975 46.4379 45.9199 46.4055C45.8423 46.3731 45.759 46.3564 45.675 46.3564H38.3767C38.2926 46.3564 38.2094 46.3731 38.1318 46.4055C38.0542 46.4379 37.9836 46.4855 37.9242 46.5454C37.8648 46.6053 37.8176 46.6764 37.7855 46.7547C37.7533 46.8329 37.7368 46.9168 37.7368 47.0015V53.7185H36.0359C35.8662 53.7185 35.7034 53.7864 35.5834 53.9074C35.4634 54.0284 35.396 54.1924 35.396 54.3635V58.9308C35.396 59.1019 35.4634 59.266 35.5834 59.387C35.7034 59.5079 35.8662 59.5759 36.0359 59.5759H48.0158C48.1855 59.5759 48.3483 59.5079 48.4683 59.387C48.5883 59.266 48.6557 59.1019 48.6557 58.9308ZM42.6657 47.6456H45.0362V50.0354H42.6657V47.6456ZM42.6657 51.3256H45.0362V53.7143H42.6657V51.3256ZM39.0165 47.6456H41.386V50.0354H39.0165V47.6456ZM39.0165 51.3256H41.386V53.7143H39.0165V51.3256ZM47.3759 58.2867H36.6758V55.0087H47.3759V58.2867Z" fill="#C8B395"/>
<path d="M171.472 4.69451C171.641 4.69451 171.804 4.62654 171.924 4.50556C172.044 4.38458 172.112 4.22052 172.112 4.04943C172.112 3.87833 172.044 3.71422 171.924 3.59324C171.804 3.47226 171.641 3.4043 171.472 3.4043H88.6487C88.479 3.4043 88.3162 3.47226 88.1962 3.59324C88.0762 3.71422 88.0088 3.87833 88.0088 4.04943C88.0088 4.22052 88.0762 4.38458 88.1962 4.50556C88.3162 4.62654 88.479 4.69451 88.6487 4.69451H171.472Z" fill="#C8B395"/>
<path d="M86.1545 6.53441C86.3242 6.53441 86.487 6.46645 86.607 6.34547C86.727 6.22448 86.7944 6.06037 86.7944 5.88928V1.2901H173.603V6.81161H87.7491C87.5794 6.81161 87.4167 6.87958 87.2967 7.00056C87.1767 7.12154 87.1092 7.2856 87.1092 7.45669C87.1092 7.62778 87.1767 7.7919 87.2967 7.91288C87.4167 8.03386 87.5794 8.10182 87.7491 8.10182H174.243C174.412 8.10182 174.575 8.03386 174.695 7.91288C174.815 7.7919 174.883 7.62778 174.883 7.45669V0.647082C174.883 0.47599 174.815 0.311878 174.695 0.190898C174.575 0.0699176 174.412 0.00195312 174.243 0.00195312H86.1545C85.9848 0.00195312 85.8221 0.0699176 85.7021 0.190898C85.5821 0.311878 85.5146 0.47599 85.5146 0.647082V5.89134C85.5152 6.06208 85.5828 6.22563 85.7028 6.34617C85.8227 6.4667 85.9852 6.53441 86.1545 6.53441Z" fill="#C8B395"/>
<path d="M86.1545 24.6628C86.3242 24.6628 86.487 24.5949 86.607 24.4739C86.727 24.3529 86.7944 24.1888 86.7944 24.0178V21.4724H173.603V24.9205H87.7491C87.5794 24.9205 87.4167 24.9884 87.2967 25.1094C87.1767 25.2304 87.1092 25.3945 87.1092 25.5656C87.1092 25.7367 87.1767 25.9007 87.2967 26.0217C87.4167 26.1427 87.5794 26.2107 87.7491 26.2107H174.243C174.412 26.2107 174.575 26.1427 174.695 26.0217C174.815 25.9007 174.883 25.7367 174.883 25.5656V20.8252C174.883 20.6541 174.815 20.49 174.695 20.369C174.575 20.2481 174.412 20.1801 174.243 20.1801H171.965V9.4287C171.965 9.25761 171.898 9.09355 171.778 8.97257C171.658 8.85159 171.495 8.78363 171.325 8.78363C171.156 8.78363 170.993 8.85159 170.873 8.97257C170.753 9.09355 170.686 9.25761 170.686 9.4287V20.1822H164.73V12.7429C164.73 12.5718 164.663 12.4077 164.543 12.2867C164.423 12.1657 164.26 12.0977 164.09 12.0977H154.418C154.248 12.0977 154.085 12.1657 153.965 12.2867C153.845 12.4077 153.778 12.5718 153.778 12.7429V20.1822H145.538V12.7429C145.538 12.6581 145.521 12.5743 145.489 12.496C145.457 12.4177 145.41 12.3466 145.351 12.2867C145.291 12.2268 145.221 12.1793 145.143 12.1468C145.065 12.1144 144.982 12.0977 144.898 12.0977H135.225C135.055 12.0977 134.893 12.1657 134.773 12.2867C134.653 12.4077 134.585 12.5718 134.585 12.7429V20.1822H126.346V12.7429C126.346 12.5718 126.278 12.4077 126.158 12.2867C126.038 12.1657 125.875 12.0977 125.706 12.0977H116.033C115.949 12.0977 115.866 12.1144 115.788 12.1468C115.71 12.1793 115.64 12.2268 115.58 12.2867C115.521 12.3466 115.474 12.4177 115.442 12.496C115.409 12.5743 115.393 12.6581 115.393 12.7429V20.1822H107.15V12.7429C107.15 12.5718 107.083 12.4077 106.963 12.2867C106.843 12.1657 106.68 12.0977 106.51 12.0977H96.8373C96.6676 12.0977 96.5048 12.1657 96.3848 12.2867C96.2648 12.4077 96.1974 12.5718 96.1974 12.7429V20.1822H89.7158V9.4287C89.7192 9.34189 89.7053 9.25528 89.6747 9.17404C89.6441 9.09281 89.5976 9.01862 89.5379 8.95597C89.4781 8.89331 89.4065 8.84349 89.3272 8.80944C89.2479 8.77539 89.1626 8.75781 89.0764 8.75781C88.9903 8.75781 88.9049 8.77539 88.8257 8.80944C88.7464 8.84349 88.6747 8.89331 88.615 8.95597C88.5553 9.01862 88.5088 9.09281 88.4782 9.17404C88.4476 9.25528 88.4336 9.34189 88.4371 9.4287V20.1822H86.1545C85.9848 20.1822 85.8221 20.2501 85.7021 20.3711C85.5821 20.4921 85.5146 20.6561 85.5146 20.8272V24.0218C85.5157 24.1922 85.5836 24.3553 85.7035 24.4754C85.8234 24.5954 85.9855 24.6628 86.1545 24.6628ZM159.894 13.3879H163.452V20.1822H159.894V13.3879ZM155.057 13.3879H158.616V20.1822H155.057V13.3879ZM140.702 13.3879H144.255V20.1822H140.698L140.702 13.3879ZM135.866 13.3879H139.423V20.1822H135.866V13.3879ZM121.51 13.3879H125.067V20.1822H121.51V13.3879ZM116.674 13.3879H120.234V20.1822H116.677L116.674 13.3879ZM102.317 13.3879H105.874V20.1822H102.317V13.3879ZM97.4813 13.3879H101.038V20.1822H97.4813V13.3879Z" fill="#C8B395"/>
<path d="M86.1545 42.7923C86.2386 42.7923 86.3218 42.7756 86.3994 42.7432C86.4771 42.7108 86.5476 42.6633 86.607 42.6034C86.6664 42.5435 86.7136 42.4724 86.7457 42.3941C86.7779 42.3158 86.7944 42.2319 86.7944 42.1472V39.5823H173.603V43.0304H87.7491C87.5794 43.0304 87.4167 43.0983 87.2967 43.2193C87.1767 43.3403 87.1093 43.5044 87.1093 43.6755C87.1093 43.8466 87.1767 44.0106 87.2967 44.1316C87.4167 44.2526 87.5794 44.3206 87.7491 44.3206H174.243C174.412 44.3206 174.575 44.2526 174.695 44.1316C174.815 44.0106 174.883 43.8466 174.883 43.6755V38.9351C174.883 38.764 174.815 38.5999 174.695 38.4789C174.575 38.3579 174.412 38.29 174.243 38.29H171.965V28.025C171.965 27.8539 171.898 27.6898 171.778 27.5688C171.658 27.4478 171.495 27.3799 171.325 27.3799C171.156 27.3799 170.993 27.4478 170.873 27.5688C170.753 27.6898 170.686 27.8539 170.686 28.025V38.29H164.73V30.8507C164.73 30.6796 164.663 30.5155 164.543 30.3945C164.423 30.2736 164.26 30.2056 164.09 30.2056H154.418C154.248 30.2056 154.085 30.2736 153.965 30.3945C153.845 30.5155 153.778 30.6796 153.778 30.8507V38.29H145.538V30.8507C145.538 30.766 145.521 30.6821 145.489 30.6038C145.457 30.5256 145.41 30.4545 145.351 30.3945C145.291 30.3346 145.221 30.2871 145.143 30.2547C145.065 30.2222 144.982 30.2056 144.898 30.2056H135.225C135.055 30.2056 134.893 30.2736 134.773 30.3945C134.653 30.5155 134.585 30.6796 134.585 30.8507V38.29H126.346V30.8507C126.346 30.6796 126.278 30.5155 126.158 30.3945C126.038 30.2736 125.875 30.2056 125.706 30.2056H116.033C115.949 30.2056 115.866 30.2222 115.788 30.2547C115.71 30.2871 115.64 30.3346 115.58 30.3945C115.521 30.4545 115.474 30.5256 115.442 30.6038C115.409 30.6821 115.393 30.766 115.393 30.8507V38.29H107.15V30.8507C107.15 30.6796 107.083 30.5155 106.963 30.3945C106.843 30.2736 106.68 30.2056 106.51 30.2056H96.8373C96.6676 30.2056 96.5049 30.2736 96.3849 30.3945C96.2649 30.5155 96.1974 30.6796 96.1974 30.8507V38.29H89.7158V28.5578C89.7193 28.471 89.7053 28.3844 89.6747 28.3031C89.6441 28.2219 89.5976 28.1477 89.5379 28.085C89.4782 28.0224 89.4065 27.9726 89.3272 27.9385C89.2479 27.9045 89.1626 27.8869 89.0764 27.8869C88.9903 27.8869 88.905 27.9045 88.8257 27.9385C88.7464 27.9726 88.6747 28.0224 88.615 28.085C88.5553 28.1477 88.5088 28.2219 88.4782 28.3031C88.4476 28.3844 88.4336 28.471 88.4371 28.5578V38.29H86.1545C85.9848 38.29 85.8221 38.3579 85.7021 38.4789C85.5821 38.5999 85.5147 38.764 85.5147 38.9351V42.1431C85.5141 42.2282 85.5303 42.3125 85.5622 42.3912C85.5941 42.47 85.6412 42.5416 85.7006 42.6019C85.7601 42.6622 85.8308 42.7102 85.9087 42.7428C85.9866 42.7755 86.0702 42.7923 86.1545 42.7923ZM159.894 31.4999H163.452V38.2941H159.894V31.4999ZM155.057 31.4999H158.616V38.2941H155.057V31.4999ZM140.702 31.4999H144.255V38.2941H140.698L140.702 31.4999ZM135.866 31.4999H139.423V38.2941H135.866V31.4999ZM121.51 31.4999H125.067V38.2941H121.51V31.4999ZM116.674 31.4999H120.234V38.2941H116.677L116.674 31.4999ZM102.317 31.4999H105.874V38.2941H102.317V31.4999ZM97.4813 31.4999H101.038V38.2941H97.4813V31.4999Z" fill="#C8B395"/>
<path d="M86.1545 60.9209C86.3242 60.9209 86.487 60.8529 86.607 60.7319C86.727 60.6109 86.7944 60.4469 86.7944 60.2758V57.6995H173.603V61.1476H87.7491C87.5794 61.1476 87.4167 61.2156 87.2967 61.3365C87.1767 61.4575 87.1092 61.6216 87.1092 61.7927C87.1092 61.9638 87.1767 62.1279 87.2967 62.2489C87.4167 62.3698 87.5794 62.4378 87.7491 62.4378H174.243C174.327 62.4378 174.41 62.4211 174.488 62.3887C174.565 62.3563 174.636 62.3088 174.695 62.2489C174.755 62.189 174.802 62.1179 174.834 62.0396C174.866 61.9613 174.883 61.8774 174.883 61.7927V57.0523C174.883 56.8812 174.815 56.7171 174.695 56.5962C174.575 56.4752 174.412 56.4072 174.243 56.4072H171.965V45.8609C171.965 45.6899 171.898 45.5257 171.778 45.4048C171.658 45.2838 171.495 45.2158 171.325 45.2158C171.156 45.2158 170.993 45.2838 170.873 45.4048C170.753 45.5257 170.686 45.6899 170.686 45.8609V56.4052H164.73V48.9659C164.73 48.7948 164.663 48.6307 164.543 48.5097C164.423 48.3887 164.26 48.3208 164.09 48.3208H154.418C154.248 48.3208 154.085 48.3887 153.965 48.5097C153.845 48.6307 153.778 48.7948 153.778 48.9659V56.4052H145.538V48.9659C145.538 48.8812 145.521 48.7973 145.489 48.719C145.457 48.6408 145.41 48.5696 145.351 48.5097C145.291 48.4498 145.221 48.4023 145.143 48.3699C145.065 48.3374 144.982 48.3208 144.898 48.3208H135.225C135.055 48.3208 134.893 48.3887 134.773 48.5097C134.653 48.6307 134.585 48.7948 134.585 48.9659V56.4052H126.346V48.9659C126.346 48.7948 126.278 48.6307 126.158 48.5097C126.038 48.3887 125.875 48.3208 125.706 48.3208H116.033C115.949 48.3208 115.866 48.3374 115.788 48.3699C115.71 48.4023 115.64 48.4498 115.58 48.5097C115.521 48.5696 115.474 48.6408 115.442 48.719C115.409 48.7973 115.393 48.8812 115.393 48.9659V56.4052H107.15V48.9659C107.15 48.7948 107.083 48.6307 106.963 48.5097C106.843 48.3887 106.68 48.3208 106.51 48.3208H96.8373C96.6676 48.3208 96.5048 48.3887 96.3848 48.5097C96.2648 48.6307 96.1974 48.7948 96.1974 48.9659V56.4052H89.7158V45.8609C89.7092 45.6945 89.6389 45.537 89.5198 45.4215C89.4006 45.3061 89.2417 45.2416 89.0764 45.2416C88.9112 45.2416 88.7523 45.3061 88.6331 45.4215C88.5139 45.537 88.4437 45.6945 88.4371 45.8609V56.4052H86.1545C85.9848 56.4052 85.8221 56.4731 85.7021 56.5941C85.5821 56.7151 85.5146 56.8791 85.5146 57.0502V60.2758C85.5146 60.4469 85.5821 60.6109 85.7021 60.7319C85.8221 60.8529 85.9848 60.9209 86.1545 60.9209ZM159.894 49.611H163.452V56.4052H159.894V49.611ZM155.057 49.611H158.616V56.4052H155.057V49.611ZM140.702 49.611H144.255V56.4052H140.698L140.702 49.611ZM135.866 49.611H139.423V56.4052H135.866V49.611ZM121.51 49.611H125.067V56.4052H121.51V49.611ZM116.674 49.611H120.234V56.4052H116.677L116.674 49.611ZM102.317 49.611H105.874V56.4052H102.317V49.611ZM97.4813 49.611H101.038V56.4052H97.4813V49.611Z" fill="#C8B395"/>
<path d="M354.952 54.4936C354.991 54.4936 355.03 54.4894 355.068 54.4813C355.136 54.4665 355.202 54.4381 355.259 54.3978C355.317 54.3576 355.366 54.3062 355.404 54.2466C355.442 54.187 355.468 54.1204 355.481 54.0507C355.493 53.981 355.492 53.9094 355.477 53.8403L355.105 52.1523C355.075 52.0132 354.991 51.892 354.871 51.8155C354.752 51.739 354.608 51.7133 354.47 51.7442C354.332 51.7751 354.212 51.86 354.136 51.9802C354.06 52.1004 354.034 52.2461 354.065 52.3852L354.436 54.0732C354.462 54.1917 354.528 54.2978 354.621 54.3741C354.715 54.4505 354.832 54.4926 354.952 54.4936Z" fill="#C8B395"/>
<path d="M3.72174 79.9999H359V78.787C358.744 78.3878 358.408 78.0474 358.013 77.7882C357.618 77.5289 357.174 77.3566 356.708 77.2824V55.6416H357.047C357.168 55.6414 357.286 55.5996 357.38 55.523C357.475 55.4463 357.541 55.3395 357.567 55.2201L358.366 51.5885H358.438C358.51 51.5917 358.582 51.5802 358.649 51.5546C358.716 51.529 358.778 51.49 358.83 51.4397C358.882 51.3895 358.924 51.3292 358.952 51.2624C358.98 51.1956 358.995 51.1238 358.995 51.0511C358.995 50.9785 358.98 50.9066 358.952 50.8399C358.924 50.7731 358.882 50.7127 358.83 50.6625C358.778 50.6123 358.716 50.5732 358.649 50.5477C358.582 50.5221 358.51 50.5106 358.438 50.5137H358.43C358.301 50.125 358.075 49.7763 357.773 49.5015C357.472 49.2268 357.105 49.0351 356.708 48.9453V48.833C356.702 48.6945 356.643 48.5637 356.544 48.4679C356.445 48.3721 356.313 48.3186 356.175 48.3186C356.038 48.3186 355.906 48.3721 355.806 48.4679C355.707 48.5637 355.648 48.6945 355.642 48.833V48.9484C355.248 49.0419 354.883 49.2344 354.582 49.5081C354.281 49.7818 354.054 50.1277 353.921 50.5137H353.912C353.774 50.5198 353.645 50.5791 353.549 50.6792C353.454 50.7793 353.401 50.9125 353.401 51.0511C353.401 51.1897 353.454 51.323 353.549 51.4231C353.645 51.5232 353.774 51.5825 353.912 51.5885H357.277L356.62 54.5668H355.794C355.667 54.5666 355.543 54.6129 355.446 54.6973C355.349 54.7817 355.286 54.8985 355.268 55.0261C355.249 55.1538 355.277 55.2838 355.347 55.3923C355.416 55.5009 355.521 55.5806 355.644 55.6169V77.2824C355.178 77.3564 354.734 77.5287 354.339 77.788C353.943 78.0472 353.607 78.3877 353.351 78.787H338.105V55.3139C338.105 55.1428 338.037 54.9787 337.917 54.8577C337.797 54.7367 337.634 54.6688 337.465 54.6688C337.295 54.6688 337.132 54.7367 337.012 54.8577C336.892 54.9787 336.825 55.1428 336.825 55.3139V78.787H315.078V66.8711H315.536C315.62 66.8711 315.703 66.8545 315.781 66.822C315.858 66.7896 315.929 66.7421 315.988 66.6821C316.047 66.6222 316.094 66.5511 316.126 66.4728C316.159 66.3945 316.175 66.3107 316.175 66.226V64.0558C316.175 63.9711 316.159 63.8872 316.126 63.809C316.094 63.7307 316.047 63.6596 315.988 63.5996C315.929 63.5397 315.858 63.4922 315.781 63.4598C315.703 63.4273 315.62 63.4106 315.536 63.4106H305.677C305.593 63.4106 305.51 63.4273 305.432 63.4598C305.355 63.4922 305.284 63.5397 305.225 63.5996C305.165 63.6595 305.118 63.7306 305.086 63.8089C305.054 63.8871 305.037 63.9711 305.037 64.0558V66.226C305.037 66.3971 305.105 66.5612 305.225 66.6822C305.345 66.8032 305.507 66.8711 305.677 66.8711H306.134V78.787H284.387V55.3139C284.391 55.2271 284.377 55.1404 284.346 55.0592C284.315 54.978 284.269 54.9038 284.209 54.8412C284.15 54.7785 284.078 54.7286 283.999 54.6946C283.919 54.6605 283.834 54.643 283.748 54.643C283.662 54.643 283.576 54.6605 283.497 54.6946C283.418 54.7286 283.346 54.7785 283.286 54.8412C283.227 54.9038 283.18 54.978 283.15 55.0592C283.119 55.1404 283.105 55.2271 283.108 55.3139V78.787H267.529V48.4341C267.529 48.263 267.462 48.099 267.342 47.978C267.222 47.857 267.059 47.7891 266.89 47.7891C266.72 47.7891 266.557 47.857 266.437 47.978C266.317 48.099 266.25 48.263 266.25 48.4341V78.787H243.009V67.5018H243.466C243.55 67.5018 243.633 67.4851 243.711 67.4527C243.789 67.4202 243.859 67.3727 243.918 67.3128C243.978 67.2529 244.025 67.1818 244.057 67.1035C244.089 67.0252 244.105 66.9414 244.105 66.8567V64.6864C244.105 64.6017 244.089 64.5179 244.057 64.4397C244.025 64.3614 243.978 64.2902 243.918 64.2303C243.859 64.1704 243.789 64.1229 243.711 64.0904C243.633 64.058 243.55 64.0413 243.466 64.0413H233.607C233.438 64.0413 233.275 64.1093 233.155 64.2303C233.035 64.3513 232.968 64.5153 232.968 64.6864V66.8567C232.968 67.0278 233.035 67.1919 233.155 67.3129C233.275 67.4339 233.438 67.5018 233.607 67.5018H234.064V78.787H210.825V48.4341C210.825 48.263 210.758 48.099 210.638 47.978C210.518 47.857 210.355 47.7891 210.185 47.7891C210.016 47.7891 209.853 47.857 209.733 47.978C209.613 48.099 209.545 48.263 209.545 48.4341V78.787H188.91V69.2032L191.678 67.3184C191.751 67.2725 191.814 67.2123 191.863 67.1413C191.913 67.0704 191.947 66.9901 191.965 66.9052C191.983 66.8204 191.984 66.7328 191.968 66.6477C191.951 66.5626 191.918 66.4817 191.87 66.4098C191.822 66.3379 191.76 66.2765 191.688 66.2294C191.615 66.1822 191.535 66.1502 191.45 66.1353C191.365 66.1203 191.278 66.1228 191.194 66.1424C191.111 66.1621 191.032 66.1986 190.962 66.2497L188.91 67.6471V61.7185C188.91 61.5475 188.842 61.3833 188.722 61.2624C188.602 61.1414 188.439 61.0734 188.27 61.0734C188.1 61.0734 187.937 61.1414 187.817 61.2624C187.697 61.3833 187.63 61.5475 187.63 61.7185V64.8173L186.506 64.0537C186.436 64.0026 186.357 63.966 186.273 63.9464C186.189 63.9267 186.103 63.9243 186.018 63.9392C185.933 63.9542 185.852 63.9862 185.78 64.0334C185.708 64.0806 185.646 64.1419 185.598 64.2138C185.55 64.2857 185.516 64.3666 185.5 64.4517C185.484 64.5368 185.484 64.6244 185.502 64.7092C185.52 64.794 185.555 64.8743 185.604 64.9453C185.654 65.0163 185.717 65.0765 185.79 65.1223L187.63 66.3734V70.006L184.209 67.677C184.068 67.5826 183.896 67.5482 183.73 67.5812C183.564 67.6143 183.418 67.7121 183.324 67.8534C183.229 67.9947 183.194 68.1679 183.226 68.3352C183.257 68.5026 183.354 68.6505 183.493 68.7466L187.63 71.562V78.786H171.965V64.1928C171.965 64.0217 171.898 63.8576 171.778 63.7367C171.658 63.6157 171.495 63.5477 171.325 63.5477C171.155 63.5477 170.993 63.6157 170.873 63.7367C170.753 63.8576 170.685 64.0217 170.685 64.1928V78.787H158.338V65.5634C158.339 65.4787 158.322 65.3949 158.29 65.3166C158.258 65.2383 158.211 65.1672 158.152 65.1073C158.092 65.0474 158.022 64.9999 157.944 64.9674C157.867 64.935 157.783 64.9183 157.7 64.9183H150.568C150.484 64.9183 150.401 64.935 150.323 64.9674C150.245 64.9999 150.175 65.0474 150.116 65.1073C150.056 65.1672 150.009 65.2383 149.977 65.3166C149.945 65.3949 149.929 65.4787 149.929 65.5634V78.787H137.677V65.5634C137.677 65.4787 137.661 65.3949 137.629 65.3166C137.597 65.2383 137.55 65.1672 137.49 65.1073C137.431 65.0474 137.361 64.9999 137.283 64.9674C137.205 64.935 137.122 64.9183 137.038 64.9183H123.367C123.197 64.9183 123.034 64.9862 122.914 65.1072C122.794 65.2282 122.727 65.3923 122.727 65.5634V78.787H110.476V65.5634C110.476 65.3923 110.409 65.2282 110.289 65.1072C110.169 64.9862 110.006 64.9183 109.836 64.9183H102.705C102.536 64.9183 102.373 64.9862 102.253 65.1072C102.133 65.2282 102.065 65.3923 102.065 65.5634V78.787H89.7186V63.8569C89.712 63.6904 89.6417 63.5329 89.5225 63.4174C89.4033 63.302 89.2445 63.2376 89.0792 63.2376C88.9139 63.2376 88.755 63.302 88.6359 63.4174C88.5167 63.5329 88.4464 63.6904 88.4398 63.8569V78.787H78.8866V69.2032L81.6546 67.3184C81.7884 67.2199 81.8791 67.073 81.9076 66.9085C81.9361 66.744 81.9003 66.5748 81.8076 66.4364C81.715 66.298 81.5727 66.2012 81.4107 66.1664C81.2487 66.1316 81.0797 66.1615 80.9391 66.2497L78.8866 67.6471V61.7185C78.8866 61.5475 78.8191 61.3833 78.6991 61.2624C78.5791 61.1414 78.4164 61.0734 78.2467 61.0734C78.077 61.0734 77.9142 61.1414 77.7942 61.2624C77.6742 61.3833 77.6068 61.5475 77.6068 61.7185V64.8173L76.4824 64.0537C76.3418 63.9655 76.1727 63.9356 76.0107 63.9704C75.8488 64.0053 75.7065 64.102 75.6138 64.2404C75.5212 64.3788 75.4854 64.548 75.5139 64.7125C75.5424 64.877 75.6331 65.0239 75.7669 65.1223L77.6068 66.3734V70.006L74.1856 67.677C74.0448 67.5826 73.8728 67.5482 73.707 67.5812C73.5412 67.6143 73.3951 67.7121 73.3006 67.8534C73.2061 67.9947 73.1708 68.1679 73.2026 68.3352C73.2343 68.5026 73.3305 68.6505 73.47 68.7466L77.6068 71.562V78.786H57.9503V51.874C57.9538 51.7872 57.9398 51.7006 57.9092 51.6193C57.8786 51.5381 57.8321 51.464 57.7724 51.4013C57.7126 51.3387 57.641 51.2888 57.5617 51.2547C57.4824 51.2207 57.3971 51.2032 57.3109 51.2032C57.2248 51.2032 57.1395 51.2207 57.0602 51.2547C56.9809 51.2888 56.9092 51.3387 56.8495 51.4013C56.7898 51.464 56.7433 51.5381 56.7127 51.6193C56.6821 51.7006 56.6681 51.7872 56.6716 51.874V78.787H27.38V51.874C27.3835 51.7872 27.3695 51.7006 27.3389 51.6193C27.3083 51.5381 27.2618 51.464 27.2021 51.4013C27.1424 51.3387 27.0707 51.2888 26.9914 51.2547C26.9121 51.2207 26.8269 51.2032 26.7407 51.2032C26.6545 51.2032 26.5692 51.2207 26.4899 51.2547C26.4106 51.2888 26.339 51.3387 26.2793 51.4013C26.2195 51.464 26.173 51.5381 26.1424 51.6193C26.1118 51.7006 26.0979 51.7872 26.1013 51.874V78.787H19.1945V66.8711C19.1945 66.7 19.127 66.5359 19.007 66.4149C18.887 66.294 18.7243 66.226 18.5546 66.226H10.8882C10.8043 66.226 10.7211 66.2427 10.6435 66.2752C10.5659 66.3076 10.4955 66.3551 10.4361 66.415C10.3768 66.475 10.3298 66.5461 10.2977 66.6243C10.2657 66.7026 10.2492 66.7865 10.2494 66.8711V78.787H4.99946V52.4748C5.00291 52.388 4.98892 52.3014 4.95834 52.2201C4.92777 52.1389 4.88122 52.0647 4.82151 52.0021C4.7618 51.9394 4.69015 51.8896 4.61086 51.8555C4.53157 51.8215 4.44628 51.8039 4.3601 51.8039C4.27392 51.8039 4.18862 51.8215 4.10933 51.8555C4.03004 51.8896 3.95839 51.9394 3.89868 52.0021C3.83897 52.0647 3.79243 52.1389 3.76185 52.2201C3.73127 52.3014 3.71728 52.388 3.72073 52.4748V79.9999H3.72174ZM355.112 50.5137C355.232 50.3421 355.391 50.2021 355.576 50.1055C355.761 50.0088 355.966 49.9584 356.175 49.9584C356.383 49.9584 356.588 50.0088 356.773 50.1055C356.958 50.2021 357.118 50.3421 357.238 50.5137H355.112ZM17.9137 78.787H11.5271V67.5162H17.9137V78.787ZM109.194 78.787H103.343V66.2085H109.194V78.787ZM129.56 78.787H124.004V66.2085H129.56V78.787ZM136.396 78.787H130.84V66.2085H136.396V78.787ZM157.058 78.787H151.206V66.2085H157.058V78.787ZM241.728 78.787H235.341V67.5018H241.728V78.787ZM242.824 66.2147H234.247V65.3346H242.826L242.824 66.2147ZM313.797 78.787H307.412V66.8711H313.797V78.787ZM314.894 65.5809H306.315V64.7009H314.894V65.5809ZM354.777 78.787C355.179 78.4801 355.669 78.3139 356.173 78.3139C356.677 78.3139 357.167 78.4801 357.568 78.787H354.777Z" fill="#C8B395"/>
</g>
<defs>
<clipPath id="clip0_509_3107">
<rect width="359" height="80" fill="white"/>
</clipPath>
</defs>
</svg>
