<svg width="855" height="400" viewBox="0 0 855 400" fill="none" xmlns="http://www.w3.org/2000/svg">
<path fill-rule="evenodd" clip-rule="evenodd" d="M828.547 184.814C831.08 174.252 832.351 163.489 832.351 152.583C832.351 27.5681 593.286 0 382.202 0C171.118 0 0 101.344 0 226.359C0 351.373 134.313 383.837 345.397 383.837C399.827 383.837 449.832 380.762 495.341 375.042C533.687 383.95 579.515 389 632.631 389C754.687 389 855 300.121 855 228.035C855 207.641 845.268 193.955 828.547 184.814Z" fill="#DEE1E9"/>
<path d="M320.213 33.3714C290.924 34.4649 274.647 48.1079 286.57 61.1781C298.493 74.2482 277.913 74.821 265.939 76.4353C254.016 78.0495 246.966 94.4003 257.8 101.482C268.634 108.564 266.457 118.926 252.357 120.541C238.257 122.155 228.823 128.195 230.119 143.452C231.726 162.511 268.116 154.908 262.154 166.885C256.193 178.862 265.939 192.505 284.393 194.692C302.847 196.879 309.897 190.89 306.113 197.972C300.152 212.136 328.403 222.394 349.035 219.686H443.016C524.816 219.686 540.782 216.77 546.744 208.595C552.705 200.42 539.694 197.139 551.098 197.139C562.502 197.139 574.995 192.244 573.336 182.403C571.729 172.613 587.436 169.853 596.663 167.145C605.89 164.438 610.763 151.888 606.979 141.005C603.195 130.122 626.522 128.456 623.774 111.584C621.079 94.7127 610.763 100.701 603.143 92.5256C595.523 84.3503 608.016 69.6138 592.309 65.8125C576.55 62.0112 561.932 67.4268 562.45 57.1164C562.969 46.754 567.323 39.1515 542.908 34.7774C518.492 30.3512 349.501 32.2779 320.213 33.3714Z" fill="white"/>
<path d="M503.926 236.558C503.926 232.34 500.453 228.852 496.254 228.852H467.225C463.026 228.852 459.553 232.34 459.553 236.558C459.553 240.776 463.026 244.265 467.225 244.265H496.254C500.453 244.265 503.926 240.776 503.926 236.558Z" fill="white"/>
<path d="M495.528 264H507.761C510.975 264 513.671 261.345 513.671 258.064C513.671 254.836 511.027 252.128 507.761 252.128H495.528C492.314 252.128 489.618 254.784 489.618 258.064C489.618 261.345 492.314 264 495.528 264Z" fill="white"/>
<path d="M332.175 100.168L332.271 101.944C332.751 101.896 333.423 101.824 334.047 101.776C335.103 101.704 339.519 101.512 340.599 101.44C339.063 102.76 335.151 106.216 332.463 108.088C331.239 108.232 329.631 108.448 328.311 108.568L328.479 110.176C331.431 109.696 334.743 109.312 337.359 109.096C336.063 109.84 334.383 111.616 334.383 113.752C334.383 117.4 337.503 119.224 343.311 118.984L343.671 117.232C342.807 117.304 341.703 117.352 340.263 117.184C338.079 116.872 336.039 116.032 336.039 113.512C336.039 111.208 338.415 109.144 340.767 108.808C342.207 108.616 344.487 108.592 346.839 108.688V107.104C343.287 107.104 338.919 107.44 335.175 107.848C337.167 106.288 340.839 103.192 342.615 101.704C342.951 101.464 343.503 101.08 343.791 100.888L342.711 99.664C342.423 99.76 341.991 99.832 341.463 99.88C340.119 100.024 335.079 100.24 334.023 100.24C333.303 100.24 332.727 100.216 332.175 100.168ZM369.183 110.008C369.183 114.4 365.007 116.752 359.199 117.496L360.183 119.104C366.327 118.168 370.959 115.288 370.959 110.08C370.959 106.696 368.463 104.848 365.127 104.848C362.367 104.848 359.631 105.616 357.975 106C357.255 106.168 356.463 106.312 355.839 106.36L356.391 108.352C356.943 108.136 357.615 107.872 358.359 107.656C359.799 107.224 362.151 106.432 364.959 106.432C367.455 106.432 369.183 107.896 369.183 110.008ZM358.983 99.328L358.695 100.96C361.407 101.44 366.183 101.92 368.823 102.088L369.087 100.432C366.759 100.408 361.599 99.928 358.983 99.328ZM387.279 103.936V105.544C388.671 105.64 389.919 105.688 391.287 105.688C394.095 105.688 396.999 105.496 399.543 105.064V103.432C397.143 103.912 394.191 104.128 391.335 104.128C389.919 104.128 388.623 104.056 387.279 103.936ZM395.535 99.568H393.615C393.663 100 393.687 100.6 393.687 101.032C393.687 101.896 393.687 103.408 393.687 105.016C393.687 108.136 394.023 112.72 394.023 114.448C394.023 116.08 393.423 117.16 391.311 117.16C389.487 117.16 388.263 116.464 388.263 115.168C388.263 113.968 389.583 113.128 391.455 113.128C394.551 113.128 396.975 114.784 399.447 117.088L400.383 115.672C398.319 113.824 395.559 111.808 391.599 111.808C388.455 111.808 386.727 113.392 386.727 115.336C386.727 117.424 388.431 118.696 391.623 118.696C394.839 118.696 395.679 116.776 395.679 114.904C395.679 112.384 395.319 108.544 395.319 104.992C395.319 103.624 395.343 101.896 395.391 101.008C395.415 100.528 395.463 100.072 395.535 99.568ZM383.679 99.712L381.783 99.544C381.783 100.024 381.711 100.6 381.639 101.152C381.327 103.168 380.511 107.752 380.511 111.256C380.511 114.496 380.943 117.112 381.423 118.84L382.935 118.72C382.911 118.48 382.863 118.144 382.863 117.928C382.839 117.64 382.887 117.184 382.959 116.848C383.199 115.696 384.087 113.248 384.663 111.616L383.775 110.92C383.343 111.928 382.719 113.512 382.335 114.64C382.143 113.344 382.071 112.288 382.071 110.992C382.071 108.232 382.791 103.576 383.271 101.248C383.367 100.816 383.535 100.096 383.679 99.712ZM409.239 117.424V118.816H422.055V117.424H409.239ZM408.615 109.048V110.416H422.559V109.048H408.615ZM408.615 105.808V107.152H422.559V105.808H408.615ZM404.919 102.496V103.888H426.399V102.496H404.919ZM408.975 99.256V100.6H422.223V99.256H408.975ZM408.375 112.36V119.872H409.935V113.776H421.239V119.8H422.871V112.36H408.375ZM433.431 108.544L434.175 110.32C435.615 109.744 440.943 107.512 443.943 107.512C446.463 107.512 448.119 109.072 448.119 111.16C448.119 115.192 443.487 116.68 438.327 116.824L439.023 118.48C445.287 118.096 449.847 115.864 449.847 111.184C449.847 107.968 447.399 105.976 444.063 105.976C441.255 105.976 437.319 107.416 435.615 107.968C434.871 108.184 434.127 108.4 433.431 108.544ZM456.331 102.16L456.523 104.056C459.091 103.528 465.427 102.904 468.043 102.64C465.739 103.96 463.411 107.056 463.411 110.872C463.411 116.248 468.523 118.552 472.843 118.696L473.467 116.944C469.603 116.8 465.091 115.312 465.091 110.488C465.091 107.656 467.155 103.888 470.683 102.736C471.883 102.376 473.995 102.328 475.387 102.352V100.648C473.803 100.696 471.619 100.816 468.979 101.056C464.539 101.416 459.907 101.896 458.443 102.04C457.963 102.088 457.243 102.136 456.331 102.16ZM489.456 99.208L487.536 99.088C487.584 99.52 487.584 99.928 487.512 100.72C487.248 104.032 486.144 111.16 486.144 113.752C486.144 117.664 488.76 119.056 491.928 119.056C496.584 119.056 499.752 116.968 499.752 113.392C499.752 111.352 498.936 109.672 497.28 107.896L495.384 108.28C497.184 109.768 498.024 111.592 498.024 113.224C498.024 115.792 495.624 117.376 491.928 117.376C489.12 117.376 487.776 115.912 487.776 113.512C487.776 110.896 488.832 103.6 489.168 100.816C489.24 100.288 489.312 99.808 489.456 99.208ZM481.944 102.448L481.824 104.008C483.936 104.56 486.792 104.92 488.856 104.92C490.776 104.92 492.192 104.848 493.752 104.704L493.8 103.096C492.36 103.288 490.704 103.384 488.88 103.384C486.792 103.384 483.96 103.072 481.944 102.448ZM481.344 108.4L481.248 110.056C483.432 110.728 486.288 111.016 488.808 111.016C490.44 111.016 491.952 110.944 493.584 110.776L493.632 109.144C491.928 109.384 490.272 109.456 488.592 109.456C486.408 109.456 483.6 109.216 481.344 108.4ZM510.785 119.296L512.249 118.048C510.689 116.248 508.553 114.112 506.825 112.72L505.457 113.944C507.161 115.336 509.225 117.376 510.785 119.296ZM275.366 139.208V150.488H276.974V140.768H292.982V150.368H294.614V139.208H275.366ZM276.23 147.392V148.952H293.942V147.392H276.23ZM284.126 134.888V156.848H285.806V134.888H284.126ZM300.278 139.28V140.84H321.686V139.28H300.278ZM303.758 154.064V155.624H318.11V154.064H303.758ZM310.07 134.888V147.056H311.798V134.888H310.07ZM302.894 146.192V156.92H304.55V147.728H317.366V156.824H319.07V146.192H302.894ZM347.054 139.784L345.686 138.68C345.398 138.8 344.894 138.848 344.27 138.848C341.894 138.848 330.95 138.848 329.798 138.848C328.958 138.848 328.07 138.776 327.398 138.68V140.624C327.878 140.576 328.862 140.504 329.798 140.504C331.094 140.504 342.014 140.504 344.174 140.504C342.878 142.808 339.734 146.792 335.75 149.552L337.07 150.728C341.438 147.584 344.678 143.384 346.502 140.48C346.622 140.264 346.838 140.024 347.054 139.784ZM335.99 151.16C337.502 152.696 339.398 154.784 340.286 155.984L341.846 154.76C340.838 153.536 338.966 151.568 337.454 150.056C335.774 148.4 332.918 146.048 331.838 145.28L330.47 146.408C331.718 147.296 334.55 149.696 335.99 151.16ZM356.174 137.552L354.974 138.824C356.75 140.024 359.726 142.592 360.95 143.84L362.27 142.472C360.95 141.176 357.878 138.68 356.174 137.552ZM354.278 153.656L355.406 155.408C359.534 154.616 362.534 153.104 364.934 151.592C368.534 149.312 371.246 146.072 372.854 143.144L371.822 141.32C370.454 144.224 367.574 147.776 363.95 150.056C361.67 151.496 358.55 153.008 354.278 153.656ZM383.894 136.664L382.934 138.104C384.302 138.896 386.942 140.648 388.046 141.512L389.078 140.072C388.07 139.328 385.286 137.456 383.894 136.664ZM380.438 153.848L381.422 155.576C383.678 155.12 386.966 154.016 389.366 152.6C393.206 150.344 396.494 147.248 398.558 144.032L397.526 142.28C395.582 145.664 392.438 148.76 388.478 151.04C386.078 152.408 383.078 153.392 380.438 153.848ZM380.294 142.064L379.334 143.504C380.774 144.248 383.39 145.928 384.542 146.768L385.526 145.28C384.518 144.536 381.686 142.808 380.294 142.064ZM408.014 141.896V143.6C408.422 143.576 409.79 143.528 410.39 143.528C411.59 143.528 418.67 143.528 419.438 143.528C419.438 144.248 419.438 152.48 419.438 155C419.438 155.504 419.438 156.008 419.414 156.296H421.118C421.118 155.936 421.094 155.432 421.094 155.048C421.094 152.984 421.094 143.936 421.094 143.096C421.094 142.664 421.094 142.208 421.118 141.968C420.806 141.968 420.23 141.992 419.678 141.992C417.734 141.992 411.614 141.992 410.39 141.992C409.79 141.992 408.446 141.968 408.014 141.896ZM408.518 147.632V149.312C408.998 149.264 409.79 149.264 410.606 149.264C411.83 149.264 419.582 149.264 420.302 149.264V147.704C419.582 147.704 411.83 147.704 410.582 147.704C409.79 147.704 408.974 147.656 408.518 147.632ZM407.726 153.632V155.36C408.11 155.336 408.926 155.288 409.694 155.288C411.038 155.288 419.15 155.288 420.302 155.288V153.728C419.246 153.728 411.038 153.728 409.694 153.728C408.854 153.728 408.11 153.68 407.726 153.632ZM433.934 137.552L432.734 138.824C434.51 140.024 437.486 142.592 438.71 143.84L440.03 142.472C438.71 141.176 435.638 138.68 433.934 137.552ZM432.038 153.656L433.166 155.408C437.294 154.616 440.294 153.104 442.694 151.592C446.294 149.312 449.006 146.072 450.614 143.144L449.582 141.32C448.214 144.224 445.334 147.776 441.71 150.056C439.43 151.496 436.31 153.008 432.038 153.656ZM458.39 145.544L459.134 147.32C460.574 146.744 465.902 144.512 468.902 144.512C471.422 144.512 473.078 146.072 473.078 148.16C473.078 152.192 468.446 153.68 463.286 153.824L463.982 155.48C470.246 155.096 474.806 152.864 474.806 148.184C474.806 144.968 472.358 142.976 469.022 142.976C466.214 142.976 462.278 144.416 460.574 144.968C459.83 145.184 459.086 145.4 458.39 145.544ZM481.29 139.16L481.482 141.056C484.05 140.528 490.386 139.904 493.002 139.64C490.698 140.96 488.37 144.056 488.37 147.872C488.37 153.248 493.482 155.552 497.802 155.696L498.426 153.944C494.562 153.8 490.05 152.312 490.05 147.488C490.05 144.656 492.114 140.888 495.642 139.736C496.842 139.376 498.954 139.328 500.346 139.352V137.648C498.762 137.696 496.578 137.816 493.938 138.056C489.498 138.416 484.866 138.896 483.402 139.04C482.922 139.088 482.202 139.136 481.29 139.16ZM506.802 136.592V138.224H527.418V136.592H506.802ZM518.586 143.408C521.466 145.304 525.09 148.112 526.794 149.96L528.09 148.712C526.29 146.888 522.642 144.2 519.762 142.376L518.586 143.408ZM518.226 137.144C515.946 141.704 511.458 146.312 506.226 148.928C506.562 149.288 507.042 149.912 507.306 150.32C512.73 147.464 517.242 142.736 519.954 137.792L518.226 137.144ZM516.234 141.752V156.848H517.938V140.048L516.234 141.752ZM542.13 134.864V138.656H543.81V134.864H542.13ZM533.13 137.504V142.592H534.762V139.016H551.394V142.592H553.074V137.504H533.13ZM541.17 140.192C539.538 143.696 536.946 148.616 535.194 151.472L536.85 151.928C538.53 149.024 541.074 144.176 542.826 140.552L541.17 140.192ZM547.578 145.088C545.97 151.832 541.17 154.424 532.962 155.48C533.298 155.84 533.778 156.56 533.946 156.944C542.25 155.576 547.386 152.792 549.33 145.328L547.578 145.088ZM532.41 144.128V145.664H553.698V144.128H532.41ZM536.514 150.56C541.722 152.072 548.13 154.784 551.346 156.944L552.498 155.624C549.138 153.464 542.706 150.848 537.57 149.408L536.514 150.56ZM560.97 144.392C560.106 144.392 559.458 145.04 559.458 145.88C559.458 146.744 560.106 147.392 560.97 147.392C561.81 147.392 562.458 146.744 562.458 145.88C562.458 145.04 561.81 144.392 560.97 144.392ZM568.962 144.392C568.098 144.392 567.45 145.04 567.45 145.88C567.45 146.744 568.098 147.392 568.962 147.392C569.802 147.392 570.45 146.744 570.45 145.88C570.45 145.04 569.802 144.392 568.962 144.392ZM576.954 144.392C576.09 144.392 575.442 145.04 575.442 145.88C575.442 146.744 576.09 147.392 576.954 147.392C577.794 147.392 578.442 146.744 578.442 145.88C578.442 145.04 577.794 144.392 576.954 144.392Z" fill="#4D4D4D"/>
<path fill-rule="evenodd" clip-rule="evenodd" d="M281.241 354.282C284.403 346.543 286 338.173 286 329.5C286 292.221 243.779 284 206.5 284C169.221 284 139 314.221 139 351.5C139 388.779 162.721 398.46 200 398.46C209.613 398.46 218.444 397.543 226.481 395.837C233.253 398.494 241.347 400 250.728 400C272.284 400 286 394.418 286 372.922C286 366.169 284.275 359.817 281.241 354.282Z" fill="#F5F5F5"/>
<path d="M122.14 329.502V330.636H133.264V329.502H122.14ZM129.574 328.026V335.892C129.574 336.144 129.502 336.216 129.214 336.234C128.89 336.252 127.882 336.252 126.748 336.216C126.91 336.576 127.09 337.062 127.144 337.404C128.584 337.404 129.52 337.386 130.06 337.206C130.6 337.008 130.78 336.648 130.78 335.892V328.026H129.574ZM131.338 320.898C129.178 321.6 125.272 322.248 121.978 322.644C122.122 322.896 122.266 323.328 122.302 323.616C125.686 323.256 129.646 322.626 132.184 321.852L131.338 320.898ZM122.662 324.534C123.22 325.596 123.742 327 123.922 327.882L125.02 327.486C124.84 326.622 124.264 325.236 123.688 324.21L122.662 324.534ZM126.208 323.832C126.64 324.912 126.982 326.28 127.036 327.144L128.188 326.856C128.098 326.01 127.72 324.642 127.306 323.598L126.208 323.832ZM123.652 332.004C124.606 332.976 125.632 334.344 126.046 335.262L127.09 334.65C126.64 333.732 125.596 332.418 124.642 331.482L123.652 332.004ZM120.196 320.916V337.404H121.366V320.916H120.196ZM116.506 332.76L117.118 333.966C118.27 333.228 119.62 332.31 120.916 331.41L120.538 330.402C119.044 331.302 117.514 332.22 116.506 332.76ZM116.704 323.724C117.568 324.858 118.45 326.406 118.792 327.432L119.836 326.856C119.494 325.866 118.576 324.354 117.694 323.238L116.704 323.724ZM131.824 323.364C131.05 324.768 129.664 326.64 128.638 327.792L129.556 328.332C130.618 327.162 131.932 325.434 132.922 323.922L131.824 323.364ZM136.486 328.926V330.078H152.452V328.926H136.486ZM137.35 323.13V324.282H151.696V323.13H137.35ZM143.812 320.934V337.404H145.072V320.934H143.812ZM149.14 324.678C148.708 325.794 147.898 327.378 147.268 328.35L148.276 328.71C148.942 327.792 149.734 326.334 150.382 325.092L149.14 324.678ZM138.844 325.164C139.564 326.262 140.266 327.738 140.518 328.656L141.652 328.206C141.4 327.27 140.662 325.83 139.906 324.786L138.844 325.164ZM143.452 329.358C141.868 331.878 138.826 334.416 136.108 335.622C136.396 335.856 136.774 336.306 136.954 336.594C139.69 335.244 142.714 332.58 144.424 329.79L143.452 329.358ZM145.45 329.358L144.478 329.79C146.206 332.544 149.23 335.298 151.984 336.666C152.182 336.36 152.56 335.892 152.848 335.658C150.112 334.452 147.034 331.878 145.45 329.358ZM162.1 325.452V326.658C163.144 326.73 164.08 326.766 165.106 326.766C167.212 326.766 169.39 326.622 171.298 326.298V325.074C169.498 325.434 167.284 325.596 165.142 325.596C164.08 325.596 163.108 325.542 162.1 325.452ZM168.292 322.176H166.852C166.888 322.5 166.906 322.95 166.906 323.274C166.906 323.922 166.906 325.056 166.906 326.262C166.906 328.602 167.158 332.04 167.158 333.336C167.158 334.56 166.708 335.37 165.124 335.37C163.756 335.37 162.838 334.848 162.838 333.876C162.838 332.976 163.828 332.346 165.232 332.346C167.554 332.346 169.372 333.588 171.226 335.316L171.928 334.254C170.38 332.868 168.31 331.356 165.34 331.356C162.982 331.356 161.686 332.544 161.686 334.002C161.686 335.568 162.964 336.522 165.358 336.522C167.77 336.522 168.4 335.082 168.4 333.678C168.4 331.788 168.13 328.908 168.13 326.244C168.13 325.218 168.148 323.922 168.184 323.256C168.202 322.896 168.238 322.554 168.292 322.176ZM159.4 322.284L157.978 322.158C157.978 322.518 157.924 322.95 157.87 323.364C157.636 324.876 157.024 328.314 157.024 330.942C157.024 333.372 157.348 335.334 157.708 336.63L158.842 336.54C158.824 336.36 158.788 336.108 158.788 335.946C158.77 335.73 158.806 335.388 158.86 335.136C159.04 334.272 159.706 332.436 160.138 331.212L159.472 330.69C159.148 331.446 158.68 332.634 158.392 333.48C158.248 332.508 158.194 331.716 158.194 330.744C158.194 328.674 158.734 325.182 159.094 323.436C159.166 323.112 159.292 322.572 159.4 322.284ZM175.528 322.752V323.886H191.188V322.752H175.528ZM177.202 325.812V326.892H189.568V325.812H177.202ZM176.032 328.44V331.806H177.202V329.538H189.442V331.806H190.63V328.44H176.032ZM182.656 320.916V326.37H183.898V320.916H182.656ZM184.762 330.492V335.388C184.762 336.702 185.176 337.062 186.724 337.062C187.03 337.062 189.064 337.062 189.424 337.062C190.774 337.062 191.116 336.468 191.26 334.056C190.936 333.966 190.432 333.768 190.162 333.57C190.108 335.64 189.982 335.964 189.316 335.964C188.884 335.964 187.156 335.964 186.814 335.964C186.094 335.964 185.95 335.874 185.95 335.37V330.492H184.762ZM180.316 330.51C180.046 333.696 179.272 335.496 175.168 336.396C175.42 336.648 175.744 337.116 175.852 337.422C180.262 336.342 181.234 334.2 181.558 330.51H180.316ZM209.062 321.996V332.58C209.062 332.814 208.99 332.904 208.738 332.904C208.45 332.922 207.604 332.922 206.632 332.886C206.794 333.246 206.992 333.804 207.046 334.146C208.27 334.146 209.116 334.128 209.602 333.93C210.106 333.696 210.232 333.282 210.232 332.598V321.996H209.062ZM204.004 321.996V337.404H205.174V323.148H209.638V321.996H204.004ZM195.238 323.832V324.966H202.708V323.832H195.238ZM194.518 328.044V329.196H203.338V328.044H194.518ZM198.424 320.916V328.638H199.612V320.916H198.424ZM194.482 334.506L194.662 335.712C196.696 335.532 199.522 335.244 202.24 334.974L202.222 333.858C199.36 334.11 196.408 334.38 194.482 334.506ZM200.062 331.536C201.034 333.066 202.042 335.118 202.42 336.378L203.5 335.946C203.104 334.65 202.042 332.634 201.052 331.14L200.062 331.536ZM197.758 328.746C197.326 330.564 196.444 333.12 195.742 334.686L196.732 335.064C197.47 333.534 198.37 331.104 199.036 329.16L197.758 328.746ZM219.232 322.032L217.594 322.014C217.702 322.518 217.738 323.112 217.738 323.742C217.738 325.686 217.558 330.222 217.558 332.922C217.558 335.838 219.322 336.882 221.842 336.882C225.766 336.882 228.07 334.632 229.312 332.94L228.394 331.842C227.116 333.714 225.244 335.568 221.896 335.568C220.132 335.568 218.854 334.866 218.854 332.85C218.854 330.096 218.998 325.794 219.07 323.742C219.106 323.166 219.142 322.59 219.232 322.032ZM240.526 321.888L238.996 321.762C239.014 322.122 238.996 322.716 238.924 323.184C238.798 324.102 238.33 326.424 237.88 328.08C237.214 330.618 235.954 334.254 234.874 336.126L236.278 336.594C237.214 334.668 238.438 330.942 239.086 328.368C239.572 326.586 239.95 324.57 240.22 323.256C240.292 322.914 240.418 322.266 240.526 321.888ZM236.638 324.948C236.008 324.948 235.342 324.912 234.496 324.804L234.532 326.064C235.198 326.118 235.846 326.136 236.62 326.136C238.528 326.136 241.228 325.83 243.46 325.326V324.066C241.246 324.642 238.582 324.948 236.638 324.948ZM242.344 327.378V328.584C243.442 328.458 244.54 328.386 245.638 328.386C246.7 328.386 247.744 328.476 248.662 328.602L248.716 327.378C247.744 327.27 246.646 327.216 245.602 327.216C244.45 327.216 243.28 327.288 242.344 327.378ZM242.596 331.716L241.408 331.608C241.246 332.382 241.138 333.012 241.138 333.678C241.138 335.46 242.668 336.288 245.476 336.288C246.754 336.288 247.96 336.18 248.932 336.036L248.968 334.74C247.888 334.956 246.664 335.082 245.494 335.082C242.812 335.082 242.344 334.218 242.344 333.372C242.344 332.886 242.434 332.328 242.596 331.716ZM255.988 323.508L254.44 323.472C254.53 323.868 254.548 324.624 254.548 325.038C254.548 326.064 254.584 328.278 254.746 329.808C255.232 334.452 256.852 336.126 258.508 336.126C259.678 336.126 260.776 335.082 261.838 332.058L260.83 330.942C260.326 332.814 259.462 334.614 258.526 334.614C257.212 334.614 256.294 332.58 255.988 329.502C255.844 327.99 255.826 326.28 255.844 325.164C255.862 324.714 255.916 323.886 255.988 323.508ZM265.438 324.012L264.196 324.444C265.87 326.532 266.968 330.114 267.292 333.426L268.588 332.904C268.3 329.808 267.022 326.118 265.438 324.012ZM285.184 322.032H283.672C283.726 322.302 283.798 322.662 283.834 323.058C283.888 323.76 283.96 326.532 283.96 327.666C283.96 331.194 283.906 333.318 281.872 335.028C281.44 335.46 280.738 335.892 280.198 336.108L281.368 337.026C285.238 334.776 285.166 331.788 285.166 327.666C285.166 326.658 285.112 323.706 285.112 323.058C285.13 322.644 285.148 322.302 285.184 322.032ZM278.704 325.776V327.072C279.46 327.126 280.756 327.18 281.638 327.18C283.906 327.18 286.39 327.018 288.136 326.73V325.416C286.318 325.848 283.834 325.992 281.638 325.992C280.648 325.992 279.46 325.902 278.704 325.776ZM276.04 322.284L274.546 322.122C274.546 322.428 274.528 322.878 274.456 323.274C274.258 324.786 273.754 327.54 273.754 330.456C273.754 332.724 274.348 335.046 274.69 336.144L275.788 336.018C275.77 335.838 275.734 335.604 275.716 335.424C275.716 335.226 275.734 334.884 275.806 334.632C276.004 333.768 276.544 331.914 276.958 330.726L276.256 330.294C275.914 331.23 275.518 332.364 275.266 333.174C274.546 330.096 275.158 326.118 275.752 323.4C275.842 323.058 275.95 322.59 276.04 322.284ZM304.606 325.686L303.976 324.516C303.598 324.822 303.238 325.038 302.752 325.326C301.564 325.992 299.422 327 297.55 328.242C295.444 329.646 294.202 331.158 294.202 333.048C294.202 335.676 296.596 336.684 299.926 336.684C302.176 336.684 304.282 336.486 305.614 336.252V334.812C304.246 335.172 301.852 335.406 299.872 335.406C296.974 335.406 295.516 334.434 295.516 332.904C295.516 331.518 296.524 330.312 298.234 329.196C299.998 328.026 302.068 327.054 303.31 326.406C303.814 326.136 304.228 325.92 304.606 325.686ZM295.966 322.284L294.706 322.824C295.66 325.056 296.758 327.486 297.64 328.944L298.72 328.278C297.892 326.838 296.794 324.588 295.966 322.284ZM304.93 322.122L304.048 322.5C304.552 323.202 305.164 324.282 305.524 325.02L306.406 324.624C306.046 323.868 305.38 322.788 304.93 322.122ZM306.892 321.42L306.028 321.798C306.55 322.464 307.126 323.49 307.522 324.282L308.404 323.886C308.062 323.202 307.378 322.086 306.892 321.42ZM165.88 350.194V351.418H181.342V350.194H165.88ZM174.718 355.306C176.878 356.728 179.596 358.834 180.874 360.22L181.846 359.284C180.496 357.916 177.76 355.9 175.6 354.532L174.718 355.306ZM174.448 350.608C172.738 354.028 169.372 357.484 165.448 359.446C165.7 359.716 166.06 360.184 166.258 360.49C170.326 358.348 173.71 354.802 175.744 351.094L174.448 350.608ZM172.954 354.064V365.386H174.232V352.786L172.954 354.064ZM192.376 348.898V351.742H193.636V348.898H192.376ZM185.626 350.878V354.694H186.85V352.012H199.324V354.694H200.584V350.878H185.626ZM191.656 352.894C190.432 355.522 188.488 359.212 187.174 361.354L188.416 361.696C189.676 359.518 191.584 355.882 192.898 353.164L191.656 352.894ZM196.462 356.566C195.256 361.624 191.656 363.568 185.5 364.36C185.752 364.63 186.112 365.17 186.238 365.458C192.466 364.432 196.318 362.344 197.776 356.746L196.462 356.566ZM185.086 355.846V356.998H201.052V355.846H185.086ZM188.164 360.67C192.07 361.804 196.876 363.838 199.288 365.458L200.152 364.468C197.632 362.848 192.808 360.886 188.956 359.806L188.164 360.67ZM210.826 350.158L209.296 350.014C209.314 350.392 209.296 350.968 209.224 351.454C209.098 352.372 208.612 354.676 208.18 356.35C207.514 358.888 206.254 362.524 205.156 364.396L206.578 364.864C207.514 362.92 208.738 359.194 209.386 356.638C209.872 354.856 210.25 352.84 210.52 351.526C210.574 351.184 210.718 350.518 210.826 350.158ZM206.938 353.218C206.29 353.218 205.642 353.182 204.796 353.074L204.832 354.334C205.498 354.37 206.128 354.406 206.92 354.406C208.828 354.406 211.528 354.1 213.76 353.596V352.336C211.546 352.912 208.882 353.218 206.938 353.218ZM212.644 355.63V356.836C213.742 356.728 214.84 356.656 215.938 356.656C217 356.656 218.044 356.746 218.962 356.872L219.016 355.63C218.044 355.522 216.946 355.486 215.902 355.486C214.75 355.486 213.58 355.558 212.644 355.63ZM212.896 359.986L211.69 359.878C211.546 360.634 211.438 361.282 211.438 361.948C211.438 363.712 212.968 364.558 215.776 364.558C217.054 364.558 218.26 364.45 219.232 364.306L219.268 363.01C218.188 363.226 216.964 363.352 215.794 363.352C213.112 363.352 212.644 362.488 212.644 361.624C212.644 361.156 212.734 360.598 212.896 359.986ZM217.054 350.698L216.172 351.076C216.658 351.76 217.306 352.858 217.648 353.578L218.548 353.182C218.17 352.444 217.522 351.346 217.054 350.698ZM219.016 349.996L218.152 350.374C218.656 351.058 219.268 352.066 219.664 352.858L220.546 352.462C220.204 351.778 219.502 350.662 219.016 349.996ZM224.722 352.732L224.812 353.956C225.46 353.974 226.234 353.992 226.882 353.992C229.06 354.01 231.4 353.632 233.2 353.128L233.164 351.922C231.022 352.624 228.79 352.858 226.9 352.858C226.108 352.858 225.37 352.822 224.722 352.732ZM230.986 349.762L229.564 349.618C229.51 350.86 229.114 352.426 228.736 353.524C227.98 355.684 226.306 358.888 224.704 360.742L225.946 361.39C227.44 359.392 229.096 356.134 229.978 353.542C230.392 352.318 230.77 350.626 230.986 349.762ZM235.234 355.306H233.974C234.028 357.322 234.226 360.508 234.226 361.93C234.226 362.902 233.722 363.712 232.174 363.712C230.698 363.712 229.978 363.136 229.978 362.254C229.978 361.39 230.914 360.76 232.282 360.76C234.928 360.76 236.998 362.326 238.402 363.586L239.086 362.488C237.61 361.228 235.324 359.734 232.318 359.734C230.374 359.734 228.808 360.724 228.808 362.362C228.808 364.108 230.392 364.882 232.318 364.882C234.478 364.882 235.414 363.73 235.414 362.344C235.414 361.102 235.252 358.366 235.216 357.178C235.198 356.548 235.198 356.044 235.234 355.306ZM238.924 355.702L239.662 354.64C238.816 354.01 236.8 352.84 235.486 352.264L234.856 353.236C236.026 353.776 237.97 354.874 238.924 355.702ZM245.386 356.044C244.738 356.044 244.252 356.53 244.252 357.16C244.252 357.808 244.738 358.294 245.386 358.294C246.016 358.294 246.502 357.808 246.502 357.16C246.502 356.53 246.016 356.044 245.386 356.044ZM251.38 356.044C250.732 356.044 250.246 356.53 250.246 357.16C250.246 357.808 250.732 358.294 251.38 358.294C252.01 358.294 252.496 357.808 252.496 357.16C252.496 356.53 252.01 356.044 251.38 356.044ZM257.374 356.044C256.726 356.044 256.24 356.53 256.24 357.16C256.24 357.808 256.726 358.294 257.374 358.294C258.004 358.294 258.49 357.808 258.49 357.16C258.49 356.53 258.004 356.044 257.374 356.044Z" fill="#4D4D4D"/>
<path fill-rule="evenodd" clip-rule="evenodd" d="M369.085 370.325C356.469 358.723 349 344.522 349 329.5C349 292.221 391.221 284 428.5 284C465.779 284 506.5 290.721 506.5 328C506.5 365.279 488.779 399 451.5 399C444.686 399 438.025 398.531 431.578 397.642C423.849 399.294 414.646 400 404.272 400C382.716 400 369 394.418 369 372.922C369 372.049 369.029 371.183 369.085 370.325Z" fill="#F5F5F5"/>
<path d="M351.63 324.768V325.992H367.308V324.768H351.63ZM355.212 332.76V333.984H363.6V332.76H355.212ZM358.812 320.934V337.404H360.072V320.934H358.812ZM358.416 325.164C356.958 328.62 354.06 332.004 351.036 333.552C351.324 333.786 351.702 334.236 351.9 334.542C354.996 332.76 357.894 329.322 359.496 325.524L358.416 325.164ZM360.468 325.218L359.406 325.578C360.99 329.358 363.816 332.796 367.002 334.506C367.2 334.182 367.614 333.696 367.902 333.462C364.77 331.95 361.926 328.674 360.468 325.218ZM378.216 320.916V327.972H379.512V320.916H378.216ZM372.114 322.158C373.086 323.436 374.076 325.182 374.49 326.352L375.624 325.83C375.21 324.678 374.22 322.986 373.194 321.726L372.114 322.158ZM384.426 321.564C383.868 322.95 382.842 324.858 382.05 326.064L383.076 326.478C383.904 325.308 384.93 323.526 385.686 322.014L384.426 321.564ZM372.33 327.306V328.512H384.21V337.44H385.47V327.306H372.33ZM372.942 331.302V332.454H384.696V331.302H372.942ZM371.988 335.442V336.63H384.84V335.442H371.988ZM397.566 323.94V325.236C399.492 325.452 403.02 325.434 404.892 325.236V323.922C403.128 324.21 399.474 324.264 397.566 323.94ZM398.124 331.212L396.972 331.086C396.774 331.95 396.684 332.58 396.684 333.156C396.684 334.83 397.998 335.82 401.004 335.82C402.84 335.82 404.352 335.658 405.468 335.442L405.45 334.092C404.01 334.416 402.606 334.56 400.986 334.56C398.43 334.56 397.872 333.714 397.872 332.886C397.872 332.382 397.962 331.86 398.124 331.212ZM394.02 322.518L392.58 322.392C392.58 322.752 392.526 323.166 392.454 323.58C392.238 325.074 391.644 328.17 391.644 330.798C391.644 333.246 391.932 335.28 392.292 336.576L393.444 336.486C393.426 336.306 393.408 336.072 393.39 335.892C393.372 335.676 393.426 335.352 393.48 335.082C393.642 334.254 394.308 332.346 394.74 331.122L394.056 330.582C393.75 331.338 393.3 332.508 392.994 333.354C392.868 332.382 392.814 331.572 392.814 330.6C392.814 328.548 393.354 325.398 393.714 323.652C393.786 323.328 393.912 322.806 394.02 322.518ZM412.668 323.508L411.12 323.472C411.21 323.868 411.228 324.624 411.228 325.038C411.228 326.064 411.264 328.278 411.426 329.808C411.912 334.452 413.532 336.126 415.188 336.126C416.358 336.126 417.456 335.082 418.518 332.058L417.51 330.942C417.006 332.814 416.142 334.614 415.206 334.614C413.892 334.614 412.974 332.58 412.668 329.502C412.524 327.99 412.506 326.28 412.524 325.164C412.542 324.714 412.596 323.886 412.668 323.508ZM422.118 324.012L420.876 324.444C422.55 326.532 423.648 330.114 423.972 333.426L425.268 332.904C424.98 329.808 423.702 326.118 422.118 324.012ZM432.108 323.508L430.56 323.472C430.65 323.868 430.668 324.624 430.668 325.038C430.668 326.064 430.704 328.278 430.866 329.808C431.352 334.452 432.972 336.126 434.628 336.126C435.798 336.126 436.896 335.082 437.958 332.058L436.95 330.942C436.446 332.814 435.582 334.614 434.646 334.614C433.332 334.614 432.414 332.58 432.108 329.502C431.964 327.99 431.946 326.28 431.964 325.164C431.982 324.714 432.036 323.886 432.108 323.508ZM441.558 324.012L440.316 324.444C441.99 326.532 443.088 330.114 443.412 333.426L444.708 332.904C444.42 329.808 443.142 326.118 441.558 324.012ZM457.326 320.916C456.714 323.67 455.634 326.244 454.104 327.882C454.374 328.044 454.842 328.386 455.04 328.584C456.57 326.802 457.74 324.084 458.424 321.132L457.326 320.916ZM463.554 323.976V324.264C463.176 332.202 462.744 335.1 462.132 335.784C461.934 336.018 461.736 336.072 461.448 336.072C461.106 336.072 460.35 336.072 459.504 336C459.72 336.324 459.828 336.828 459.846 337.188C460.638 337.242 461.43 337.26 461.898 337.206C462.456 337.152 462.78 337.008 463.14 336.54C463.878 335.658 464.274 332.85 464.688 324.624C464.706 324.444 464.724 323.976 464.724 323.976H463.554ZM457.074 323.976L456.588 325.11H464.04V323.976H457.074ZM459.018 324.318C458.244 327.504 456.516 331.014 454.392 332.67C454.716 332.85 455.112 333.138 455.346 333.39C457.416 331.608 459.144 328.008 459.936 324.786L459.018 324.318ZM461.592 324.408C460.71 329.232 458.694 334.146 455.544 336.396C455.904 336.576 456.336 336.882 456.588 337.134C459.63 334.722 461.664 329.736 462.564 324.858L461.592 324.408ZM448.308 330.942L448.65 332.112C450.45 331.536 452.88 330.78 455.166 330.042L455.004 328.98C452.556 329.736 450 330.492 448.308 330.942ZM451.692 320.934V337.404H452.826V320.934H451.692ZM449.496 321.96C449.28 324.192 448.902 326.478 448.218 328.026C448.47 328.134 448.956 328.404 449.154 328.548C449.82 326.946 450.27 324.534 450.558 322.122L449.496 321.96ZM449.55 324.642L449.37 325.812H454.752V324.642H449.55ZM478.026 321.132V337.422H479.232V321.132H478.026ZM474.912 321.816C474.498 324.174 473.742 326.514 472.68 328.026C472.986 328.17 473.472 328.458 473.706 328.638C474.768 327.018 475.578 324.57 476.064 322.032L474.912 321.816ZM474.984 324.642L474.678 325.83H483.426V324.642H474.984ZM472.788 329.952V331.122H484.2V329.952H472.788ZM471.996 320.988C471.024 323.742 469.404 326.46 467.712 328.242C467.928 328.53 468.288 329.142 468.414 329.412C470.268 327.396 472.014 324.372 473.13 321.33L471.996 320.988ZM470.16 325.56V337.386H471.33V324.444L471.312 324.426L470.16 325.56ZM494.064 322.05L492.588 321.906C492.588 323.292 492.336 324.93 491.994 326.316C491.526 328.512 490.05 333.336 488.034 336.054L489.33 336.576C491.4 333.246 492.66 328.89 493.272 326.352C493.524 325.2 493.758 323.67 493.884 323.04C493.938 322.698 494.01 322.356 494.064 322.05ZM500.256 324.174L499.104 324.714C500.364 326.172 501.804 329.304 502.344 331.122L503.568 330.528C502.974 328.872 501.372 325.614 500.256 324.174ZM487.728 326.046L487.872 327.45C488.322 327.378 489.042 327.288 489.438 327.234C490.554 327.126 493.974 326.73 495.198 326.73C496.35 326.73 497.142 327.054 497.142 328.728C497.142 330.708 496.854 333.084 496.26 334.344C495.882 335.154 495.324 335.298 494.64 335.298C494.136 335.298 493.2 335.172 492.444 334.938L492.66 336.27C493.218 336.414 494.064 336.54 494.766 336.54C495.882 336.54 496.764 336.252 497.322 335.064C498.078 333.57 498.384 330.726 498.384 328.584C498.384 326.172 497.07 325.596 495.504 325.596C494.316 325.596 490.608 326.01 489.294 326.046C488.736 326.064 488.286 326.064 487.728 326.046ZM500.562 321.546L499.68 321.924C500.166 322.59 500.796 323.688 501.138 324.426L502.056 324.012C501.66 323.274 501.012 322.176 500.562 321.546ZM502.524 320.826L501.642 321.204C502.164 321.888 502.758 322.914 503.154 323.688L504.054 323.292C503.694 322.626 502.992 321.492 502.524 320.826ZM354.978 353.668H363.906V355.648H354.978V353.668ZM354.978 356.674H363.906V358.69H354.978V356.674ZM354.978 350.644H363.906V352.624H354.978V350.644ZM353.808 349.564V359.788H365.13V349.564H353.808ZM360.666 358.996V363.532C360.666 364.9 361.098 365.278 362.736 365.278C363.078 365.278 365.4 365.278 365.76 365.278C367.236 365.278 367.596 364.63 367.74 362.056C367.398 361.966 366.876 361.768 366.624 361.552C366.534 363.802 366.426 364.126 365.67 364.126C365.148 364.126 363.222 364.126 362.844 364.126C362.034 364.126 361.89 364.036 361.89 363.514V358.996H360.666ZM356.346 359.32C356.022 361.984 355.122 363.568 351.198 364.36C351.432 364.612 351.774 365.116 351.882 365.422C356.13 364.45 357.246 362.506 357.642 359.32H356.346ZM371.268 354.694L371.862 356.116C373.212 355.594 377.856 353.578 380.862 353.578C383.346 353.578 384.786 355.108 384.786 357.034C384.786 360.796 380.502 362.236 375.822 362.38L376.398 363.712C381.798 363.388 386.172 361.408 386.172 357.052C386.172 354.082 383.832 352.39 380.898 352.39C378.27 352.39 374.76 353.686 373.212 354.19C372.528 354.388 371.916 354.568 371.268 354.694ZM397.134 349.996L395.64 349.852C395.64 351.238 395.388 352.876 395.064 354.28C394.578 356.458 393.12 361.282 391.086 364L392.4 364.522C394.452 361.192 395.712 356.836 396.324 354.298C396.594 353.146 396.828 351.616 396.936 350.986C397.008 350.662 397.062 350.302 397.134 349.996ZM403.326 351.958L402.174 352.498C403.434 353.956 404.856 357.124 405.396 358.942L406.638 358.348C406.026 356.692 404.46 353.398 403.326 351.958ZM390.798 353.992L390.942 355.396C391.392 355.324 392.094 355.234 392.49 355.18C393.606 355.072 397.026 354.676 398.268 354.676C399.42 354.676 400.194 355 400.194 356.674C400.194 358.654 399.906 361.03 399.33 362.29C398.952 363.1 398.376 363.244 397.71 363.244C397.206 363.244 396.27 363.118 395.496 362.884L395.712 364.216C396.27 364.36 397.134 364.486 397.818 364.486C398.952 364.486 399.834 364.216 400.392 363.01C401.148 361.516 401.436 358.672 401.436 356.53C401.436 354.118 400.122 353.56 398.574 353.56C397.386 353.56 393.678 353.956 392.346 353.992C391.788 354.01 391.356 354.028 390.798 353.992ZM413.118 350.824L413.154 352.156C413.532 352.102 413.91 352.084 414.306 352.048C415.242 352.012 419.04 351.832 420.012 351.796C419.094 352.606 416.772 354.568 415.764 355.396C414.72 356.278 412.38 358.222 410.85 359.5L411.786 360.436C414.126 358.078 415.71 356.854 418.734 356.854C421.128 356.854 422.838 358.222 422.838 360.004C422.838 362.326 420.858 363.604 417.78 363.604C416.322 363.604 415.278 363.064 415.278 362.146C415.278 361.498 415.944 360.958 416.79 360.958C418.284 360.958 419.22 362.11 419.328 363.676L420.48 363.478C420.354 361.678 419.184 359.986 416.79 359.986C415.17 359.986 414.108 361.048 414.108 362.254C414.108 363.694 415.53 364.738 417.978 364.738C421.686 364.738 424.116 362.92 424.116 360.022C424.116 357.628 422.01 355.846 419.04 355.846C418.176 355.846 417.258 355.954 416.394 356.242C417.834 355.036 420.39 352.858 421.254 352.174C421.578 351.904 421.938 351.67 422.244 351.454L421.47 350.518C421.272 350.572 421.056 350.608 420.552 350.662C419.616 350.752 415.26 350.878 414.324 350.878C413.982 350.878 413.496 350.878 413.118 350.824ZM438.264 351.724L436.932 351.706C436.77 353.578 436.392 355.594 435.852 357.322C434.916 360.472 433.908 361.696 433.044 361.696C432.216 361.696 431.118 360.67 431.118 358.312C431.118 355.612 433.656 352.336 437.652 352.336C441.162 352.336 443.196 354.766 443.196 357.664C443.196 360.85 440.838 362.596 438.534 363.1C438.12 363.19 437.562 363.28 437.022 363.316L437.76 364.522C441.99 363.982 444.492 361.498 444.492 357.718C444.492 354.118 441.846 351.166 437.67 351.166C433.314 351.166 429.876 354.55 429.876 358.42C429.876 361.39 431.46 363.154 432.99 363.154C434.61 363.154 436.014 361.318 437.112 357.61C437.688 355.72 438.03 353.614 438.264 351.724ZM455.454 349.996L453.96 349.852C453.96 351.238 453.708 352.876 453.384 354.28C452.898 356.458 451.44 361.282 449.406 364L450.72 364.522C452.772 361.192 454.032 356.836 454.644 354.298C454.914 353.146 455.148 351.616 455.256 350.986C455.328 350.662 455.382 350.302 455.454 349.996ZM461.646 351.958L460.494 352.498C461.754 353.956 463.176 357.124 463.716 358.942L464.958 358.348C464.346 356.692 462.78 353.398 461.646 351.958ZM449.118 353.992L449.262 355.396C449.712 355.324 450.414 355.234 450.81 355.18C451.926 355.072 455.346 354.676 456.588 354.676C457.74 354.676 458.514 355 458.514 356.674C458.514 358.654 458.226 361.03 457.65 362.29C457.272 363.1 456.696 363.244 456.03 363.244C455.526 363.244 454.59 363.118 453.816 362.884L454.032 364.216C454.59 364.36 455.454 364.486 456.138 364.486C457.272 364.486 458.154 364.216 458.712 363.01C459.468 361.516 459.756 358.672 459.756 356.53C459.756 354.118 458.442 353.56 456.894 353.56C455.706 353.56 451.998 353.956 450.666 353.992C450.108 354.01 449.676 354.028 449.118 353.992ZM468.882 352.732L468.972 353.956C469.62 353.974 470.394 353.992 471.042 353.992C473.22 354.01 475.56 353.632 477.36 353.128L477.324 351.922C475.182 352.624 472.95 352.858 471.06 352.858C470.268 352.858 469.53 352.822 468.882 352.732ZM475.146 349.762L473.724 349.618C473.67 350.86 473.274 352.426 472.896 353.524C472.14 355.684 470.466 358.888 468.864 360.742L470.106 361.39C471.6 359.392 473.256 356.134 474.138 353.542C474.552 352.318 474.93 350.626 475.146 349.762ZM479.394 355.306H478.134C478.188 357.322 478.386 360.508 478.386 361.93C478.386 362.902 477.882 363.712 476.334 363.712C474.858 363.712 474.138 363.136 474.138 362.254C474.138 361.39 475.074 360.76 476.442 360.76C479.088 360.76 481.158 362.326 482.562 363.586L483.246 362.488C481.77 361.228 479.484 359.734 476.478 359.734C474.534 359.734 472.968 360.724 472.968 362.362C472.968 364.108 474.552 364.882 476.478 364.882C478.638 364.882 479.574 363.73 479.574 362.344C479.574 361.102 479.412 358.366 479.376 357.178C479.358 356.548 479.358 356.044 479.394 355.306ZM483.084 355.702L483.822 354.64C482.976 354.01 480.96 352.84 479.646 352.264L479.016 353.236C480.186 353.776 482.13 354.874 483.084 355.702ZM494.604 359.716H495.918C495.414 356.962 499.788 356.368 499.788 353.632C499.788 351.616 498.204 350.302 495.684 350.302C493.722 350.302 492.354 351.13 491.148 352.372L492.03 353.182C493.092 352.066 494.28 351.526 495.54 351.526C497.448 351.526 498.33 352.48 498.33 353.74C498.33 355.846 494.028 356.674 494.604 359.716ZM495.306 364.072C495.882 364.072 496.386 363.658 496.386 362.974C496.386 362.29 495.882 361.84 495.306 361.84C494.712 361.84 494.226 362.29 494.226 362.974C494.226 363.658 494.712 364.072 495.306 364.072Z" fill="#4D4D4D"/>
<path fill-rule="evenodd" clip-rule="evenodd" d="M713.828 339.111C714.275 335.962 714.5 332.752 714.5 329.5C714.5 292.221 672.279 284 635 284C597.721 284 567.5 314.221 567.5 351.5C567.5 388.779 591.221 398.46 628.5 398.46C638.113 398.46 646.944 397.543 654.981 395.837C661.754 398.493 669.847 400 679.228 400C700.784 400 718.5 373.496 718.5 352C718.5 345.918 716.781 341.837 713.828 339.111Z" fill="#F5F5F5"/>
<path d="M548.138 325.722V326.658H554.456V325.722H548.138ZM550.748 326.01V329.61H551.864V326.01H550.748ZM547.814 329.61L547.994 330.618C549.776 330.312 552.188 329.916 554.546 329.52L554.474 328.566C552.026 328.962 549.488 329.358 547.814 329.61ZM555.554 325.596V327.396C555.554 328.602 555.104 329.844 552.638 330.744C552.854 330.906 553.286 331.356 553.412 331.59C556.094 330.546 556.688 328.926 556.688 327.432V325.596H555.554ZM560.702 325.596V329.25C560.702 330.222 560.774 330.492 561.044 330.708C561.278 330.906 561.638 330.978 561.998 330.978C562.16 330.978 562.628 330.978 562.826 330.978C563.096 330.978 563.438 330.942 563.618 330.852C563.852 330.744 564.014 330.546 564.104 330.294C564.194 330.024 564.248 329.268 564.284 328.584C563.996 328.512 563.636 328.332 563.42 328.134C563.402 328.818 563.384 329.34 563.348 329.574C563.294 329.772 563.24 329.898 563.15 329.952C563.078 330.006 562.916 330.006 562.772 330.006C562.61 330.006 562.358 330.006 562.25 330.006C562.106 330.006 562.016 329.988 561.944 329.952C561.872 329.88 561.854 329.664 561.854 329.34V325.596H560.702ZM547.958 332.022V333.03H564.014V332.022H547.958ZM555.356 330.564V337.386H556.526V330.564H555.356ZM554.87 332.526C553.322 334.056 550.244 335.388 547.598 335.964C547.85 336.198 548.192 336.648 548.372 336.954C551.018 336.27 554.132 334.74 555.806 332.958L554.87 332.526ZM557.012 332.562L556.094 332.994C557.804 334.74 560.918 336.234 563.582 336.9C563.744 336.594 564.104 336.108 564.356 335.874C561.692 335.316 558.596 334.056 557.012 332.562ZM549.884 322.32V323.328H555.734V322.32H549.884ZM556.85 322.32V323.328H564.176V322.32H556.85ZM550.28 320.844C549.722 322.248 548.75 323.634 547.688 324.57C547.976 324.714 548.462 325.056 548.678 325.236C549.704 324.228 550.748 322.698 551.414 321.15L550.28 320.844ZM557.318 320.844C556.742 322.302 555.662 323.652 554.456 324.552C554.744 324.696 555.266 325.002 555.5 325.164C556.652 324.21 557.822 322.716 558.47 321.132L557.318 320.844ZM550.946 323.112C551.342 323.742 551.756 324.606 551.918 325.164L552.926 324.858C552.746 324.318 552.314 323.472 551.918 322.842L550.946 323.112ZM558.506 323.094C559.082 323.724 559.676 324.624 559.928 325.2L560.954 324.84C560.684 324.246 560.072 323.382 559.496 322.77L558.506 323.094ZM557.012 327.954C557.93 328.512 559.01 329.358 559.586 329.934L560.288 329.178C559.748 328.62 558.614 327.828 557.696 327.306L557.012 327.954ZM556.004 325.596V326.496H561.314V325.596H556.004ZM571.484 320.844C570.584 323.31 569.072 325.65 567.344 327.162C567.65 327.324 568.154 327.72 568.388 327.918C570.08 326.316 571.682 323.832 572.69 321.168L571.484 320.844ZM571.088 323.13L570.494 324.282H582.734V323.13H571.088ZM570.278 327.18V332.652H571.466V328.314H582.32V327.18H570.278ZM567.272 332.04V333.21H583.544V332.04H567.272ZM575.696 323.742V337.422H576.92V323.742H575.696ZM586.586 330.564V331.59H595.37V330.564H586.586ZM586.658 324.282V325.29H595.316V324.282H586.658ZM589.952 328.962C589.196 330.618 588.08 332.832 587.27 334.182L588.332 334.56C589.142 333.156 590.276 330.96 591.086 329.214L589.952 328.962ZM592.67 331.14C592.112 334.2 590.402 335.73 586.622 336.396C586.838 336.648 587.09 337.098 587.162 337.404C591.302 336.504 593.21 334.758 593.804 331.302L592.67 331.14ZM593.768 321.294C593.444 321.996 592.85 323.058 592.382 323.706L593.21 324.12C593.714 323.508 594.308 322.59 594.812 321.762L593.768 321.294ZM590.456 320.898V329.178H591.572V320.898H590.456ZM587.378 321.762C587.882 322.5 588.368 323.508 588.53 324.138L589.502 323.706C589.322 323.058 588.818 322.086 588.314 321.366L587.378 321.762ZM590.474 324.714C589.664 326.136 588.008 327.612 586.496 328.26C586.73 328.494 587.018 328.908 587.162 329.178C588.728 328.332 590.402 326.73 591.284 325.182L590.474 324.714ZM591.428 325.362L590.834 325.884C591.59 326.388 593.516 327.81 594.146 328.404L594.83 327.522C594.308 327.126 592.076 325.704 591.428 325.362ZM596.72 324.246V325.38H603.092V324.246H596.72ZM597.206 320.898C596.702 324.102 595.73 327.126 594.218 329.034C594.488 329.232 595.01 329.628 595.208 329.844C596.756 327.756 597.818 324.57 598.43 321.096L597.206 320.898ZM600.806 324.876C600.032 330.654 598.268 334.326 593.966 336.396C594.2 336.648 594.56 337.17 594.686 337.458C599.204 335.1 601.13 331.248 602.03 325.02L600.806 324.876ZM597.35 325.272L596.252 325.452C597.152 330.942 598.88 335.352 602.39 337.422C602.588 337.08 602.966 336.63 603.254 336.396C599.888 334.614 598.142 330.312 597.35 325.272ZM588.26 333.894C590.366 334.74 592.526 335.928 593.768 336.954L594.596 336.072C593.3 335.082 591.068 333.894 588.89 333.066L588.26 333.894ZM612.812 322.05L611.336 321.906C611.336 323.292 611.084 324.93 610.742 326.316C610.274 328.512 608.798 333.336 606.782 336.054L608.078 336.576C610.148 333.246 611.408 328.89 612.02 326.352C612.272 325.2 612.506 323.67 612.632 323.04C612.686 322.698 612.758 322.356 612.812 322.05ZM619.004 324.174L617.852 324.714C619.112 326.172 620.552 329.304 621.092 331.122L622.316 330.528C621.722 328.872 620.12 325.614 619.004 324.174ZM606.476 326.046L606.62 327.45C607.07 327.378 607.79 327.288 608.186 327.234C609.302 327.126 612.722 326.73 613.946 326.73C615.098 326.73 615.89 327.054 615.89 328.728C615.89 330.708 615.602 333.084 615.008 334.344C614.63 335.154 614.072 335.298 613.388 335.298C612.884 335.298 611.948 335.172 611.192 334.938L611.408 336.27C611.966 336.414 612.812 336.54 613.514 336.54C614.63 336.54 615.512 336.252 616.07 335.064C616.826 333.57 617.132 330.726 617.132 328.584C617.132 326.172 615.818 325.596 614.252 325.596C613.064 325.596 609.356 326.01 608.042 326.046C607.484 326.064 607.034 326.064 606.476 326.046ZM619.31 321.546L618.428 321.924C618.914 322.59 619.544 323.688 619.886 324.426L620.804 324.012C620.408 323.274 619.76 322.176 619.31 321.546ZM621.272 320.826L620.39 321.204C620.912 321.888 621.506 322.914 621.902 323.688L622.802 323.292C622.442 322.626 621.74 321.492 621.272 320.826ZM632.198 321.87V322.932H640.226V321.87H632.198ZM632.882 331.572V332.67H641.216V331.572H632.882ZM631.712 335.784V336.864H642.026V335.784H631.712ZM639.902 321.87V322.086C638.642 325.596 635.366 327.846 631.838 328.836C632.072 329.088 632.396 329.538 632.54 329.844C636.302 328.62 639.704 326.298 641.18 322.176L640.352 321.816L640.118 321.87H639.902ZM634.448 322.824L633.386 323.184C634.844 326.532 637.688 328.818 641.468 329.808C641.648 329.502 641.99 329.034 642.224 328.8C638.534 327.972 635.744 325.83 634.448 322.824ZM636.41 328.89V336.468H637.58V328.89H636.41ZM628.274 320.916C627.824 322.104 626.96 323.832 626.294 324.858L627.122 325.236C627.824 324.264 628.688 322.662 629.336 321.348L628.274 320.916ZM630.29 322.968C629.336 324.912 627.626 327.648 626.294 329.286L627.05 329.7C628.4 328.116 630.11 325.488 631.316 323.418L630.29 322.968ZM625.43 324.624C626.42 325.488 627.536 326.748 628.04 327.576L628.706 326.676C628.202 325.866 627.068 324.678 626.06 323.832L625.43 324.624ZM629.642 327.126C630.362 328.296 631.064 329.88 631.298 330.87L632.234 330.456C631.982 329.466 631.244 327.936 630.506 326.766L629.642 327.126ZM625.358 329.016L625.466 330.114C627.086 330.024 629.246 329.898 631.388 329.754L631.406 328.746C629.138 328.872 626.906 328.962 625.358 329.016ZM630.128 331.32C630.596 332.364 631.064 333.75 631.244 334.65L632.18 334.326C632 333.426 631.514 332.058 631.01 331.05L630.128 331.32ZM626.42 331.158C626.186 332.742 625.826 334.362 625.214 335.46C625.484 335.568 625.952 335.784 626.168 335.928C626.762 334.776 627.23 333.048 627.482 331.356L626.42 331.158ZM628.346 329.43V337.458H629.426V329.43H628.346ZM647.102 328.908L647.66 330.24C648.74 329.808 652.736 328.134 654.986 328.134C656.876 328.134 658.118 329.304 658.118 330.87C658.118 333.894 654.644 335.01 650.774 335.118L651.296 336.36C655.994 336.072 659.414 334.398 659.414 330.888C659.414 328.476 657.578 326.982 655.076 326.982C652.97 326.982 650.018 328.062 648.74 328.476C648.182 328.638 647.624 328.8 647.102 328.908ZM664.278 324.12L664.422 325.542C666.348 325.146 671.1 324.678 673.062 324.48C671.334 325.47 669.588 327.792 669.588 330.654C669.588 334.686 673.422 336.414 676.662 336.522L677.13 335.208C674.232 335.1 670.848 333.984 670.848 330.366C670.848 328.242 672.396 325.416 675.042 324.552C675.942 324.282 677.526 324.246 678.57 324.264V322.986C677.382 323.022 675.744 323.112 673.764 323.292C670.434 323.562 666.96 323.922 665.862 324.03C665.502 324.066 664.962 324.102 664.278 324.12ZM686.49 322.824L686.526 324.156C686.904 324.102 687.282 324.084 687.678 324.048C688.614 324.012 692.412 323.832 693.384 323.796C692.466 324.606 690.144 326.568 689.136 327.396C688.092 328.278 685.752 330.222 684.222 331.5L685.158 332.436C687.498 330.078 689.082 328.854 692.106 328.854C694.5 328.854 696.21 330.222 696.21 332.004C696.21 334.326 694.23 335.604 691.152 335.604C689.694 335.604 688.65 335.064 688.65 334.146C688.65 333.498 689.316 332.958 690.162 332.958C691.656 332.958 692.592 334.11 692.7 335.676L693.852 335.478C693.726 333.678 692.556 331.986 690.162 331.986C688.542 331.986 687.48 333.048 687.48 334.254C687.48 335.694 688.902 336.738 691.35 336.738C695.058 336.738 697.488 334.92 697.488 332.022C697.488 329.628 695.382 327.846 692.412 327.846C691.548 327.846 690.63 327.954 689.766 328.242C691.206 327.036 693.762 324.858 694.626 324.174C694.95 323.904 695.31 323.67 695.616 323.454L694.842 322.518C694.644 322.572 694.428 322.608 693.924 322.662C692.988 322.752 688.632 322.878 687.696 322.878C687.354 322.878 686.868 322.878 686.49 322.824ZM715.236 322.032H713.724C713.778 322.302 713.85 322.662 713.886 323.058C713.94 323.76 714.012 326.532 714.012 327.666C714.012 331.194 713.958 333.318 711.924 335.028C711.492 335.46 710.79 335.892 710.25 336.108L711.42 337.026C715.29 334.776 715.218 331.788 715.218 327.666C715.218 326.658 715.164 323.706 715.164 323.058C715.182 322.644 715.2 322.302 715.236 322.032ZM708.756 325.776V327.072C709.512 327.126 710.808 327.18 711.69 327.18C713.958 327.18 716.442 327.018 718.188 326.73V325.416C716.37 325.848 713.886 325.992 711.69 325.992C710.7 325.992 709.512 325.902 708.756 325.776ZM706.092 322.284L704.598 322.122C704.598 322.428 704.58 322.878 704.508 323.274C704.31 324.786 703.806 327.54 703.806 330.456C703.806 332.724 704.4 335.046 704.742 336.144L705.84 336.018C705.822 335.838 705.786 335.604 705.768 335.424C705.768 335.226 705.786 334.884 705.858 334.632C706.056 333.768 706.596 331.914 707.01 330.726L706.308 330.294C705.966 331.23 705.57 332.364 705.318 333.174C704.598 330.096 705.21 326.118 705.804 323.4C705.894 323.058 706.002 322.59 706.092 322.284ZM734.658 325.686L734.028 324.516C733.65 324.822 733.29 325.038 732.804 325.326C731.616 325.992 729.474 327 727.602 328.242C725.496 329.646 724.254 331.158 724.254 333.048C724.254 335.676 726.648 336.684 729.978 336.684C732.228 336.684 734.334 336.486 735.666 336.252V334.812C734.298 335.172 731.904 335.406 729.924 335.406C727.026 335.406 725.568 334.434 725.568 332.904C725.568 331.518 726.576 330.312 728.286 329.196C730.05 328.026 732.12 327.054 733.362 326.406C733.866 326.136 734.28 325.92 734.658 325.686ZM726.018 322.284L724.758 322.824C725.712 325.056 726.81 327.486 727.692 328.944L728.772 328.278C727.944 326.838 726.846 324.588 726.018 322.284ZM734.982 322.122L734.1 322.5C734.604 323.202 735.216 324.282 735.576 325.02L736.458 324.624C736.098 323.868 735.432 322.788 734.982 322.122ZM736.944 321.42L736.08 321.798C736.602 322.464 737.178 323.49 737.574 324.282L738.456 323.886C738.114 323.202 737.43 322.086 736.944 321.42ZM567.094 354.154V355.378H582.88V354.154H567.094ZM575.77 354.64L574.582 354.928C575.914 359.752 578.398 363.55 582.268 365.386C582.466 365.044 582.862 364.54 583.168 364.27C579.442 362.704 576.976 359.032 575.77 354.64ZM574.348 348.934C574.312 353.146 574.438 361.084 566.734 364.414C567.076 364.648 567.454 365.08 567.652 365.386C575.536 361.804 575.59 353.506 575.644 348.934H574.348ZM586.57 352.48V353.65H602.248V352.48H586.57ZM590.296 354.532L589.162 354.82C590.872 361.174 594.382 364.432 601.816 365.422C601.978 365.08 602.284 364.576 602.536 364.288C595.282 363.442 591.772 360.382 590.296 354.532ZM595.714 349.186C595.66 357.538 595.984 362.344 586.642 364.252C586.894 364.522 587.218 364.99 587.326 365.314C597.028 363.244 596.974 357.826 597.01 349.186H595.714ZM606.046 356.8V358.006H621.652V356.8H606.046ZM607.252 351.706V352.948H620.608V351.706H607.252ZM614.272 357.124L613.138 357.376C614.452 361.588 617.062 364.252 621.4 365.368C621.58 365.026 621.94 364.522 622.21 364.252C617.998 363.334 615.406 360.868 614.272 357.124ZM613.12 348.916V354.46C613.12 358.15 612.382 362.038 605.56 364.36C605.812 364.612 606.172 365.134 606.316 365.422C613.552 362.938 614.398 358.618 614.398 354.46V348.916H613.12ZM626.062 352.732L626.152 353.956C626.8 353.974 627.574 353.992 628.222 353.992C630.4 354.01 632.74 353.632 634.54 353.128L634.504 351.922C632.362 352.624 630.13 352.858 628.24 352.858C627.448 352.858 626.71 352.822 626.062 352.732ZM632.326 349.762L630.904 349.618C630.85 350.86 630.454 352.426 630.076 353.524C629.32 355.684 627.646 358.888 626.044 360.742L627.286 361.39C628.78 359.392 630.436 356.134 631.318 353.542C631.732 352.318 632.11 350.626 632.326 349.762ZM636.574 355.306H635.314C635.368 357.322 635.566 360.508 635.566 361.93C635.566 362.902 635.062 363.712 633.514 363.712C632.038 363.712 631.318 363.136 631.318 362.254C631.318 361.39 632.254 360.76 633.622 360.76C636.268 360.76 638.338 362.326 639.742 363.586L640.426 362.488C638.95 361.228 636.664 359.734 633.658 359.734C631.714 359.734 630.148 360.724 630.148 362.362C630.148 364.108 631.732 364.882 633.658 364.882C635.818 364.882 636.754 363.73 636.754 362.344C636.754 361.102 636.592 358.366 636.556 357.178C636.538 356.548 636.538 356.044 636.574 355.306ZM640.264 355.702L641.002 354.64C640.156 354.01 638.14 352.84 636.826 352.264L636.196 353.236C637.366 353.776 639.31 354.874 640.264 355.702ZM653.764 351.724L652.432 351.706C652.27 353.578 651.892 355.594 651.352 357.322C650.416 360.472 649.408 361.696 648.544 361.696C647.716 361.696 646.618 360.67 646.618 358.312C646.618 355.612 649.156 352.336 653.152 352.336C656.662 352.336 658.696 354.766 658.696 357.664C658.696 360.85 656.338 362.596 654.034 363.1C653.62 363.19 653.062 363.28 652.522 363.316L653.26 364.522C657.49 363.982 659.992 361.498 659.992 357.718C659.992 354.118 657.346 351.166 653.17 351.166C648.814 351.166 645.376 354.55 645.376 358.42C645.376 361.39 646.96 363.154 648.49 363.154C650.11 363.154 651.514 361.318 652.612 357.61C653.188 355.72 653.53 353.614 653.764 351.724ZM670.954 349.996L669.46 349.852C669.46 351.238 669.208 352.876 668.884 354.28C668.398 356.458 666.94 361.282 664.906 364L666.22 364.522C668.272 361.192 669.532 356.836 670.144 354.298C670.414 353.146 670.648 351.616 670.756 350.986C670.828 350.662 670.882 350.302 670.954 349.996ZM677.146 351.958L675.994 352.498C677.254 353.956 678.676 357.124 679.216 358.942L680.458 358.348C679.846 356.692 678.28 353.398 677.146 351.958ZM664.618 353.992L664.762 355.396C665.212 355.324 665.914 355.234 666.31 355.18C667.426 355.072 670.846 354.676 672.088 354.676C673.24 354.676 674.014 355 674.014 356.674C674.014 358.654 673.726 361.03 673.15 362.29C672.772 363.1 672.196 363.244 671.53 363.244C671.026 363.244 670.09 363.118 669.316 362.884L669.532 364.216C670.09 364.36 670.954 364.486 671.638 364.486C672.772 364.486 673.654 364.216 674.212 363.01C674.968 361.516 675.256 358.672 675.256 356.53C675.256 354.118 673.942 353.56 672.394 353.56C671.206 353.56 667.498 353.956 666.166 353.992C665.608 354.01 665.176 354.028 664.618 353.992ZM684.382 352.732L684.472 353.956C685.12 353.974 685.894 353.992 686.542 353.992C688.72 354.01 691.06 353.632 692.86 353.128L692.824 351.922C690.682 352.624 688.45 352.858 686.56 352.858C685.768 352.858 685.03 352.822 684.382 352.732ZM690.646 349.762L689.224 349.618C689.17 350.86 688.774 352.426 688.396 353.524C687.64 355.684 685.966 358.888 684.364 360.742L685.606 361.39C687.1 359.392 688.756 356.134 689.638 353.542C690.052 352.318 690.43 350.626 690.646 349.762ZM694.894 355.306H693.634C693.688 357.322 693.886 360.508 693.886 361.93C693.886 362.902 693.382 363.712 691.834 363.712C690.358 363.712 689.638 363.136 689.638 362.254C689.638 361.39 690.574 360.76 691.942 360.76C694.588 360.76 696.658 362.326 698.062 363.586L698.746 362.488C697.27 361.228 694.984 359.734 691.978 359.734C690.034 359.734 688.468 360.724 688.468 362.362C688.468 364.108 690.052 364.882 691.978 364.882C694.138 364.882 695.074 363.73 695.074 362.344C695.074 361.102 694.912 358.366 694.876 357.178C694.858 356.548 694.858 356.044 694.894 355.306ZM698.584 355.702L699.322 354.64C698.476 354.01 696.46 352.84 695.146 352.264L694.516 353.236C695.686 353.776 697.63 354.874 698.584 355.702ZM705.046 356.044C704.398 356.044 703.912 356.53 703.912 357.16C703.912 357.808 704.398 358.294 705.046 358.294C705.676 358.294 706.162 357.808 706.162 357.16C706.162 356.53 705.676 356.044 705.046 356.044ZM711.04 356.044C710.392 356.044 709.906 356.53 709.906 357.16C709.906 357.808 710.392 358.294 711.04 358.294C711.67 358.294 712.156 357.808 712.156 357.16C712.156 356.53 711.67 356.044 711.04 356.044ZM717.034 356.044C716.386 356.044 715.9 356.53 715.9 357.16C715.9 357.808 716.386 358.294 717.034 358.294C717.664 358.294 718.15 357.808 718.15 357.16C718.15 356.53 717.664 356.044 717.034 356.044Z" fill="#4D4D4D"/>
</svg>
