<svg width="38" height="48" viewBox="0 0 38 48" fill="none" xmlns="http://www.w3.org/2000/svg">
<g clip-path="url(#clip0_509_3156)">
<path d="M2.58566 35.459L14.1477 38.5663L13.1319 42.3592C12.9283 43.1191 12.5771 43.8315 12.0984 44.4556C11.6197 45.0797 11.0228 45.6034 10.3417 45.9967C9.66074 46.39 8.90899 46.6452 8.1294 46.7478C7.3498 46.8504 6.55762 46.7984 5.79813 46.5946C5.03863 46.3909 4.3267 46.0395 3.70292 45.5605C3.07915 45.0815 2.55577 44.4843 2.16269 43.8029C1.76961 43.1215 1.51451 42.3693 1.41197 41.5893C1.30943 40.8093 1.36146 40.0167 1.56506 39.2568L2.58566 35.459Z" fill="#F1DFC4"/>
<path d="M2.25975 36.6314L12.3395 39.3448L13.7975 39.7387L12.947 38.241C12.2666 40.7939 11.9749 44.0325 9.19986 45.2044C8.31623 45.5747 7.34245 45.6735 6.40252 45.4881C5.46259 45.3028 4.59905 44.8418 3.92187 44.1638C3.33276 43.5528 2.91379 42.7982 2.7066 41.9749C2.49941 41.1517 2.51122 40.2885 2.74089 39.4712C3.06165 38.241 3.39699 37.0107 3.7129 35.7804C4.11628 34.2681 1.76888 33.6214 1.37036 35.1337C1.03987 36.364 0.704532 37.5942 0.39835 38.8245C0.0888525 39.9689 0.0597863 41.1711 0.313602 42.3292C0.567419 43.4872 1.09663 44.5669 1.85636 45.4767C2.71148 46.476 3.82239 47.2234 5.06987 47.6389C6.31735 48.0544 7.65434 48.1222 8.93743 47.8351C10.2083 47.5339 11.3749 46.8966 12.3154 45.9898C13.2558 45.0831 13.9355 43.9402 14.2835 42.6806C14.6382 41.4212 14.9639 40.152 15.2992 38.8877C15.3804 38.5777 15.3374 38.2482 15.1794 37.9694C15.0215 37.6906 14.7611 37.4845 14.4536 37.3949L4.35442 34.6815L2.89641 34.2876C1.39466 33.8791 0.748281 36.2375 2.25975 36.6314Z" fill="#AF7055"/>
<path d="M4.38351 31.0872C3.18194 29.5815 2.49439 27.7301 2.42179 25.8047C2.34919 23.8792 2.89535 21.9812 3.98012 20.3892C4.91237 19.0561 6.18833 18.0008 7.67225 17.3355C9.15618 16.6702 10.7926 16.4198 12.4074 16.6109C14.046 16.8257 15.5935 17.4886 16.8797 18.5267C18.1659 19.5648 19.141 20.9379 19.6975 22.4948C20.2635 24.1314 20.3454 25.8966 19.9334 27.5787C19.5213 29.2607 18.6327 30.788 17.3744 31.9771C16.6701 32.633 15.8663 33.173 14.993 33.5769C14.7565 33.648 14.5396 33.7727 14.3592 33.9414C14.1788 34.1101 14.0398 34.3182 13.9529 34.5495C13.8946 34.7245 13.8557 34.9093 13.8071 35.0844L12.9663 38.2208L14.4632 37.3747L4.36408 34.6613L2.90608 34.2674L3.75658 35.7603L4.69456 32.2543C5.10281 30.742 2.75055 30.0952 2.35202 31.6075L1.41404 35.1136C1.33275 35.4242 1.37557 35.7543 1.53344 36.0339C1.6913 36.3135 1.95179 36.5206 2.25968 36.6113L12.3394 39.3441L13.7974 39.738C14.1079 39.819 14.4377 39.7753 14.7165 39.6163C14.9953 39.4574 15.2009 39.1956 15.2894 38.887L16.2614 35.1719L15.4109 36.0229C17.1727 35.3154 18.7313 34.1813 19.9469 32.7223C21.1624 31.2633 21.9969 29.5252 22.3754 27.6638C22.7063 25.9151 22.627 24.1133 22.1438 22.4003C21.6605 20.6874 20.7865 19.1101 19.5905 17.7925C18.3678 16.4715 16.849 15.4599 15.1591 14.8411C13.4692 14.2222 11.6566 14.0138 9.87048 14.233C8.11781 14.4548 6.44051 15.0806 4.97058 16.0611C3.50065 17.0416 2.2782 18.3501 1.39945 19.8835C0.279974 21.9176 -0.198412 24.2429 0.0271061 26.554C0.252624 28.8651 1.17152 31.0539 2.66307 32.8329C2.89227 33.0592 3.20129 33.1861 3.52328 33.1861C3.84527 33.1861 4.15432 33.0592 4.38351 32.8329C4.61236 32.6001 4.7406 32.2866 4.7406 31.9601C4.7406 31.6335 4.61236 31.32 4.38351 31.0872Z" fill="#AF7055"/>
<path d="M21.146 0.880386L20.174 5.1839L20.033 5.79661C19.9532 6.10786 19.9973 6.43796 20.1559 6.71735C20.3146 6.99674 20.5754 7.2036 20.8835 7.29433C21.194 7.37404 21.5232 7.32981 21.8017 7.171C22.0801 7.01219 22.2859 6.75124 22.3756 6.44335L23.3476 2.13984L23.4885 1.52713C23.5682 1.21651 23.524 0.887061 23.3652 0.60846C23.2065 0.329859 22.9457 0.123953 22.638 0.0342758C22.3281 -0.0469107 21.9989 -0.00392086 21.7202 0.1541C21.4416 0.312122 21.2355 0.572695 21.146 0.880386Z" fill="#AF7055"/>
<path d="M31.1478 5.48018L27.6534 8.97649L27.1674 9.46276C26.9436 9.69329 26.8184 10.002 26.8184 10.3235C26.8184 10.6449 26.9436 10.9536 27.1674 11.1842C27.3984 11.407 27.7068 11.5315 28.0277 11.5315C28.3485 11.5315 28.6569 11.407 28.8879 11.1842L32.3822 7.68786L32.8682 7.20159C33.091 6.97047 33.2154 6.66194 33.2154 6.34089C33.2154 6.01984 33.091 5.7113 32.8682 5.48018C32.6373 5.25734 32.3289 5.13281 32.008 5.13281C31.6871 5.13281 31.3788 5.25734 31.1478 5.48018Z" fill="#AF7055"/>
<path d="M32.3336 17.9625L36.071 17.306L36.6056 17.2087C36.9128 17.1259 37.1749 16.9249 37.3346 16.6495C37.4952 16.3661 37.5388 16.031 37.4561 15.7159C37.3633 15.41 37.1569 15.1514 36.8794 14.9931C36.6019 14.8348 36.2743 14.789 35.964 14.8649L32.2267 15.5262L31.6921 15.6186C31.3855 15.7029 31.124 15.9035 30.9631 16.1778C30.8027 16.4631 30.7591 16.7996 30.8416 17.1163C30.9343 17.422 31.1409 17.6802 31.4186 17.8377C31.6963 17.9952 32.0239 18.0399 32.3336 17.9625Z" fill="#AF7055"/>
</g>
<defs>
<clipPath id="clip0_509_3156">
<rect width="37.5" height="48" fill="white"/>
</clipPath>
</defs>
</svg>
