<svg width="58" height="58" viewBox="0 0 58 58" fill="none" xmlns="http://www.w3.org/2000/svg">
<path d="M32.625 52.5625H25.375" stroke="white" stroke-width="2" stroke-linecap="round" stroke-linejoin="round"/>
<path d="M22.2093 49.5415H3.62516C2.98422 49.5415 2.36957 49.7961 1.91636 50.2493C1.46314 50.7025 1.2085 51.3172 1.2085 51.9582V53.1665C1.2085 54.1279 1.59039 55.0499 2.27021 55.7298C2.95003 56.4096 3.87209 56.7915 4.8335 56.7915H53.1668C54.1282 56.7915 55.0503 56.4096 55.7301 55.7298C56.4099 55.0499 56.7918 54.1279 56.7918 53.1665V51.9582C56.7918 51.3172 56.5372 50.7025 56.084 50.2493C55.6308 49.7961 55.0161 49.5415 54.3752 49.5415H35.791" stroke="white" stroke-width="2" stroke-linecap="round" stroke-linejoin="round"/>
<path d="M53.1665 30.2085V44.7085" stroke="white" stroke-width="2" stroke-linecap="round" stroke-linejoin="round"/>
<path d="M4.8335 44.7085V19.3335C4.8335 18.3721 5.21539 17.4501 5.89521 16.7702C6.57503 16.0904 7.49709 15.7085 8.4585 15.7085H15.7085" stroke="white" stroke-width="2" stroke-linecap="round" stroke-linejoin="round"/>
<path d="M20.5415 8.4585V6.04183C20.5415 4.75995 21.0507 3.53057 21.9572 2.62414C22.8636 1.71772 24.093 1.2085 25.3748 1.2085H51.9582C53.2401 1.2085 54.4694 1.71772 55.3759 2.62414C56.2823 3.53057 56.7915 4.75995 56.7915 6.04183V20.5418C56.7915 21.8237 56.2823 23.0531 55.3759 23.9595C54.4694 24.8659 53.2401 25.3752 51.9582 25.3752H39.1982C39.0246 25.3737 38.8527 25.4096 38.6942 25.4805C38.5358 25.5514 38.3944 25.6556 38.2798 25.786L34.4011 30.2085L30.9573 25.8343C30.8435 25.6903 30.6984 25.5741 30.533 25.4946C30.3676 25.415 30.1863 25.3742 30.0028 25.3752H25.3748C24.093 25.3752 22.8636 24.8659 21.9572 23.9595C21.0507 23.0531 20.5415 21.8237 20.5415 20.5418V13.2918" stroke="white" stroke-width="2" stroke-linecap="round" stroke-linejoin="round"/>
<path d="M30.2085 9.6665H47.1252" stroke="white" stroke-width="2" stroke-linecap="round" stroke-linejoin="round"/>
<path d="M30.2085 16.9165H42.2918" stroke="white" stroke-width="2" stroke-linecap="round" stroke-linejoin="round"/>
</svg>
