<svg width="348" height="162" viewBox="0 0 348 162" fill="none" xmlns="http://www.w3.org/2000/svg">
<path d="M337.392 73.632L335.616 73.608C335.4 76.104 334.896 78.792 334.176 81.096C332.928 85.296 331.584 86.928 330.432 86.928C329.328 86.928 327.864 85.56 327.864 82.416C327.864 78.816 331.248 74.448 336.576 74.448C341.256 74.448 343.968 77.688 343.968 81.552C343.968 85.8 340.824 88.128 337.752 88.8C337.2 88.92 336.456 89.04 335.736 89.088L336.72 90.696C342.36 89.976 345.696 86.664 345.696 81.624C345.696 76.824 342.168 72.888 336.6 72.888C330.792 72.888 326.208 77.4 326.208 82.56C326.208 86.52 328.32 88.872 330.36 88.872C332.52 88.872 334.392 86.424 335.856 81.48C336.624 78.96 337.08 76.152 337.392 73.632Z" fill="#796B45"/>
<path d="M23.81 67.02H20.24C20.36 67.8 20.42 68.7 20.42 69.81C20.42 70.98 20.42 73.65 20.42 74.97C20.42 80.19 20.03 82.56 17.93 84.93C16.1 86.97 13.61 88.14 10.76 88.83L13.22 91.44C15.41 90.72 18.47 89.34 20.42 87.09C22.61 84.57 23.72 82.02 23.72 75.12C23.72 73.86 23.72 71.16 23.72 69.81C23.72 68.7 23.75 67.8 23.81 67.02ZM9.89 67.26H6.47C6.56 67.89 6.59 68.94 6.59 69.48C6.59 70.56 6.59 78.06 6.59 79.53C6.59 80.43 6.5 81.48 6.44 81.99H9.89C9.83 81.39 9.8 80.31 9.8 79.56C9.8 78.12 9.8 70.56 9.8 69.48C9.8 68.67 9.83 67.89 9.89 67.26ZM57.05 68.28L53.42 67.32C52.58 71.61 50.57 76.65 47.75 80.13C45.05 83.46 40.94 86.46 36.38 88.02L39.05 90.78C43.49 88.98 47.75 85.5 50.39 82.17C52.88 79.02 54.74 74.55 55.94 71.22C56.24 70.38 56.63 69.18 57.05 68.28ZM85.94 69.48L83.84 70.35C84.89 71.79 85.82 73.5 86.6 75.21L88.79 74.25C88.1 72.84 86.75 70.62 85.94 69.48ZM89.87 67.89L87.8 68.85C88.85 70.26 89.81 71.88 90.68 73.59L92.81 72.57C92.09 71.19 90.71 69 89.87 67.89ZM66.35 81.84L69.17 84.75C69.68 84.06 70.34 83.07 71 82.23C72.29 80.58 74.63 77.43 75.95 75.78C76.91 74.61 77.51 74.52 78.59 75.57C79.76 76.77 82.49 79.71 84.23 81.72C86.09 83.85 88.7 86.94 90.77 89.49L93.38 86.7C91.07 84.24 88.04 80.94 86.03 78.81C84.26 76.89 81.8 74.34 79.88 72.54C77.72 70.5 76.16 70.83 74.48 72.81C72.5 75.15 70.01 78.3 68.63 79.71C67.76 80.55 67.16 81.15 66.35 81.84ZM100.16 69.99V84.66H103.01V72.78H121.64V84.51H124.61V69.99H100.16ZM101.66 80.1V82.89H123.32V80.1H101.66ZM110.81 64.68V92.52H113.81V64.68H110.81ZM131.27 69.99V72.75H158.36V69.99H131.27ZM136.07 88.32V91.05H153.44V88.32H136.07ZM143.24 64.68V80.31H146.33V64.68H143.24ZM134.45 78.75V92.55H137.36V81.48H152.15V92.43H155.21V78.75H134.45ZM190.37 71.04L188 69.12C187.49 69.3 186.65 69.39 185.69 69.39C182.6 69.39 170.03 69.39 168.35 69.39C167.3 69.39 165.92 69.27 165.11 69.15V72.48C165.71 72.42 167.15 72.3 168.35 72.3C170.3 72.3 182.54 72.3 185.21 72.3C183.62 75.12 179.99 79.62 175.55 82.71L177.89 84.87C182.93 81.21 187.19 75.87 189.5 72.12C189.71 71.79 190.01 71.43 190.37 71.04ZM175.49 85.35C177.41 87.3 179.87 90.03 181.04 91.62L183.8 89.43C182.45 87.78 180.11 85.29 178.19 83.4C175.97 81.27 172.7 78.6 171.23 77.49L168.74 79.5C170.42 80.7 173.72 83.55 175.49 85.35ZM201.59 67.68L199.37 70.02C201.59 71.52 205.34 74.76 206.87 76.38L209.27 73.95C207.56 72.21 203.69 69.09 201.59 67.68ZM198.5 87.72L200.48 90.84C205.16 90 208.97 88.23 212 86.37C216.65 83.49 220.37 79.38 222.5 75.51L220.67 72.21C218.87 76.08 215.12 80.58 210.26 83.55C207.38 85.29 203.48 87 198.5 87.72ZM236.12 66.66L234.41 69.24C236.27 70.29 239.45 72.39 241.01 73.53L242.78 70.92C241.37 69.9 237.98 67.68 236.12 66.66ZM231.14 88.05L232.91 91.14C235.64 90.6 239.84 89.16 242.9 87.42C247.73 84.6 251.93 80.76 254.6 76.68L252.77 73.5C250.37 77.76 246.32 81.75 241.28 84.6C238.13 86.37 234.47 87.48 231.14 88.05ZM231.56 73.44L229.85 76.05C231.74 77.04 234.95 79.11 236.51 80.22L238.25 77.58C236.84 76.56 233.42 74.46 231.56 73.44ZM265.94 73.35V76.23C266.57 76.2 268.37 76.14 269.3 76.14C271.28 76.14 278.81 76.14 279.89 76.14C279.89 77.07 279.89 86.91 279.89 90.03C279.89 90.63 279.89 91.53 279.86 91.95H282.83C282.83 91.47 282.8 90.63 282.8 90.15C282.8 87.66 282.8 76.29 282.8 75.15C282.8 74.55 282.8 73.77 282.83 73.41C282.38 73.44 281.48 73.47 280.79 73.47C278.33 73.47 271.31 73.47 269.3 73.47C268.37 73.47 266.6 73.41 265.94 73.35ZM266.66 80.43V83.28C267.29 83.25 268.52 83.22 269.6 83.22C271.1 83.22 280.43 83.22 281.3 83.22V80.52C280.46 80.52 271.1 80.52 269.6 80.52C268.52 80.52 267.32 80.49 266.66 80.43ZM265.61 87.84V90.81C266.09 90.78 267.23 90.72 268.13 90.72C269.9 90.72 279.77 90.72 281.33 90.72V87.96C280.01 87.96 269.9 87.96 268.13 87.96C267.08 87.96 266.09 87.9 265.61 87.84ZM298.79 67.68L296.57 70.02C298.79 71.52 302.54 74.76 304.07 76.38L306.47 73.95C304.76 72.21 300.89 69.09 298.79 67.68ZM295.7 87.72L297.68 90.84C302.36 90 306.17 88.23 309.2 86.37C313.85 83.49 317.57 79.38 319.7 75.51L317.87 72.21C316.07 76.08 312.32 80.58 307.46 83.55C304.58 85.29 300.68 87 295.7 87.72Z" fill="#796B45"/>
<g clip-path="url(#clip0_509_3226)">
<path d="M323.778 122.378L331.726 124.514L331.028 127.122C330.888 127.644 330.647 128.134 330.318 128.563C329.988 128.992 329.578 129.352 329.11 129.623C328.642 129.893 328.125 130.068 327.589 130.139C327.053 130.21 326.508 130.174 325.986 130.034C325.464 129.894 324.975 129.652 324.546 129.323C324.117 128.993 323.757 128.583 323.487 128.114C323.217 127.646 323.041 127.129 322.971 126.593C322.9 126.056 322.936 125.511 323.076 124.989L323.778 122.378Z" fill="#F1DFC4"/>
<path d="M323.553 123.184L330.483 125.049L331.485 125.32L330.901 124.291C330.433 126.046 330.232 128.272 328.325 129.078C327.717 129.332 327.048 129.4 326.401 129.273C325.755 129.146 325.161 128.829 324.696 128.362C324.291 127.942 324.003 127.424 323.86 126.858C323.718 126.292 323.726 125.698 323.884 125.136C324.105 124.291 324.335 123.445 324.552 122.599C324.83 121.559 323.216 121.115 322.942 122.154C322.715 123 322.484 123.846 322.273 124.692C322.061 125.478 322.041 126.305 322.215 127.101C322.39 127.897 322.754 128.64 323.276 129.265C323.864 129.952 324.628 130.466 325.485 130.752C326.343 131.037 327.262 131.084 328.144 130.887C329.018 130.679 329.82 130.241 330.466 129.618C331.113 128.994 331.58 128.209 331.82 127.343C332.063 126.477 332.287 125.604 332.518 124.735C332.574 124.522 332.544 124.296 332.436 124.104C332.327 123.912 332.148 123.77 331.936 123.709L324.993 121.843L323.991 121.573C322.958 121.292 322.514 122.913 323.553 123.184Z" fill="#AF7055"/>
<path d="M325.014 119.373C324.188 118.338 323.715 117.065 323.665 115.741C323.615 114.417 323.991 113.113 324.737 112.018C325.378 111.102 326.255 110.376 327.275 109.919C328.295 109.461 329.42 109.289 330.53 109.42C331.657 109.568 332.721 110.024 333.605 110.738C334.489 111.451 335.16 112.395 335.542 113.466C335.931 114.591 335.988 115.804 335.704 116.961C335.421 118.117 334.81 119.167 333.945 119.985C333.461 120.436 332.908 120.807 332.308 121.085C332.145 121.133 331.996 121.219 331.872 121.335C331.748 121.451 331.653 121.594 331.593 121.753C331.553 121.874 331.526 122.001 331.493 122.121L330.915 124.277L331.944 123.696L325.001 121.83L323.998 121.559L324.583 122.586L325.228 120.175C325.508 119.136 323.891 118.691 323.617 119.731L322.972 122.141C322.917 122.355 322.946 122.582 323.054 122.774C323.163 122.966 323.342 123.108 323.554 123.171L330.484 125.05L331.486 125.32C331.699 125.376 331.926 125.346 332.118 125.237C332.309 125.127 332.451 124.947 332.512 124.735L333.18 122.181L332.595 122.766C333.806 122.28 334.878 121.5 335.714 120.497C336.549 119.494 337.123 118.299 337.383 117.019C337.611 115.817 337.556 114.578 337.224 113.401C336.892 112.223 336.291 111.139 335.469 110.233C334.628 109.325 333.584 108.629 332.422 108.204C331.26 107.778 330.014 107.635 328.786 107.786C327.581 107.938 326.428 108.368 325.418 109.042C324.407 109.717 323.567 110.616 322.962 111.67C322.193 113.069 321.864 114.667 322.019 116.256C322.174 117.845 322.806 119.35 323.831 120.573C323.989 120.729 324.201 120.816 324.422 120.816C324.644 120.816 324.856 120.729 325.014 120.573C325.171 120.413 325.259 120.198 325.259 119.973C325.259 119.749 325.171 119.533 325.014 119.373Z" fill="#AF7055"/>
<path d="M336.538 98.6054L335.87 101.564L335.773 101.985C335.718 102.199 335.748 102.426 335.857 102.618C335.966 102.81 336.146 102.953 336.358 103.015C336.571 103.07 336.797 103.039 336.989 102.93C337.18 102.821 337.322 102.642 337.383 102.43L338.052 99.4713L338.148 99.05C338.203 98.8365 338.173 98.61 338.064 98.4184C337.955 98.2269 337.775 98.0853 337.564 98.0237C337.351 97.9679 337.124 97.9974 336.933 98.1061C336.741 98.2147 336.6 98.3939 336.538 98.6054Z" fill="#AF7055"/>
<path d="M343.414 101.768L341.012 104.172L340.677 104.506C340.524 104.665 340.438 104.877 340.438 105.098C340.438 105.319 340.524 105.531 340.677 105.69C340.836 105.843 341.048 105.928 341.269 105.928C341.49 105.928 341.701 105.843 341.86 105.69L344.263 103.286L344.597 102.952C344.75 102.793 344.835 102.581 344.835 102.36C344.835 102.139 344.75 101.927 344.597 101.768C344.438 101.615 344.226 101.529 344.005 101.529C343.785 101.529 343.573 101.615 343.414 101.768Z" fill="#AF7055"/>
<path d="M344.23 110.35L346.799 109.898L347.167 109.831C347.378 109.774 347.558 109.636 347.668 109.447C347.778 109.252 347.808 109.022 347.751 108.805C347.688 108.595 347.546 108.417 347.355 108.308C347.164 108.199 346.939 108.168 346.726 108.22L344.156 108.675L343.789 108.738C343.578 108.796 343.398 108.934 343.287 109.123C343.177 109.319 343.147 109.55 343.204 109.768C343.268 109.978 343.41 110.155 343.601 110.264C343.791 110.372 344.017 110.403 344.23 110.35Z" fill="#AF7055"/>
</g>
<path d="M236.52 137.24L235.06 137.12C235 138.06 234.72 139.24 234.28 140.34C233.62 141.96 232.32 144.3 229.38 147.14L230.62 148.04C231.28 147.24 231.86 146.52 232.42 145.98C233.36 145.12 234.64 144.5 235.94 144.5C237.02 144.5 237.82 145.06 237.84 146.2C237.86 147.22 237.84 149.34 237.78 150.42H239.16C239.14 149.2 239.1 146.86 239.1 145.84C239.1 144.26 237.9 143.36 236.38 143.36C235.48 143.36 234.3 143.66 233.5 144.16C234.34 143.08 235.12 141.7 235.62 140.44C236.14 139.1 236.36 138.04 236.52 137.24ZM229.8 139.44V140.8C230.9 140.88 232.2 140.92 233.08 140.92C235.64 140.92 239.3 140.76 242.1 140.32V138.98C239.28 139.48 235.86 139.66 233.16 139.66C232.24 139.66 230.88 139.6 229.8 139.44ZM244.98 144.12L244.38 142.8C243.86 143.06 243.4 143.26 242.84 143.52C241.48 144.16 239.8 144.8 237.9 145.8C235.52 147.02 233.1 148.5 233.1 150.86C233.1 153.26 235.4 153.86 238.2 153.86C239.9 153.86 242.1 153.7 243.64 153.5L243.68 152.08C241.92 152.38 239.8 152.54 238.26 152.54C236.18 152.54 234.52 152.32 234.52 150.68C234.52 149.24 236 148.12 238.02 147.08C239.96 146.06 241.88 145.3 243.32 144.74C243.84 144.52 244.48 144.28 244.98 144.12ZM253.404 134.28V136.008H262.748V134.28H253.404ZM253.404 139.752V141.416H262.748V139.752H253.404ZM253.404 145.352V147.08H262.748V145.352H253.404ZM267.004 141.32V143.208H279.196V141.32H267.004ZM255.1 129.032V130.76H260.444V129.032H255.1ZM265.02 127.816V129.64H277.66V127.816H265.02ZM264.572 147.304V149.224H279.772V147.304H264.572ZM271.452 137.96V155.368H273.5V137.96H271.452ZM257.468 135.112V146.12H259.068V135.112H257.468ZM276.924 127.816V128.104C276.7 133.192 276.412 135.08 275.996 135.592C275.804 135.816 275.516 135.88 275.068 135.848C274.62 135.848 273.372 135.848 272.06 135.72C272.316 136.2 272.508 136.968 272.572 137.544C273.916 137.608 275.26 137.608 275.9 137.544C276.732 137.512 277.212 137.32 277.628 136.808C278.3 136.072 278.588 134.024 278.844 128.648C278.876 128.36 278.876 127.816 278.876 127.816H276.924ZM267.292 138.28C266.716 141 265.692 143.688 264.284 145.544C264.764 145.736 265.628 146.184 266.012 146.44C267.356 144.52 268.508 141.608 269.18 138.632L267.292 138.28ZM255.164 126.152C254.172 130.12 252.38 133.96 250.076 136.424C250.556 136.712 251.42 137.384 251.74 137.704C254.012 135.016 255.964 130.92 257.148 126.6L255.164 126.152ZM252.572 134.28V142.792C252.572 146.408 252.348 151.176 250.172 154.6C250.588 154.792 251.388 155.272 251.74 155.56C253.98 152.04 254.364 146.696 254.364 142.824V134.28H252.572ZM262.14 134.28V153.064C262.14 153.512 261.98 153.64 261.532 153.672C261.084 153.672 259.612 153.672 257.884 153.64C258.172 154.152 258.492 154.984 258.556 155.464C260.86 155.464 262.14 155.464 262.94 155.144C263.708 154.824 263.996 154.184 263.996 153.064V134.28H262.14ZM269.692 128.392C269.212 132.04 267.996 135.272 264.028 136.968C264.476 137.32 264.988 137.992 265.244 138.44C269.66 136.456 271.1 132.776 271.708 128.392H269.692ZM259.932 129.032V129.384C259.452 130.984 258.524 133.32 257.692 134.728C258.108 134.888 258.748 135.272 259.1 135.56C260.06 134.056 261.244 131.752 261.948 129.736L260.668 128.936L260.348 129.032H259.932ZM299.964 134.024H310.94V140.808H299.964V134.024ZM297.884 132.136V142.696H313.116V132.136H297.884ZM310.172 126.12C309.66 127.72 308.668 130.088 307.868 131.496L309.66 132.136C310.492 130.76 311.516 128.648 312.38 126.824L310.172 126.12ZM298.652 126.952C299.676 128.584 300.7 130.792 301.084 132.232L303.036 131.496C302.62 130.056 301.596 127.912 300.54 126.312L298.652 126.952ZM306.62 142.216V152.424C306.62 154.632 307.132 155.304 309.212 155.304C309.66 155.304 311.516 155.304 311.996 155.304C313.916 155.304 314.428 154.088 314.62 149.192C314.044 149 313.212 148.68 312.732 148.296C312.668 152.712 312.54 153.352 311.74 153.352C311.324 153.352 309.82 153.352 309.5 153.352C308.796 153.352 308.668 153.224 308.668 152.424V142.216H306.62ZM301.404 142.248C301.084 147.432 300.124 151.72 295.484 154.056C295.996 154.44 296.636 155.176 296.924 155.72C301.98 153 303.132 148.2 303.58 142.248H301.404ZM286.332 136.008V137.768H295.324V136.008H286.332ZM286.524 127.336V129.096H295.292V127.336H286.524ZM286.332 140.36V142.088H295.324V140.36H286.332ZM284.828 131.592V133.416H296.412V131.592H284.828ZM287.388 144.744V146.536H293.596V152.2H287.388V153.992H295.516V144.744H287.388ZM286.3 144.744V155.496H288.188V144.744H286.3Z" fill="#796B45"/>
<path fill-rule="evenodd" clip-rule="evenodd" d="M13 108C10.2386 108 8 110.239 8 113V151.522C8 154.283 10.2386 156.522 13 156.522H21.3453L18.0036 162L29.7978 156.522H214.5C217.261 156.522 219.5 154.283 219.5 151.522V113C219.5 110.239 217.261 108 214.5 108H13Z" fill="#C8B395"/>
<path fill-rule="evenodd" clip-rule="evenodd" d="M13 108C10.2386 108 8 110.239 8 113V151.522C8 154.283 10.2386 156.522 13 156.522H21.3453L18.0036 162L29.7978 156.522H214.5C217.261 156.522 219.5 154.283 219.5 151.522V113C219.5 110.239 217.261 108 214.5 108H13Z" fill="url(#paint0_linear_509_3226)" fill-opacity="0.2"/>
<path d="M71.731 122.545L69.4954 122.337C69.4954 124.335 69.1183 126.696 68.6335 128.719C67.9063 131.858 65.7246 138.811 62.681 142.729L64.6472 143.481C67.7177 138.682 69.6032 132.403 70.5189 128.745C70.923 127.085 71.2731 124.88 71.4347 123.972C71.5425 123.505 71.6233 122.986 71.731 122.545ZM80.9965 125.373L79.2727 126.151C81.1581 128.252 83.286 132.818 84.094 135.439L85.9525 134.583C85.0367 132.196 82.6934 127.448 80.9965 125.373ZM62.25 128.304L62.4655 130.328C63.1388 130.224 64.1893 130.094 64.7819 130.017C66.4518 129.861 71.5694 129.29 73.4279 129.29C75.1517 129.29 76.3099 129.757 76.3099 132.17C76.3099 135.024 75.8789 138.448 75.017 140.264C74.4514 141.432 73.5895 141.639 72.5929 141.639C71.8387 141.639 70.4381 141.458 69.2799 141.12L69.6032 143.04C70.4381 143.248 71.731 143.429 72.7545 143.429C74.4514 143.429 75.7712 143.04 76.6062 141.302C77.7374 139.149 78.1684 135.05 78.1684 131.962C78.1684 128.486 76.2021 127.682 73.8858 127.682C72.1081 127.682 66.5595 128.252 64.5664 128.304C63.7314 128.33 63.085 128.356 62.25 128.304Z" fill="white"/>
<path d="M98.1808 122.493L97.6691 124.257C99.743 124.802 105.534 125.943 108.066 126.281L108.524 124.517C106.153 124.283 100.443 123.193 98.1808 122.493ZM97.4266 127.137L95.4335 126.877C95.2449 129.498 94.5716 135.024 94.0329 137.358L95.8375 137.774C95.9991 137.384 96.2146 136.943 96.6186 136.528C98.531 134.297 101.494 132.974 105.103 132.974C107.931 132.974 110.005 134.505 110.005 136.632C110.005 140.212 105.857 142.677 97.292 141.691L97.8576 143.585C107.662 144.337 111.998 141.302 111.998 136.684C111.998 133.649 109.251 131.34 105.238 131.34C101.925 131.34 98.908 132.377 96.2954 134.634C96.5917 132.948 97.0765 128.953 97.4266 127.137Z" fill="white"/>
<path d="M120.914 126.488L121.048 128.252C122.018 128.278 123.176 128.304 124.146 128.304C127.405 128.33 130.906 127.785 133.6 127.059L133.546 125.321C130.341 126.333 127.001 126.67 124.173 126.67C122.988 126.67 121.883 126.618 120.914 126.488ZM130.287 122.208L128.159 122C128.078 123.79 127.486 126.047 126.92 127.63C125.789 130.743 123.284 135.361 120.887 138.033L122.745 138.967C124.981 136.087 127.459 131.392 128.779 127.656C129.398 125.892 129.964 123.453 130.287 122.208ZM136.643 130.198H134.758C134.839 133.104 135.135 137.696 135.135 139.745C135.135 141.146 134.381 142.314 132.065 142.314C129.856 142.314 128.779 141.483 128.779 140.212C128.779 138.967 130.179 138.059 132.226 138.059C136.186 138.059 139.283 140.316 141.384 142.132L142.407 140.55C140.199 138.733 136.778 136.58 132.28 136.58C129.371 136.58 127.028 138.007 127.028 140.368C127.028 142.884 129.398 144 132.28 144C135.512 144 136.913 142.34 136.913 140.342C136.913 138.552 136.67 134.608 136.617 132.896C136.59 131.988 136.59 131.262 136.643 130.198ZM142.165 130.769L143.269 129.238C142.003 128.33 138.987 126.644 137.021 125.814L136.078 127.215C137.829 127.993 140.738 129.575 142.165 130.769Z" fill="white"/>
<path d="M153.154 124.724L150.838 124.672C150.973 125.243 151 126.333 151 126.929C151 128.408 151.054 131.599 151.296 133.804C152.023 140.498 154.447 142.91 156.925 142.91C158.676 142.91 160.319 141.406 161.908 137.047L160.4 135.439C159.646 138.137 158.353 140.731 156.952 140.731C154.986 140.731 153.612 137.8 153.154 133.363C152.939 131.184 152.912 128.719 152.939 127.111C152.966 126.462 153.047 125.269 153.154 124.724ZM167.295 125.45L165.437 126.073C167.942 129.083 169.585 134.245 170.069 139.019L172.009 138.267C171.578 133.804 169.665 128.486 167.295 125.45Z" fill="white"/>
<path d="M180.143 143.092C181.14 143.092 181.948 142.34 181.948 141.276C181.948 140.186 181.14 139.46 180.143 139.46C179.173 139.46 178.392 140.186 178.392 141.276C178.392 142.34 179.173 143.092 180.143 143.092Z" fill="white"/>
<path d="M189.794 143.092C190.791 143.092 191.599 142.34 191.599 141.276C191.599 140.186 190.791 139.46 189.794 139.46C188.825 139.46 188.043 140.186 188.043 141.276C188.043 142.34 188.825 143.092 189.794 143.092Z" fill="white"/>
<path d="M199.445 143.092C200.442 143.092 201.25 142.34 201.25 141.276C201.25 140.186 200.442 139.46 199.445 139.46C198.476 139.46 197.695 140.186 197.695 141.276C197.695 142.34 198.476 143.092 199.445 143.092Z" fill="white"/>
<path d="M46.0674 139.718L45.774 139.891L46.0265 140.119L47.6711 141.606L47.8143 141.736L47.9758 141.63C50.7039 139.842 52.8484 137.784 54.0111 135.454C55.1791 133.114 55.3469 130.516 54.1504 127.685C52.3395 123.282 47.7033 122.027 43.816 123.625C41.238 124.685 38.5521 126.858 36.533 130.47C36.376 129.991 36.2221 129.513 36.0726 129.041C36.1936 128.23 36.3514 127.34 36.4902 126.706L36.5325 126.512L36.3538 126.427L35.2284 125.889L35.0896 125.822C34.5345 123.93 34.1342 122.415 34.0108 121.75L33.9567 121.458L33.6782 121.561L31.2964 122.444L31.0096 122.55L31.1708 122.81C31.5411 123.407 31.8177 124.078 32.0687 124.689C32.1882 124.98 32.5229 125.958 32.9632 127.265C32.7202 127.411 32.4691 127.559 32.2153 127.707C31.0967 128.355 29.9457 128.973 29.2546 129.321C29.2089 129.343 29.164 129.364 29.1196 129.384C28.5838 129.634 28.1391 129.841 27.6063 130.031L27.3347 130.128L27.469 130.383L28.5026 132.347L28.6249 132.58L28.851 132.446C29.7839 131.895 30.9325 131.232 31.9644 130.637C32.6403 130.247 33.2661 129.885 33.7482 129.603C33.8448 129.891 33.943 130.184 34.0421 130.479C34.2322 131.045 34.4256 131.619 34.617 132.185C34.1225 134.901 32.7273 140.563 31.9878 143.12L31.9342 143.305L32.1 143.404L34.0242 144.55L34.3167 144.724L34.3954 144.393C34.934 142.127 35.6137 139.052 36.1306 136.545C36.2507 136.873 36.3577 137.156 36.448 137.383L36.4482 137.383C36.7981 138.258 37.0898 138.991 37.3557 139.659C37.9829 141.235 38.4666 142.45 39.2326 144.313C39.4099 144.745 39.6697 145.531 39.7904 145.904L39.8736 146.16L40.1233 146.058L42.25 145.183L42.4944 145.083L42.3805 144.844C42.2634 144.599 42.1252 144.322 41.9897 144.052L41.9645 144.001C41.8373 143.747 41.7137 143.5 41.6111 143.287C40.6374 141.252 40.0541 139.826 39.251 137.863C39.1099 137.518 38.962 137.157 38.8041 136.772C38.3917 135.769 37.9594 134.617 37.5301 133.404C39.0652 130.032 41.3239 127.257 44.4567 125.969C48.1167 124.464 50.8839 126.631 51.7161 128.655L51.7166 128.656C52.6901 130.986 52.3577 133.104 51.2494 134.963C50.1347 136.833 48.2314 138.444 46.0674 139.718Z" fill="white" stroke="white" stroke-width="0.5"/>
<path d="M26.716 13.776H23.284C23.404 14.424 23.452 15.192 23.524 16.224C23.716 20.184 23.764 26.76 23.764 30.072C23.764 30.744 23.548 31.056 22.948 31.056C22.132 31.056 20.836 30.96 19.732 30.792L20.02 33.912C21.388 34.008 22.708 34.056 24.172 34.056C25.996 34.056 26.884 33.168 26.86 31.632C26.812 26.784 26.644 20.184 26.572 16.224C26.548 15.456 26.596 14.544 26.716 13.776ZM13.012 17.784V20.976C13.852 20.928 14.86 20.88 15.748 20.88C17.068 20.88 28.804 20.88 29.74 20.88C30.388 20.88 31.324 20.904 32.068 20.928V17.76C31.492 17.832 30.364 17.952 29.596 17.952C28.42 17.952 17.332 17.952 15.652 17.952C14.836 17.952 13.684 17.856 13.012 17.784ZM11.716 29.208L13.924 31.704C18.052 29.52 22.3 25.752 24.244 22.848L24.22 20.28H22.66C20.932 23.112 16.732 26.808 11.716 29.208ZM49.684 14.76L47.404 17.184C49.156 18.384 52.18 21 53.428 22.344L55.876 19.848C54.46 18.384 51.34 15.888 49.684 14.76ZM46.66 30.744L48.7 33.912C52.06 33.336 55.156 32.016 57.604 30.552C61.468 28.224 64.66 24.912 66.46 21.648L64.612 18.288C63.076 21.528 59.956 25.176 55.852 27.624C53.524 28.992 50.428 30.216 46.66 30.744ZM82.852 14.592V17.712C83.548 17.64 84.556 17.616 85.348 17.616C86.764 17.616 93.196 17.616 94.516 17.616C95.404 17.616 96.532 17.664 97.156 17.712V14.592C96.508 14.688 95.332 14.736 94.564 14.736C93.172 14.736 86.86 14.736 85.348 14.736C84.532 14.736 83.5 14.688 82.852 14.592ZM99.196 21.576L97.06 20.232C96.724 20.4 96.076 20.496 95.284 20.496C93.652 20.496 85.06 20.496 83.428 20.496C82.66 20.496 81.652 20.424 80.62 20.328V23.448C81.628 23.376 82.828 23.352 83.428 23.352C85.564 23.352 93.796 23.352 94.996 23.352C94.588 24.672 93.82 26.184 92.548 27.48C90.7 29.376 87.844 30.936 84.22 31.704L86.62 34.416C89.692 33.528 92.764 31.92 95.188 29.208C96.964 27.24 97.996 24.888 98.74 22.56C98.812 22.32 99.028 21.888 99.196 21.576ZM112.588 23.688L114.076 26.712C117.868 25.584 121.756 23.784 124.468 22.176C127.3 20.472 130.228 18.216 132.412 16.008L129.82 13.56C128.26 15.456 125.524 17.856 123.076 19.368C120.388 21.024 116.884 22.584 112.588 23.688ZM122.572 20.928V30.936C122.572 31.992 122.476 33.504 122.38 34.08H126.196C126.028 33.48 125.98 31.992 125.98 30.936V20.112L122.572 20.928ZM150.484 14.76L148.204 17.184C149.956 18.384 152.98 21 154.228 22.344L156.676 19.848C155.26 18.384 152.14 15.888 150.484 14.76ZM147.46 30.744L149.5 33.912C152.86 33.336 155.956 32.016 158.404 30.552C162.268 28.224 165.46 24.912 167.26 21.648L165.412 18.288C163.876 21.528 160.756 25.176 156.652 27.624C154.324 28.992 151.228 30.216 147.46 30.744ZM186.436 13.848V35.136H189.052V16.344H198.124V34.944H200.86V13.848H186.436ZM189.676 19.296V21.384H197.572V19.296H189.676ZM187.78 31.224V33.744H199.444V31.224H187.78ZM192.436 16.848V24.552H194.668V16.848H192.436ZM192.364 25.464H194.812V27.96H192.364V25.464ZM190.3 23.472V29.952H196.996V23.472H190.3ZM183.46 12.696C182.38 16.128 180.532 19.584 178.516 21.792C178.972 22.536 179.692 24.216 179.908 24.912C182.404 22.08 184.708 17.64 186.1 13.488L183.46 12.696ZM181.492 19.272V35.184H184.228V16.584L184.204 16.56L181.492 19.272ZM225.628 15.552V29.136H228.436V15.552H225.628ZM231.292 13.104V31.656C231.292 32.112 231.1 32.256 230.644 32.256C230.14 32.28 228.604 32.28 227.02 32.208C227.428 33.024 227.884 34.368 228.028 35.184C230.236 35.184 231.82 35.088 232.828 34.632C233.812 34.152 234.148 33.36 234.148 31.68V13.104H231.292ZM217.132 24.096V26.616H222.652V24.096H217.132ZM221.38 24.096V24.528C221.188 29.88 220.972 31.92 220.564 32.4C220.348 32.64 220.108 32.688 219.748 32.688C219.316 32.688 218.38 32.688 217.372 32.592C217.804 33.264 218.092 34.32 218.14 35.088C219.292 35.112 220.396 35.112 221.044 35.016C221.812 34.896 222.364 34.704 222.844 34.08C223.516 33.264 223.756 30.96 223.996 25.152C224.02 24.816 224.044 24.096 224.044 24.096H221.38ZM216.508 16.272H221.044V19.56H216.508V16.272ZM213.916 13.752V22.128H223.804V13.752H213.916ZM216.34 21.336C216.172 25.56 215.836 30.312 212.452 33.096C213.148 33.552 213.964 34.464 214.396 35.184C218.284 31.872 218.908 26.424 219.172 21.336H216.34ZM258.004 19.608V22.2H266.596V19.608H258.004ZM258.028 25.272V27.888H266.62V25.272H258.028ZM258.004 30.96V33.552H266.62V30.96H258.004ZM256.636 13.92V34.968H259.396V16.632H265.06V34.824H267.964V13.92H256.636ZM246.556 17.568V20.304H255.796V17.568H246.556ZM250.036 12.624V35.16H252.796V12.624H250.036ZM249.868 19.416C249.22 22.488 247.684 26.232 245.956 28.32C246.388 29.04 247.06 30.216 247.324 31.032C249.22 28.536 250.804 23.928 251.596 20.016L249.868 19.416ZM252.58 21.528L251.26 22.848C252.124 24.048 253.828 26.664 254.524 28.08L256.156 25.752C255.628 25.104 253.276 22.2 252.58 21.528ZM294.004 19.344C296.14 20.64 299.044 22.56 300.388 23.808L302.284 21.648C300.82 20.424 297.844 18.624 295.78 17.448L294.004 19.344ZM295.66 22.8H294.172V26.448C294.172 28.08 292.948 31.224 288.34 32.856C288.844 33.408 289.612 34.56 289.924 35.208C293.236 33.96 295.156 31.368 295.636 29.904C296.092 31.368 297.82 34.056 300.844 35.208C301.228 34.512 301.996 33.408 302.524 32.736C298.132 31.104 297.1 28.056 297.1 26.448V22.8H295.66ZM294.364 12.624C294.196 17.4 293.812 20.184 288.796 21.72C289.396 22.272 290.116 23.304 290.38 24C296.188 22.008 296.956 18.36 297.196 12.624H294.364ZM290.836 14.04C290.596 15.552 289.924 17.16 289.036 18.024L291.292 18.984C292.324 17.904 292.948 16.128 293.188 14.52L290.836 14.04ZM290.572 24.48C290.236 26.112 289.492 27.816 288.46 28.704L290.836 29.928C292.012 28.752 292.756 26.808 293.068 24.984L290.572 24.48ZM299.308 13.896C298.948 15.096 298.228 16.776 297.604 17.856L299.74 18.648C300.412 17.664 301.276 16.176 302.092 14.76L299.308 13.896ZM299.452 24.288C299.02 25.584 298.204 27.36 297.532 28.488L299.764 29.304C300.508 28.272 301.444 26.664 302.284 25.176L299.452 24.288ZM280.948 19.992V22.152H288.196V19.992H280.948ZM281.02 13.368V15.552H288.124V13.368H281.02ZM280.948 23.256V25.44H288.196V23.256H280.948ZM279.796 16.608V18.888H288.988V16.608H279.796ZM282.196 26.592V28.872H285.772V31.608H282.196V33.888H288.22V26.592H282.196ZM280.9 26.592V34.848H283.324V26.592H280.9ZM314.908 31.632L315.292 34.44C319.612 34.272 325.948 33.984 331.828 33.648L331.924 31.008C325.876 31.272 319.204 31.512 314.908 31.632ZM314.788 24.48V27.168H334.756V24.48H314.788ZM319.06 19.872V22.512H330.316V19.872H319.06ZM320.668 26.232C320.068 28.248 318.916 30.912 317.932 32.664L320.452 33.504C321.532 31.896 322.828 29.4 323.956 27.144L320.668 26.232ZM326.62 28.704C328.684 30.624 330.988 33.36 331.996 35.184L334.66 33.576C333.556 31.752 331.324 29.232 329.164 27.384L326.62 28.704ZM324.676 15.432C326.716 18.216 330.772 21.24 334.372 22.92C334.9 22.056 335.548 21.024 336.244 20.304C332.428 18.936 328.612 16.2 326.068 12.672H323.02C321.244 15.504 317.404 18.936 313.3 20.736C313.9 21.36 314.668 22.44 315.004 23.136C318.988 21.24 322.732 18.168 324.676 15.432Z" fill="#DC5753"/>
<line x1="4" y1="1" x2="348" y2="0.999971" stroke="#DF7D67" stroke-width="2"/>
<line x1="4" y1="44" x2="348" y2="44" stroke="#DF7D67" stroke-width="2"/>
<defs>
<linearGradient id="paint0_linear_509_3226" x1="114.2" y1="148.95" x2="114.2" y2="114.3" gradientUnits="userSpaceOnUse">
<stop stop-color="#654132"/>
<stop offset="1" stop-color="#AF7055" stop-opacity="0"/>
</linearGradient>
<clipPath id="clip0_509_3226">
<rect width="25.7812" height="33" fill="white" transform="translate(322 98)"/>
</clipPath>
</defs>
</svg>
