<svg width="310" height="182" viewBox="0 0 310 182" fill="none" xmlns="http://www.w3.org/2000/svg">
<path d="M70.9796 1.07585C47.9354 1.9337 35.1286 12.6364 44.5094 22.8897C53.8902 33.143 37.6982 33.5923 28.2766 34.8587C18.8958 36.125 13.3489 48.9519 21.8732 54.5075C30.3975 60.063 28.6844 68.1922 17.5906 69.4585C6.49684 70.7249 -0.926212 75.4634 0.0934383 87.4324C1.35781 102.383 29.9896 96.4194 25.2992 105.815C20.6088 115.21 28.2766 125.913 42.7964 127.629C57.3162 129.344 62.8631 124.647 59.8858 130.202C55.1954 141.313 77.4237 149.361 93.6566 147.237H167.602C231.962 147.237 244.524 144.949 249.214 138.536C253.905 132.122 243.668 129.549 252.641 129.549C261.613 129.549 271.443 125.709 270.138 117.988C268.873 110.308 281.232 108.143 288.491 106.019C295.751 103.895 299.585 94.0501 296.608 85.5125C293.63 76.9749 311.984 75.6677 309.823 62.4323C307.702 49.197 299.585 53.8947 293.59 47.4813C287.594 41.0679 297.424 29.5073 285.065 26.5253C272.666 23.5433 261.165 27.7917 261.573 19.7034C261.981 11.5743 265.407 5.61018 246.196 2.1788C226.986 -1.29344 94.0237 0.218004 70.9796 1.07585Z" fill="white"/>
<path d="M215.525 160.472C215.525 157.163 212.792 154.426 209.489 154.426H186.649C183.345 154.426 180.612 157.163 180.612 160.472C180.612 163.781 183.345 166.518 186.649 166.518H209.489C212.792 166.518 215.525 163.781 215.525 160.472Z" fill="white"/>
<path d="M208.918 182H218.544C221.072 182 223.193 179.917 223.193 177.343C223.193 174.811 221.113 172.687 218.544 172.687H208.918C206.389 172.687 204.269 174.77 204.269 177.343C204.269 179.917 206.389 182 208.918 182Z" fill="white"/>
</svg>
