<svg width="54" height="61" viewBox="0 0 54 61" fill="none" xmlns="http://www.w3.org/2000/svg">
<path d="M44.5 49.91L31.5 43L31.91 57.53L36.23 54.91L38.79 59L42.73 56.61L40.18 52.53L44.5 49.91Z" stroke="white" stroke-width="2" stroke-miterlimit="10"/>
<path d="M26.84 55H3C2.46957 55 1.96086 54.7893 1.58578 54.4142C1.21071 54.0391 1 53.5304 1 53V3C1 2.46957 1.21071 1.96086 1.58578 1.58578C1.96086 1.21071 2.46957 1 3 1H51C51.5304 1 52.0391 1.21071 52.4142 1.58578C52.7893 1.96086 53 2.46957 53 3V53C53 53.5304 52.7893 54.0391 52.4142 54.4142C52.0391 54.7893 51.5304 55 51 55H49.62" stroke="white" stroke-width="2" stroke-miterlimit="10" stroke-linecap="round"/>
<path d="M43 11H53" stroke="white" stroke-width="2" stroke-miterlimit="10" stroke-linecap="round"/>
<path d="M1 11H33" stroke="white" stroke-width="2" stroke-miterlimit="10" stroke-linecap="round"/>
<path d="M8.5 7.5C9.32843 7.5 10 6.82843 10 6C10 5.17157 9.32843 4.5 8.5 4.5C7.67157 4.5 7 5.17157 7 6C7 6.82843 7.67157 7.5 8.5 7.5Z" fill="white"/>
<path d="M14.5 7.5C15.3284 7.5 16 6.82843 16 6C16 5.17157 15.3284 4.5 14.5 4.5C13.6716 4.5 13 5.17157 13 6C13 6.82843 13.6716 7.5 14.5 7.5Z" fill="white"/>
<path d="M20.5 7.5C21.3284 7.5 22 6.82843 22 6C22 5.17157 21.3284 4.5 20.5 4.5C19.6716 4.5 19 5.17157 19 6C19 6.82843 19.6716 7.5 20.5 7.5Z" fill="white"/>
<path d="M11 22H37" stroke="white" stroke-width="2" stroke-miterlimit="10"/>
<path d="M11 32H37" stroke="white" stroke-width="2" stroke-miterlimit="10"/>
<path d="M11 41H23" stroke="white" stroke-width="2" stroke-miterlimit="10"/>
</svg>
